{
date = "2013-03-12 07:26:31 +0200";
familyName = "Open Sans Hebrew";
fontMaster = (
{
alignmentZones = (
"{1567, 16}",
"{1462, 24}",
"{1295, 30}",
"{1133, 21}",
"{0, -31}",
"{-492, -46}"
);
ascender = 1567;
capHeight = 1462;
descender = "-492";
id = UUID0;
italicAngle = 12;
weight = Bold;
xHeight = 1133;
}
);
glyphs = (
{
glyphname = A;
lastChange = "2013-03-10 17:18:29 +0200";
layers = (
{
layerId = UUID0;
name = "Bold Italic";
paths = (
{
closed = 1;
nodes = (
"868 0 LINE",
"1249 0 LINE",
"1126 1462 LINE",
"623 1462 LINE",
"-121 0 LINE",
"285 0 LINE",
"410 274 LINE",
"858 274 LINE"
);
},
{
closed = 1;
nodes = (
"770 1061 LINE",
"795 1114 OFFCURVE",
"815 1170 OFFCURVE",
"831 1227 CURVE",
"828 1190 OFFCURVE",
"827 1146 OFFCURVE",
"827 1096 CURVE",
"829 1010 LINE",
"846 586 LINE",
"553 586 LINE"
);
}
);
width = 1384;
}
);
unicode = 0041;
},
{
glyphname = AE;
lastChange = "2013-03-10 17:18:29 +0200";
layers = (
{
layerId = UUID0;
name = "Bold Italic";
paths = (
{
closed = 1;
nodes = (
"1755 322 LINE",
"1278 322 LINE",
"1335 598 LINE",
"1780 598 LINE",
"1851 915 LINE",
"1407 915 LINE",
"1454 1145 LINE",
"1931 1145 LINE",
"1997 1462 LINE",
"784 1462 LINE",
"-125 0 LINE",
"289 0 LINE",
"459 274 LINE",
"877 274 LINE",
"819 0 LINE",
"1688 0 LINE"
);
},
{
closed = 1;
nodes = (
"662 602 LINE",
"993 1145 LINE",
"1061 1145 LINE",
"948 602 LINE"
);
}
);
width = 1937;
}
);
unicode = 00C6;
},
{
glyphname = B;
lastChange = "2013-03-10 17:18:29 +0200";
layers = (
{
layerId = UUID0;
name = "Bold Italic";
paths = (
{
closed = 1;
nodes = (
"33 0 LINE",
"580 0 LINE SMOOTH",
"767 0 OFFCURVE",
"911 42 OFFCURVE",
"1012 125 CURVE SMOOTH",
"1114 208 OFFCURVE",
"1165 326 OFFCURVE",
"1165 479 CURVE SMOOTH",
"1165 619 OFFCURVE",
"1090 719 OFFCURVE",
"973 758 CURVE",
"973 766 LINE",
"1171 825 OFFCURVE",
"1270 951 OFFCURVE",
"1270 1143 CURVE SMOOTH",
"1270 1348 OFFCURVE",
"1118 1462 OFFCURVE",
"829 1462 CURVE SMOOTH",
"342 1462 LINE"
);
},
{
closed = 1;
nodes = (
"674 1163 LINE",
"737 1163 LINE SMOOTH",
"822 1163 OFFCURVE",
"864 1129 OFFCURVE",
"864 1061 CURVE SMOOTH",
"864 949 OFFCURVE",
"803 901 OFFCURVE",
"686 901 CURVE SMOOTH",
"614 901 LINE"
);
},
{
closed = 1;
nodes = (
"623 612 LINE",
"734 612 OFFCURVE",
"772 567 OFFCURVE",
"772 475 CURVE SMOOTH",
"772 426 OFFCURVE",
"753 386 OFFCURVE",
"714 353 CURVE SMOOTH",
"676 321 OFFCURVE",
"628 305 OFFCURVE",
"571 305 CURVE SMOOTH",
"489 305 LINE",
"555 612 LINE"
);
}
);
width = 1298;
}
);
unicode = 0042;
},
{
glyphname = C;
lastChange = "2013-03-10 17:18:29 +0200";
layers = (
{
layerId = UUID0;
name = "Bold Italic";
paths = (
{
closed = 1;
nodes = (
"993 1159 OFFCURVE",
"1090 1122 OFFCURVE",
"1214 1049 CURVE",
"1362 1354 LINE",
"1218 1441 OFFCURVE",
"1058 1485 OFFCURVE",
"881 1485 CURVE SMOOTH",
"581 1485 OFFCURVE",
"341 1333 OFFCURVE",
"205 1037 CURVE SMOOTH",
"138 889 OFFCURVE",
"104 726 OFFCURVE",
"104 549 CURVE SMOOTH",
"104 368 OFFCURVE",
"151 227 OFFCURVE",
"244 128 CURVE SMOOTH",
"338 29 OFFCURVE",
"472 -20 OFFCURVE",
"645 -20 CURVE SMOOTH",
"803 -20 OFFCURVE",
"950 10 OFFCURVE",
"1085 70 CURVE",
"1085 393 LINE",
"1008 360 OFFCURVE",
"942 337 OFFCURVE",
"885 323 CURVE SMOOTH",
"828 310 OFFCURVE",
"772 303 OFFCURVE",
"717 303 CURVE SMOOTH",
"577 303 OFFCURVE",
"500 390 OFFCURVE",
"500 569 CURVE SMOOTH",
"500 676 OFFCURVE",
"516 775 OFFCURVE",
"549 866 CURVE SMOOTH",
"582 957 OFFCURVE",
"628 1029 OFFCURVE",
"686 1081 CURVE SMOOTH",
"744 1133 OFFCURVE",
"809 1159 OFFCURVE",
"881 1159 CURVE SMOOTH"
);
}
);
width = 1290;
}
);
unicode = 0043;
},
{
glyphname = D;
lastChange = "2013-03-10 17:18:29 +0200";
layers = (
{
layerId = UUID0;
name = "Bold Italic";
paths = (
{
closed = 1;
nodes = (
"1337 1085 OFFCURVE",
"1286 1221 OFFCURVE",
"1185 1317 CURVE SMOOTH",
"1084 1414 OFFCURVE",
"942 1462 OFFCURVE",
"758 1462 CURVE SMOOTH",
"342 1462 LINE",
"33 0 LINE",
"504 0 LINE",
"1020 -5 OFFCURVE",
"1342 349 OFFCURVE",
"1337 909 CURVE"
);
},
{
closed = 1;
nodes = (
"494 324 LINE",
"666 1143 LINE",
"737 1143 LINE SMOOTH",
"866 1143 OFFCURVE",
"942 1056 OFFCURVE",
"942 889 CURVE",
"945 557 OFFCURVE",
"782 318 OFFCURVE",
"563 324 CURVE"
);
}
);
width = 1401;
}
);
unicode = 0044;
},
{
glyphname = E;
lastChange = "2013-03-10 17:18:29 +0200";
layers = (
{
layerId = UUID0;
name = "Bold Italic";
paths = (
{
closed = 1;
nodes = (
"969 322 LINE",
"492 322 LINE",
"549 598 LINE",
"993 598 LINE",
"1065 915 LINE",
"621 915 LINE",
"668 1145 LINE",
"1145 1145 LINE",
"1210 1462 LINE",
"342 1462 LINE",
"33 0 LINE",
"901 0 LINE"
);
}
);
width = 1151;
}
);
unicode = 0045;
},
{
glyphname = F;
lastChange = "2013-03-10 17:18:29 +0200";
layers = (
{
layerId = UUID0;
name = "Bold Italic";
paths = (
{
closed = 1;
nodes = (
"537 547 LINE",
"975 547 LINE",
"1044 866 LINE",
"608 866 LINE",
"666 1145 LINE",
"1137 1145 LINE",
"1204 1462 LINE",
"342 1462 LINE",
"33 0 LINE",
"424 0 LINE"
);
}
);
width = 1165;
}
);
unicode = 0046;
},
{
glyphname = G;
lastChange = "2013-03-10 17:18:29 +0200";
layers = (
{
layerId = UUID0;
name = "Bold Italic";
paths = (
{
closed = 1;
nodes = (
"664 551 LINE",
"893 551 LINE",
"842 319 LINE",
"795 310 OFFCURVE",
"751 305 OFFCURVE",
"709 305 CURVE SMOOTH",
"570 305 OFFCURVE",
"500 393 OFFCURVE",
"500 569 CURVE SMOOTH",
"500 676 OFFCURVE",
"520 777 OFFCURVE",
"560 872 CURVE SMOOTH",
"601 967 OFFCURVE",
"655 1038 OFFCURVE",
"722 1086 CURVE SMOOTH",
"790 1135 OFFCURVE",
"868 1159 OFFCURVE",
"956 1159 CURVE SMOOTH",
"1058 1159 OFFCURVE",
"1160 1129 OFFCURVE",
"1262 1069 CURVE",
"1409 1378 LINE",
"1288 1449 OFFCURVE",
"1138 1485 OFFCURVE",
"961 1485 CURVE SMOOTH",
"622 1485 OFFCURVE",
"361 1332 OFFCURVE",
"214 1045 CURVE SMOOTH",
"141 902 OFFCURVE",
"104 741 OFFCURVE",
"104 563 CURVE SMOOTH",
"104 377 OFFCURVE",
"152 233 OFFCURVE",
"248 132 CURVE SMOOTH",
"344 31 OFFCURVE",
"479 -20 OFFCURVE",
"653 -20 CURVE SMOOTH",
"834 -20 OFFCURVE",
"1007 7 OFFCURVE",
"1174 61 CURVE",
"1341 856 LINE",
"731 856 LINE"
);
}
);
width = 1430;
}
);
unicode = 0047;
},
{
glyphname = H;
lastChange = "2013-03-10 17:18:29 +0200";
layers = (
{
layerId = UUID0;
name = "Bold Italic";
paths = (
{
closed = 1;
nodes = (
"1473 1462 LINE",
"1081 1462 LINE",
"969 920 LINE",
"621 920 LINE",
"733 1462 LINE",
"342 1462 LINE",
"33 0 LINE",
"424 0 LINE",
"551 596 LINE",
"897 596 LINE",
"772 0 LINE",
"1163 0 LINE"
);
}
);
width = 1462;
}
);
unicode = 0048;
},
{
glyphname = I;
lastChange = "2013-03-10 17:18:29 +0200";
layers = (
{
layerId = UUID0;
name = "Bold Italic";
paths = (
{
closed = 1;
nodes = (
"428 0 LINE",
"737 1462 LINE",
"340 1462 LINE",
"31 0 LINE"
);
}
);
width = 727;
}
);
unicode = 0049;
},
{
glyphname = J;
lastChange = "2013-03-10 17:18:29 +0200";
layers = (
{
layerId = UUID0;
name = "Bold Italic";
paths = (
{
closed = 1;
nodes = (
"5 -461 OFFCURVE",
"102 -444 OFFCURVE",
"177 -409 CURVE SMOOTH",
"252 -374 OFFCURVE",
"313 -319 OFFCURVE",
"360 -244 CURVE SMOOTH",
"407 -169 OFFCURVE",
"444 -65 OFFCURVE",
"473 68 CURVE SMOOTH",
"772 1462 LINE",
"381 1462 LINE",
"92 117 LINE SMOOTH",
"73 26 OFFCURVE",
"45 -39 OFFCURVE",
"8 -78 CURVE SMOOTH",
"-29 -117 OFFCURVE",
"-83 -137 OFFCURVE",
"-154 -137 CURVE SMOOTH",
"-204 -137 OFFCURVE",
"-262 -129 OFFCURVE",
"-328 -113 CURVE",
"-328 -432 LINE",
"-257 -451 OFFCURVE",
"-186 -461 OFFCURVE",
"-115 -461 CURVE SMOOTH"
);
}
);
width = 764;
}
);
unicode = 004A;
},
{
glyphname = K;
lastChange = "2013-03-10 17:18:29 +0200";
layers = (
{
layerId = UUID0;
name = "Bold Italic";
paths = (
{
closed = 1;
nodes = (
"971 788 LINE",
"1522 1462 LINE",
"1063 1462 LINE",
"766 1092 LINE SMOOTH",
"738 1057 OFFCURVE",
"695 992 OFFCURVE",
"636 897 CURVE",
"598 838 LINE",
"733 1462 LINE",
"342 1462 LINE",
"33 0 LINE",
"424 0 LINE",
"532 522 LINE",
"629 578 LINE",
"803 0 LINE",
"1241 0 LINE"
);
}
);
width = 1370;
}
);
unicode = 004B;
},
{
glyphname = L;
lastChange = "2013-03-10 17:18:29 +0200";
layers = (
{
layerId = UUID0;
name = "Bold Italic";
paths = (
{
closed = 1;
nodes = (
"901 0 LINE",
"969 319 LINE",
"492 319 LINE",
"733 1462 LINE",
"342 1462 LINE",
"33 0 LINE"
);
}
);
width = 1079;
}
);
unicode = 004C;
},
{
glyphname = M;
lastChange = "2013-03-10 17:18:29 +0200";
layers = (
{
layerId = UUID0;
name = "Bold Italic";
paths = (
{
closed = 1;
nodes = (
"958 0 LINE",
"1440 1049 LINE",
"1448 1049 LINE",
"1433 985 LINE",
"1394 846 OFFCURVE",
"1358 701 OFFCURVE",
"1325 549 CURVE SMOOTH",
"1208 0 LINE",
"1559 0 LINE",
"1872 1462 LINE",
"1346 1462 LINE",
"868 424 LINE",
"860 424 LINE",
"860 1462 LINE",
"342 1462 LINE",
"33 0 LINE",
"381 0 LINE",
"494 537 LINE SMOOTH",
"507 600 OFFCURVE",
"535 771 OFFCURVE",
"580 1049 CURVE",
"588 1049 LINE",
"588 0 LINE"
);
}
);
width = 1862;
}
);
unicode = 004D;
},
{
glyphname = N;
lastChange = "2013-03-10 17:18:29 +0200";
layers = (
{
layerId = UUID0;
name = "Bold Italic";
paths = (
{
closed = 1;
nodes = (
"1628 1462 LINE",
"1280 1462 LINE",
"1149 850 LINE SMOOTH",
"1130 760 OFFCURVE",
"1111 636 OFFCURVE",
"1092 479 CURVE",
"1083 479 LINE",
"797 1462 LINE",
"342 1462 LINE",
"33 0 LINE",
"381 0 LINE",
"510 610 LINE",
"529 695 OFFCURVE",
"548 834 OFFCURVE",
"567 1028 CURVE",
"575 1028 LINE",
"864 0 LINE",
"1319 0 LINE"
);
}
);
width = 1618;
}
);
unicode = 004E;
},
{
glyphname = O;
lastChange = "2013-03-10 17:18:29 +0200";
layers = (
{
layerId = UUID0;
name = "Bold Italic";
paths = (
{
closed = 1;
nodes = (
"588 1485 OFFCURVE",
"344 1326 OFFCURVE",
"207 1030 CURVE SMOOTH",
"138 882 OFFCURVE",
"104 720 OFFCURVE",
"104 543 CURVE SMOOTH",
"104 366 OFFCURVE",
"153 228 OFFCURVE",
"250 129 CURVE SMOOTH",
"348 30 OFFCURVE",
"487 -20 OFFCURVE",
"666 -20 CURVE SMOOTH",
"974 -20 OFFCURVE",
"1214 142 OFFCURVE",
"1346 435 CURVE SMOOTH",
"1413 582 OFFCURVE",
"1446 745 OFFCURVE",
"1446 922 CURVE SMOOTH",
"1446 1099 OFFCURVE",
"1398 1237 OFFCURVE",
"1301 1336 CURVE SMOOTH",
"1205 1435 OFFCURVE",
"1070 1485 OFFCURVE",
"897 1485 CURVE SMOOTH"
);
},
{
closed = 1;
nodes = (
"1051 807 OFFCURVE",
"1035 704 OFFCURVE",
"1004 610 CURVE SMOOTH",
"973 516 OFFCURVE",
"931 441 OFFCURVE",
"876 386 CURVE SMOOTH",
"822 331 OFFCURVE",
"763 303 OFFCURVE",
"700 303 CURVE SMOOTH",
"567 303 OFFCURVE",
"500 384 OFFCURVE",
"500 545 CURVE SMOOTH",
"500 648 OFFCURVE",
"516 748 OFFCURVE",
"549 846 CURVE SMOOTH",
"582 944 OFFCURVE",
"627 1021 OFFCURVE",
"682 1077 CURVE SMOOTH",
"737 1133 OFFCURVE",
"798 1161 OFFCURVE",
"864 1161 CURVE SMOOTH",
"985 1161 OFFCURVE",
"1051 1070 OFFCURVE",
"1051 918 CURVE SMOOTH"
);
}
);
width = 1509;
}
);
unicode = 004F;
},
{
glyphname = Oslash;
lastChange = "2013-03-10 17:18:29 +0200";
layers = (
{
layerId = UUID0;
name = "Bold Italic";
paths = (
{
closed = 1;
nodes = (
"730 1485 OFFCURVE",
"597 1446 OFFCURVE",
"480 1367 CURVE SMOOTH",
"364 1289 OFFCURVE",
"272 1176 OFFCURVE",
"205 1027 CURVE SMOOTH",
"138 879 OFFCURVE",
"104 718 OFFCURVE",
"104 543 CURVE SMOOTH",
"104 392 OFFCURVE",
"140 270 OFFCURVE",
"211 176 CURVE",
"94 31 LINE",
"254 -86 LINE",
"360 49 LINE",
"448 3 OFFCURVE",
"556 -20 OFFCURVE",
"684 -20 CURVE SMOOTH",
"831 -20 OFFCURVE",
"961 20 OFFCURVE",
"1076 99 CURVE SMOOTH",
"1191 179 OFFCURVE",
"1282 293 OFFCURVE",
"1347 441 CURVE SMOOTH",
"1413 590 OFFCURVE",
"1446 750 OFFCURVE",
"1446 922 CURVE SMOOTH",
"1446 1068 OFFCURVE",
"1412 1189 OFFCURVE",
"1343 1284 CURVE",
"1442 1409 LINE",
"1286 1528 LINE",
"1194 1413 LINE",
"1105 1461 OFFCURVE",
"1000 1485 OFFCURVE",
"879 1485 CURVE SMOOTH"
);
},
{
closed = 1;
nodes = (
"500 549 LINE",
"500 658 OFFCURVE",
"516 760 OFFCURVE",
"548 855 CURVE SMOOTH",
"580 950 OFFCURVE",
"623 1024 OFFCURVE",
"677 1079 CURVE SMOOTH",
"731 1134 OFFCURVE",
"789 1161 OFFCURVE",
"852 1161 CURVE SMOOTH",
"899 1161 OFFCURVE",
"937 1150 OFFCURVE",
"967 1128 CURVE",
"500 539 LINE"
);
},
{
closed = 1;
nodes = (
"655 303 OFFCURVE",
"617 313 OFFCURVE",
"586 332 CURVE",
"1051 915 LINE",
"1051 804 OFFCURVE",
"1035 701 OFFCURVE",
"1004 607 CURVE SMOOTH",
"973 513 OFFCURVE",
"930 439 OFFCURVE",
"876 384 CURVE SMOOTH",
"822 330 OFFCURVE",
"763 303 OFFCURVE",
"700 303 CURVE SMOOTH"
);
}
);
width = 1509;
}
);
unicode = 00D8;
},
{
glyphname = OE;
lastChange = "2013-03-10 17:18:29 +0200";
layers = (
{
layerId = UUID0;
name = "Bold Italic";
paths = (
{
closed = 1;
nodes = (
"1724 324 LINE",
"1247 324 LINE",
"1305 596 LINE",
"1749 596 LINE",
"1821 918 LINE",
"1376 918 LINE",
"1423 1143 LINE",
"1901 1143 LINE",
"1968 1462 LINE",
"1094 1462 LINE",
"1029 1477 OFFCURVE",
"966 1485 OFFCURVE",
"903 1485 CURVE SMOOTH",
"667 1485 OFFCURVE",
"468 1393 OFFCURVE",
"327 1220 CURVE SMOOTH",
"256 1133 OFFCURVE",
"201 1029 OFFCURVE",
"162 907 CURVE SMOOTH",
"123 785 OFFCURVE",
"104 659 OFFCURVE",
"104 528 CURVE SMOOTH",
"104 358 OFFCURVE",
"152 224 OFFCURVE",
"247 126 CURVE",
"343 29 OFFCURVE",
"476 -20 OFFCURVE",
"647 -20 CURVE SMOOTH",
"709 -20 OFFCURVE",
"775 -13 OFFCURVE",
"844 0 CURVE",
"1659 0 LINE"
);
},
{
closed = 1;
nodes = (
"561 309 OFFCURVE",
"500 381 OFFCURVE",
"500 526 CURVE SMOOTH",
"500 636 OFFCURVE",
"517 740 OFFCURVE",
"550 838 CURVE SMOOTH",
"584 936 OFFCURVE",
"630 1014 OFFCURVE",
"687 1073 CURVE SMOOTH",
"745 1132 OFFCURVE",
"806 1161 OFFCURVE",
"870 1161 CURVE SMOOTH",
"937 1161 OFFCURVE",
"989 1145 OFFCURVE",
"1024 1112 CURVE",
"862 350 LINE",
"806 323 OFFCURVE",
"746 309 OFFCURVE",
"682 309 CURVE SMOOTH"
);
}
);
width = 1909;
}
);
unicode = 0152;
},
{
glyphname = P;
lastChange = "2013-03-10 17:18:29 +0200";
layers = (
{
layerId = UUID0;
name = "Bold Italic";
paths = (
{
closed = 1;
nodes = (
"1251 1305 OFFCURVE",
"1060 1462 OFFCURVE",
"715 1462 CURVE SMOOTH",
"342 1462 LINE",
"33 0 LINE",
"424 0 LINE",
"524 485 LINE",
"610 485 LINE SMOOTH",
"809 485 OFFCURVE",
"965 533 OFFCURVE",
"1079 628 CURVE SMOOTH",
"1194 724 OFFCURVE",
"1251 856 OFFCURVE",
"1251 1024 CURVE SMOOTH"
);
},
{
closed = 1;
nodes = (
"666 1143 LINE",
"725 1143 LINE SMOOTH",
"809 1143 OFFCURVE",
"860 1091 OFFCURVE",
"860 1012 CURVE SMOOTH",
"860 952 OFFCURVE",
"841 902 OFFCURVE",
"804 863 CURVE SMOOTH",
"767 824 OFFCURVE",
"718 805 OFFCURVE",
"657 805 CURVE SMOOTH",
"594 805 LINE"
);
}
);
width = 1276;
}
);
unicode = 0050;
},
{
glyphname = Q;
lastChange = "2013-03-10 17:18:29 +0200";
layers = (
{
layerId = UUID0;
name = "Bold Italic";
paths = (
{
closed = 1;
nodes = (
"590 1485 OFFCURVE",
"343 1324 OFFCURVE",
"206 1029 CURVE SMOOTH",
"138 882 OFFCURVE",
"104 720 OFFCURVE",
"104 543 CURVE SMOOTH",
"104 367 OFFCURVE",
"151 229 OFFCURVE",
"246 129 CURVE SMOOTH",
"341 30 OFFCURVE",
"475 -20 OFFCURVE",
"647 -20 CURVE SMOOTH",
"659 -20 LINE",
"821 -348 LINE",
"1260 -348 LINE",
"1022 74 LINE",
"1153 147 OFFCURVE",
"1256 260 OFFCURVE",
"1332 413 CURVE SMOOTH",
"1408 566 OFFCURVE",
"1446 735 OFFCURVE",
"1446 922 CURVE SMOOTH",
"1446 1098 OFFCURVE",
"1398 1236 OFFCURVE",
"1303 1335 CURVE SMOOTH",
"1208 1435 OFFCURVE",
"1075 1485 OFFCURVE",
"903 1485 CURVE SMOOTH"
);
},
{
closed = 1;
nodes = (
"986 1157 OFFCURVE",
"1051 1078 OFFCURVE",
"1051 926 CURVE SMOOTH",
"1051 814 OFFCURVE",
"1035 710 OFFCURVE",
"1002 614 CURVE SMOOTH",
"969 519 OFFCURVE",
"925 444 OFFCURVE",
"868 390 CURVE SMOOTH",
"812 336 OFFCURVE",
"750 309 OFFCURVE",
"682 309 CURVE SMOOTH",
"566 309 OFFCURVE",
"500 386 OFFCURVE",
"500 539 CURVE SMOOTH",
"500 650 OFFCURVE",
"516 753 OFFCURVE",
"548 848 CURVE SMOOTH",
"580 943 OFFCURVE",
"624 1019 OFFCURVE",
"681 1074 CURVE SMOOTH",
"738 1129 OFFCURVE",
"801 1157 OFFCURVE",
"870 1157 CURVE SMOOTH"
);
}
);
width = 1509;
}
);
unicode = 0051;
},
{
glyphname = R;
lastChange = "2013-03-10 17:18:29 +0200";
layers = (
{
layerId = UUID0;
name = "Bold Italic";
paths = (
{
closed = 1;
nodes = (
"610 532 LINE",
"805 0 LINE",
"1231 0 LINE",
"1191 96 LINE",
"967 612 LINE",
"1154 693 OFFCURVE",
"1249 853 OFFCURVE",
"1249 1061 CURVE SMOOTH",
"1249 1329 OFFCURVE",
"1065 1462 OFFCURVE",
"729 1462 CURVE SMOOTH",
"342 1462 LINE",
"33 0 LINE",
"424 0 LINE",
"537 532 LINE"
);
},
{
closed = 1;
nodes = (
"670 1163 LINE",
"723 1163 LINE SMOOTH",
"811 1163 OFFCURVE",
"858 1119 OFFCURVE",
"858 1036 CURVE SMOOTH",
"858 905 OFFCURVE",
"778 829 OFFCURVE",
"651 829 CURVE SMOOTH",
"600 829 LINE"
);
}
);
width = 1331;
}
);
unicode = 0052;
},
{
glyphname = S;
lastChange = "2013-03-10 17:18:29 +0200";
layers = (
{
layerId = UUID0;
name = "Bold Italic";
paths = (
{
closed = 1;
nodes = (
"977 614 OFFCURVE",
"902 736 OFFCURVE",
"745 852 CURVE SMOOTH",
"682 899 OFFCURVE",
"640 937 OFFCURVE",
"617 965 CURVE",
"595 994 OFFCURVE",
"584 1024 OFFCURVE",
"584 1057 CURVE SMOOTH",
"584 1129 OFFCURVE",
"632 1167 OFFCURVE",
"717 1167 CURVE SMOOTH",
"797 1167 OFFCURVE",
"894 1138 OFFCURVE",
"1008 1079 CURVE",
"1143 1376 LINE",
"1016 1447 OFFCURVE",
"872 1483 OFFCURVE",
"713 1483 CURVE SMOOTH",
"614 1483 OFFCURVE",
"525 1464 OFFCURVE",
"445 1425 CURVE SMOOTH",
"366 1387 OFFCURVE",
"304 1333 OFFCURVE",
"260 1263 CURVE SMOOTH",
"217 1194 OFFCURVE",
"195 1115 OFFCURVE",
"195 1028 CURVE SMOOTH",
"195 872 OFFCURVE",
"262 746 OFFCURVE",
"418 621 CURVE",
"482 568 OFFCURVE",
"521 533 OFFCURVE",
"536 517 CURVE SMOOTH",
"551 502 OFFCURVE",
"562 486 OFFCURVE",
"570 470 CURVE SMOOTH",
"578 455 OFFCURVE",
"582 438 OFFCURVE",
"582 420 CURVE SMOOTH",
"582 344 OFFCURVE",
"531 301 OFFCURVE",
"432 301 CURVE SMOOTH",
"373 301 OFFCURVE",
"308 313 OFFCURVE",
"235 337 CURVE SMOOTH",
"163 361 OFFCURVE",
"99 391 OFFCURVE",
"43 426 CURVE",
"43 76 LINE",
"138 13 OFFCURVE",
"273 -20 OFFCURVE",
"420 -20 CURVE SMOOTH",
"595 -20 OFFCURVE",
"732 21 OFFCURVE",
"830 103 CURVE SMOOTH",
"928 186 OFFCURVE",
"977 301 OFFCURVE",
"977 449 CURVE SMOOTH"
);
}
);
width = 1122;
}
);
unicode = 0053;
},
{
glyphname = T;
lastChange = "2013-03-10 17:18:29 +0200";
layers = (
{
layerId = UUID0;
name = "Bold Italic";
paths = (
{
closed = 1;
nodes = (
"864 1139 LINE",
"1182 1139 LINE",
"1253 1462 LINE",
"225 1462 LINE",
"156 1139 LINE",
"473 1139 LINE",
"236 0 LINE",
"627 0 LINE"
);
}
);
width = 1130;
}
);
unicode = 0054;
},
{
glyphname = U;
lastChange = "2013-03-10 17:18:29 +0200";
layers = (
{
layerId = UUID0;
name = "Bold Italic";
paths = (
{
closed = 1;
nodes = (
"1059 1462 LINE",
"868 569 LINE",
"831 392 OFFCURVE",
"764 307 OFFCURVE",
"639 307 CURVE SMOOTH",
"558 307 OFFCURVE",
"518 349 OFFCURVE",
"518 434 CURVE SMOOTH",
"518 465 OFFCURVE",
"523 504 OFFCURVE",
"532 549 CURVE SMOOTH",
"727 1462 LINE",
"336 1462 LINE",
"137 539 LINE",
"129 496 OFFCURVE",
"125 453 OFFCURVE",
"125 410 CURVE",
"121 166 OFFCURVE",
"307 -25 OFFCURVE",
"575 -20 CURVE",
"955 -20 OFFCURVE",
"1172 155 OFFCURVE",
"1251 530 CURVE",
"1450 1462 LINE"
);
}
);
width = 1436;
}
);
unicode = 0055;
},
{
glyphname = V;
lastChange = "2013-03-10 17:18:29 +0200";
layers = (
{
layerId = UUID0;
name = "Bold Italic";
paths = (
{
closed = 1;
nodes = (
"651 657 LINE",
"634 622 OFFCURVE",
"616 574 OFFCURVE",
"595 511 CURVE SMOOTH",
"575 449 OFFCURVE",
"560 397 OFFCURVE",
"551 354 CURVE",
"543 354 LINE",
"554 429 OFFCURVE",
"559 514 OFFCURVE",
"559 610 CURVE SMOOTH",
"559 661 LINE",
"532 1462 LINE",
"150 1462 LINE",
"254 0 LINE",
"690 0 LINE",
"1415 1462 LINE",
"1001 1462 LINE"
);
}
);
width = 1264;
}
);
unicode = 0056;
},
{
glyphname = W;
lastChange = "2013-03-10 17:18:29 +0200";
layers = (
{
layerId = UUID0;
name = "Bold Italic";
paths = (
{
closed = 1;
nodes = (
"487 354 LINE",
"500 426 OFFCURVE",
"508 551 OFFCURVE",
"512 729 CURVE",
"522 1462 LINE",
"152 1462 LINE",
"201 0 LINE",
"635 0 LINE",
"888 595 LINE",
"945 739 OFFCURVE",
"984 855 OFFCURVE",
"1006 944 CURVE",
"997 831 OFFCURVE",
"993 723 OFFCURVE",
"993 620 CURVE SMOOTH",
"993 0 LINE",
"1454 0 LINE",
"2089 1462 LINE",
"1702 1462 LINE",
"1399 700 LINE",
"1266 354 LINE",
"1283 461 OFFCURVE",
"1292 566 OFFCURVE",
"1292 670 CURVE SMOOTH",
"1292 1462 LINE",
"956 1462 LINE",
"621 690 LINE",
"527 458 LINE",
"487 354 LINE"
);
}
);
width = 1915;
}
);
unicode = 0057;
},
{
glyphname = X;
lastChange = "2013-03-10 17:18:29 +0200";
layers = (
{
layerId = UUID0;
name = "Bold Italic";
paths = (
{
closed = 1;
nodes = (
"973 737 LINE",
"1511 1462 LINE",
"1063 1462 LINE",
"754 993 LINE",
"631 1462 LINE",
"215 1462 LINE",
"438 776 LINE",
"-125 0 LINE",
"319 0 LINE",
"657 498 LINE",
"803 0 LINE",
"1235 0 LINE"
);
}
);
width = 1358;
}
);
unicode = 0058;
},
{
glyphname = Y;
lastChange = "2013-03-10 17:18:29 +0200";
layers = (
{
layerId = UUID0;
name = "Bold Italic";
paths = (
{
closed = 1;
nodes = (
"567 1462 LINE",
"164 1462 LINE",
"401 567 LINE",
"281 0 LINE",
"672 0 LINE",
"793 567 LINE",
"1405 1462 LINE",
"969 1462 LINE",
"657 920 LINE"
);
}
);
width = 1237;
}
);
unicode = 0059;
},
{
glyphname = Z;
lastChange = "2013-03-10 17:18:29 +0200";
layers = (
{
layerId = UUID0;
name = "Bold Italic";
paths = (
{
closed = 1;
nodes = (
"1010 319 LINE",
"467 319 LINE",
"1167 1217 LINE",
"1219 1462 LINE",
"233 1462 LINE",
"166 1143 LINE",
"645 1143 LINE",
"-45 242 LINE",
"-92 0 LINE",
"942 0 LINE"
);
}
);
width = 1104;
}
);
unicode = 005A;
},
{
glyphname = a;
lastChange = "2013-03-10 17:18:29 +0200";
layers = (
{
layerId = UUID0;
name = "Bold Italic";
paths = (
{
closed = 1;
nodes = (
"508 291 OFFCURVE",
"479 339 OFFCURVE",
"479 434 CURVE SMOOTH",
"479 537 OFFCURVE",
"499 631 OFFCURVE",
"540 715 CURVE SMOOTH",
"581 800 OFFCURVE",
"627 842 OFFCURVE",
"678 842 CURVE SMOOTH",
"734 842 OFFCURVE",
"760 785 OFFCURVE",
"760 698 CURVE SMOOTH",
"760 635 OFFCURVE",
"751 571 OFFCURVE",
"733 506 CURVE SMOOTH",
"715 441 OFFCURVE",
"691 388 OFFCURVE",
"660 349 CURVE SMOOTH",
"630 310 OFFCURVE",
"598 291 OFFCURVE",
"565 291 CURVE SMOOTH"
);
},
{
closed = 1;
nodes = (
"1221 1133 LINE",
"911 1133 LINE",
"858 993 LINE",
"850 993 LINE",
"783 1106 OFFCURVE",
"700 1153 OFFCURVE",
"588 1153 CURVE SMOOTH",
"408 1153 OFFCURVE",
"254 1025 OFFCURVE",
"157 777 CURVE SMOOTH",
"108 653 OFFCURVE",
"84 531 OFFCURVE",
"84 412 CURVE SMOOTH",
"84 133 OFFCURVE",
"195 -20 OFFCURVE",
"406 -20 CURVE SMOOTH",
"515 -20 OFFCURVE",
"599 19 OFFCURVE",
"674 123 CURVE",
"682 123 LINE",
"672 0 LINE",
"981 0 LINE"
);
}
);
width = 1243;
}
);
unicode = 0061;
},
{
glyphname = ae;
lastChange = "2013-03-10 17:18:29 +0200";
layers = (
{
layerId = UUID0;
name = "Bold Italic";
paths = (
{
closed = 1;
nodes = (
"1265 -20 OFFCURVE",
"1329 -13 OFFCURVE",
"1384 2 CURVE SMOOTH",
"1440 17 OFFCURVE",
"1501 43 OFFCURVE",
"1567 82 CURVE",
"1567 356 LINE",
"1438 288 OFFCURVE",
"1344 258 OFFCURVE",
"1239 258 CURVE SMOOTH",
"1130 258 OFFCURVE",
"1075 307 OFFCURVE",
"1075 406 CURVE SMOOTH",
"1075 422 LINE",
"1135 422 LINE SMOOTH",
"1527 422 OFFCURVE",
"1743 570 OFFCURVE",
"1743 838 CURVE SMOOTH",
"1743 933 OFFCURVE",
"1711 1009 OFFCURVE",
"1648 1066 CURVE SMOOTH",
"1585 1124 OFFCURVE",
"1502 1153 OFFCURVE",
"1397 1153 CURVE SMOOTH",
"1301 1153 OFFCURVE",
"1195 1113 OFFCURVE",
"1118 1038 CURVE",
"1118 1133 LINE",
"911 1133 LINE",
"858 993 LINE",
"850 993 LINE",
"783 1105 OFFCURVE",
"711 1153 OFFCURVE",
"588 1153 CURVE SMOOTH",
"408 1153 OFFCURVE",
"254 1025 OFFCURVE",
"157 777 CURVE SMOOTH",
"108 653 OFFCURVE",
"84 531 OFFCURVE",
"84 412 CURVE SMOOTH",
"84 133 OFFCURVE",
"195 -20 OFFCURVE",
"406 -20 CURVE SMOOTH",
"515 -20 OFFCURVE",
"599 19 OFFCURVE",
"674 123 CURVE",
"682 123 LINE",
"672 0 LINE",
"899 0 LINE",
"930 92 LINE",
"985 17 OFFCURVE",
"1073 -20 OFFCURVE",
"1192 -20 CURVE SMOOTH"
);
},
{
closed = 1;
nodes = (
"508 291 OFFCURVE",
"479 339 OFFCURVE",
"479 434 CURVE SMOOTH",
"479 499 OFFCURVE",
"488 564 OFFCURVE",
"506 629 CURVE SMOOTH",
"524 694 OFFCURVE",
"548 746 OFFCURVE",
"577 784 CURVE SMOOTH",
"606 823 OFFCURVE",
"637 842 OFFCURVE",
"670 842 CURVE SMOOTH",
"726 842 OFFCURVE",
"758 785 OFFCURVE",
"758 698 CURVE SMOOTH",
"758 591 OFFCURVE",
"738 496 OFFCURVE",
"699 414 CURVE SMOOTH",
"660 332 OFFCURVE",
"616 291 OFFCURVE",
"565 291 CURVE SMOOTH"
);
},
{
closed = 1;
nodes = (
"1351 891 OFFCURVE",
"1376 858 OFFCURVE",
"1376 815 CURVE SMOOTH",
"1376 724 OFFCURVE",
"1288 664 OFFCURVE",
"1143 664 CURVE SMOOTH",
"1114 664 LINE",
"1121 723 OFFCURVE",
"1143 775 OFFCURVE",
"1178 821 CURVE SMOOTH",
"1213 868 OFFCURVE",
"1251 891 OFFCURVE",
"1292 891 CURVE SMOOTH"
);
}
);
width = 1788;
}
);
unicode = 00E6;
},
{
glyphname = b;
lastChange = "2013-03-10 17:18:29 +0200";
layers = (
{
layerId = UUID0;
name = "Bold Italic";
paths = (
{
closed = 1;
nodes = (
"840 -20 OFFCURVE",
"995 114 OFFCURVE",
"1088 359 CURVE SMOOTH",
"1135 482 OFFCURVE",
"1159 602 OFFCURVE",
"1159 721 CURVE SMOOTH",
"1159 1000 OFFCURVE",
"1045 1153 OFFCURVE",
"838 1153 CURVE SMOOTH",
"773 1153 OFFCURVE",
"725 1136 OFFCURVE",
"685 1105 CURVE SMOOTH",
"666 1090 OFFCURVE",
"640 1063 OFFCURVE",
"608 1024 CURVE",
"600 1024 LINE",
"635 1108 OFFCURVE",
"665 1208 OFFCURVE",
"690 1325 CURVE SMOOTH",
"739 1556 LINE",
"352 1556 LINE",
"23 0 LINE",
"330 0 LINE",
"379 125 LINE",
"387 125 LINE",
"429 71 OFFCURVE",
"471 33 OFFCURVE",
"512 12 CURVE SMOOTH",
"553 -9 OFFCURVE",
"602 -20 OFFCURVE",
"657 -20 CURVE SMOOTH"
);
},
{
closed = 1;
nodes = (
"735 842 OFFCURVE",
"764 794 OFFCURVE",
"764 698 CURVE SMOOTH",
"764 635 OFFCURVE",
"754 571 OFFCURVE",
"735 506 CURVE SMOOTH",
"716 441 OFFCURVE",
"690 389 OFFCURVE",
"659 350 CURVE SMOOTH",
"628 311 OFFCURVE",
"596 291 OFFCURVE",
"563 291 CURVE SMOOTH",
"510 291 OFFCURVE",
"485 347 OFFCURVE",
"485 434 CURVE SMOOTH",
"485 501 OFFCURVE",
"494 566 OFFCURVE",
"511 631 CURVE SMOOTH",
"529 696 OFFCURVE",
"553 747 OFFCURVE",
"583 785 CURVE SMOOTH",
"613 823 OFFCURVE",
"645 842 OFFCURVE",
"678 842 CURVE SMOOTH"
);
}
);
width = 1243;
}
);
unicode = 0062;
},
{
glyphname = c;
lastChange = "2013-03-10 17:18:29 +0200";
layers = (
{
layerId = UUID0;
name = "Bold Italic";
paths = (
{
closed = 1;
nodes = (
"663 -20 OFFCURVE",
"774 11 OFFCURVE",
"881 70 CURVE",
"881 377 LINE",
"780 324 OFFCURVE",
"694 291 OFFCURVE",
"598 291 CURVE SMOOTH",
"511 291 OFFCURVE",
"473 346 OFFCURVE",
"473 467 CURVE SMOOTH",
"473 528 OFFCURVE",
"484 591 OFFCURVE",
"507 654 CURVE SMOOTH",
"530 718 OFFCURVE",
"559 766 OFFCURVE",
"594 798 CURVE SMOOTH",
"629 830 OFFCURVE",
"668 846 OFFCURVE",
"709 846 CURVE SMOOTH",
"770 846 OFFCURVE",
"845 826 OFFCURVE",
"934 786 CURVE",
"1057 1073 LINE",
"942 1126 OFFCURVE",
"820 1153 OFFCURVE",
"690 1153 CURVE SMOOTH",
"573 1153 OFFCURVE",
"468 1122 OFFCURVE",
"375 1061 CURVE SMOOTH",
"283 1000 OFFCURVE",
"211 915 OFFCURVE",
"160 806 CURVE SMOOTH",
"109 697 OFFCURVE",
"84 576 OFFCURVE",
"84 442 CURVE SMOOTH",
"84 295 OFFCURVE",
"121 181 OFFCURVE",
"195 100 CURVE",
"270 20 OFFCURVE",
"373 -20 OFFCURVE",
"506 -20 CURVE SMOOTH"
);
}
);
width = 1032;
}
);
unicode = 0063;
},
{
glyphname = d;
lastChange = "2013-03-10 17:18:29 +0200";
layers = (
{
layerId = UUID0;
name = "Bold Italic";
paths = (
{
closed = 1;
nodes = (
"406 1153 OFFCURVE",
"251 1022 OFFCURVE",
"155 775 CURVE SMOOTH",
"108 652 OFFCURVE",
"84 531 OFFCURVE",
"84 412 CURVE SMOOTH",
"84 133 OFFCURVE",
"195 -20 OFFCURVE",
"406 -20 CURVE SMOOTH",
"519 -20 OFFCURVE",
"598 18 OFFCURVE",
"674 123 CURVE",
"682 123 LINE",
"672 0 LINE",
"981 0 LINE",
"1311 1556 LINE",
"920 1556 LINE",
"858 1255 LINE",
"846 1202 OFFCURVE",
"838 1130 OFFCURVE",
"833 1038 CURVE SMOOTH",
"831 1001 LINE",
"823 1001 LINE",
"783 1062 OFFCURVE",
"746 1102 OFFCURVE",
"712 1122 CURVE SMOOTH",
"678 1143 OFFCURVE",
"636 1153 OFFCURVE",
"586 1153 CURVE SMOOTH"
);
},
{
closed = 1;
nodes = (
"508 291 OFFCURVE",
"479 339 OFFCURVE",
"479 434 CURVE SMOOTH",
"479 499 OFFCURVE",
"489 563 OFFCURVE",
"508 627 CURVE SMOOTH",
"527 692 OFFCURVE",
"553 744 OFFCURVE",
"584 783 CURVE SMOOTH",
"615 822 OFFCURVE",
"647 842 OFFCURVE",
"680 842 CURVE SMOOTH",
"733 842 OFFCURVE",
"760 794 OFFCURVE",
"760 698 CURVE SMOOTH",
"760 635 OFFCURVE",
"751 571 OFFCURVE",
"733 506 CURVE SMOOTH",
"715 441 OFFCURVE",
"691 388 OFFCURVE",
"660 349 CURVE SMOOTH",
"630 310 OFFCURVE",
"598 291 OFFCURVE",
"565 291 CURVE SMOOTH"
);
}
);
width = 1237;
}
);
unicode = 0064;
},
{
glyphname = e;
lastChange = "2013-03-10 17:18:29 +0200";
layers = (
{
layerId = UUID0;
name = "Bold Italic";
paths = (
{
closed = 1;
nodes = (
"617 -20 OFFCURVE",
"691 -13 OFFCURVE",
"756 2 CURVE SMOOTH",
"821 17 OFFCURVE",
"890 44 OFFCURVE",
"965 82 CURVE",
"965 356 LINE",
"836 288 OFFCURVE",
"742 258 OFFCURVE",
"637 258 CURVE SMOOTH",
"528 258 OFFCURVE",
"473 307 OFFCURVE",
"473 406 CURVE SMOOTH",
"473 422 LINE",
"532 422 LINE SMOOTH",
"927 422 OFFCURVE",
"1141 570 OFFCURVE",
"1141 838 CURVE SMOOTH",
"1141 933 OFFCURVE",
"1105 1010 OFFCURVE",
"1032 1067 CURVE SMOOTH",
"959 1124 OFFCURVE",
"860 1153 OFFCURVE",
"733 1153 CURVE SMOOTH",
"478 1153 OFFCURVE",
"279 1035 OFFCURVE",
"167 808 CURVE SMOOTH",
"112 695 OFFCURVE",
"84 569 OFFCURVE",
"84 428 CURVE SMOOTH",
"84 287 OFFCURVE",
"123 177 OFFCURVE",
"202 98 CURVE SMOOTH",
"281 19 OFFCURVE",
"391 -20 OFFCURVE",
"532 -20 CURVE SMOOTH"
);
},
{
closed = 1;
nodes = (
"749 891 OFFCURVE",
"774 858 OFFCURVE",
"774 815 CURVE SMOOTH",
"774 724 OFFCURVE",
"686 664 OFFCURVE",
"541 664 CURVE SMOOTH",
"512 664 LINE",
"519 723 OFFCURVE",
"541 775 OFFCURVE",
"576 821 CURVE SMOOTH",
"611 868 OFFCURVE",
"649 891 OFFCURVE",
"690 891 CURVE SMOOTH"
);
}
);
width = 1186;
}
);
unicode = 0065;
},
{
glyphname = f;
lastChange = "2013-03-10 17:18:29 +0200";
layers = (
{
layerId = UUID0;
name = "Bold Italic";
paths = (
{
closed = 1;
nodes = (
"241 -492 OFFCURVE",
"387 -373 OFFCURVE",
"444 -117 CURVE",
"649 842 LINE",
"858 842 LINE",
"924 1133 LINE",
"713 1133 LINE",
"729 1204 LINE SMOOTH",
"740 1251 OFFCURVE",
"774 1276 OFFCURVE",
"821 1276 CURVE SMOOTH",
"864 1276 OFFCURVE",
"907 1266 OFFCURVE",
"950 1245 CURVE",
"1049 1509 LINE",
"978 1544 OFFCURVE",
"873 1567 OFFCURVE",
"766 1567 CURVE SMOOTH",
"537 1567 OFFCURVE",
"401 1458 OFFCURVE",
"344 1202 CURVE SMOOTH",
"328 1128 LINE",
"139 1032 LINE",
"96 842 LINE",
"262 842 LINE",
"72 -55 LINE SMOOTH",
"53 -142 OFFCURVE",
"7 -180 OFFCURVE",
"-92 -180 CURVE SMOOTH",
"-128 -180 OFFCURVE",
"-167 -174 OFFCURVE",
"-209 -162 CURVE",
"-209 -465 LINE",
"-144 -483 OFFCURVE",
"-75 -492 OFFCURVE",
"-2 -492 CURVE SMOOTH"
);
}
);
width = 840;
}
);
unicode = 0066;
},
{
glyphname = g;
lastChange = "2013-03-10 17:18:29 +0200";
layers = (
{
layerId = UUID0;
name = "Bold Italic";
paths = (
{
closed = 1;
nodes = (
"836 1133 LINE",
"814 1138 OFFCURVE",
"784 1143 OFFCURVE",
"746 1147 CURVE SMOOTH",
"709 1151 OFFCURVE",
"673 1153 OFFCURVE",
"639 1153 CURVE SMOOTH",
"484 1153 OFFCURVE",
"362 1115 OFFCURVE",
"271 1038 CURVE SMOOTH",
"180 961 OFFCURVE",
"135 858 OFFCURVE",
"135 727 CURVE SMOOTH",
"135 608 OFFCURVE",
"179 515 OFFCURVE",
"266 446 CURVE",
"131 385 OFFCURVE",
"63 314 OFFCURVE",
"63 219 CURVE SMOOTH",
"63 163 OFFCURVE",
"98 111 OFFCURVE",
"147 80 CURVE",
"-45 17 OFFCURVE",
"-133 -76 OFFCURVE",
"-133 -207 CURVE SMOOTH",
"-133 -296 OFFCURVE",
"-91 -366 OFFCURVE",
"-7 -416 CURVE",
"76 -467 OFFCURVE",
"189 -492 OFFCURVE",
"330 -492 CURVE SMOOTH",
"537 -492 OFFCURVE",
"696 -453 OFFCURVE",
"808 -375 CURVE SMOOTH",
"921 -297 OFFCURVE",
"977 -186 OFFCURVE",
"977 -43 CURVE SMOOTH",
"977 39 OFFCURVE",
"952 102 OFFCURVE",
"901 146 CURVE SMOOTH",
"850 191 OFFCURVE",
"767 221 OFFCURVE",
"651 238 CURVE",
"514 256 LINE",
"440 267 OFFCURVE",
"403 286 OFFCURVE",
"403 315 CURVE SMOOTH",
"403 340 OFFCURVE",
"424 352 OFFCURVE",
"451 367 CURVE",
"483 358 OFFCURVE",
"524 354 OFFCURVE",
"575 354 CURVE SMOOTH",
"714 354 OFFCURVE",
"827 393 OFFCURVE",
"914 471 CURVE SMOOTH",
"1001 550 OFFCURVE",
"1044 653 OFFCURVE",
"1044 780 CURVE SMOOTH",
"1044 816 OFFCURVE",
"1041 847 OFFCURVE",
"1034 874 CURVE",
"1194 926 LINE",
"1235 1133 LINE"
);
},
{
closed = 1;
nodes = (
"197 -89 OFFCURVE",
"256 -48 OFFCURVE",
"360 -33 CURVE",
"475 -45 LINE SMOOTH",
"584 -57 OFFCURVE",
"623 -79 OFFCURVE",
"623 -127 CURVE SMOOTH",
"623 -198 OFFCURVE",
"534 -238 OFFCURVE",
"367 -238 CURVE SMOOTH",
"254 -238 OFFCURVE",
"197 -209 OFFCURVE",
"197 -152 CURVE SMOOTH"
);
},
{
closed = 1;
nodes = (
"500 797 OFFCURVE",
"550 925 OFFCURVE",
"625 920 CURVE",
"666 920 OFFCURVE",
"686 888 OFFCURVE",
"686 825 CURVE SMOOTH",
"686 765 OFFCURVE",
"675 712 OFFCURVE",
"652 666 CURVE SMOOTH",
"630 621 OFFCURVE",
"602 598 OFFCURVE",
"567 598 CURVE SMOOTH",
"522 598 OFFCURVE",
"500 629 OFFCURVE",
"500 692 CURVE SMOOTH"
);
}
);
width = 1145;
}
);
unicode = 0067;
},
{
glyphname = h;
lastChange = "2013-03-10 17:18:29 +0200";
layers = (
{
layerId = UUID0;
name = "Bold Italic";
paths = (
{
closed = 1;
nodes = (
"1026 0 LINE",
"1153 602 LINE SMOOTH",
"1170 684 OFFCURVE",
"1178 760 OFFCURVE",
"1178 831 CURVE SMOOTH",
"1178 1032 OFFCURVE",
"1067 1153 OFFCURVE",
"879 1153 CURVE SMOOTH",
"764 1153 OFFCURVE",
"673 1110 OFFCURVE",
"606 1024 CURVE",
"598 1024 LINE",
"633 1107 OFFCURVE",
"663 1202 OFFCURVE",
"686 1307 CURVE SMOOTH",
"739 1556 LINE",
"352 1556 LINE",
"23 0 LINE",
"410 0 LINE",
"526 553 LINE",
"566 748 OFFCURVE",
"628 846 OFFCURVE",
"711 846 CURVE SMOOTH",
"752 846 OFFCURVE",
"786 817 OFFCURVE",
"786 760 CURVE SMOOTH",
"786 717 OFFCURVE",
"780 670 OFFCURVE",
"768 618 CURVE",
"639 0 LINE"
);
}
);
width = 1274;
}
);
unicode = 0068;
},
{
glyphname = i;
lastChange = "2013-03-10 17:18:29 +0200";
layers = (
{
layerId = UUID0;
name = "Bold Italic";
paths = (
{
closed = 1;
nodes = (
"651 1133 LINE",
"262 1133 LINE",
"23 0 LINE",
"410 0 LINE"
);
},
{
closed = 1;
nodes = (
"309 1288 OFFCURVE",
"373 1241 OFFCURVE",
"500 1241 CURVE SMOOTH",
"645 1241 OFFCURVE",
"725 1317 OFFCURVE",
"725 1450 CURVE SMOOTH",
"725 1541 OFFCURVE",
"656 1591 OFFCURVE",
"535 1591 CURVE SMOOTH",
"392 1591 OFFCURVE",
"309 1519 OFFCURVE",
"309 1382 CURVE SMOOTH"
);
}
);
width = 666;
}
);
unicode = 0069;
},
{
glyphname = dotlessi;
lastChange = "2013-03-10 17:18:29 +0200";
layers = (
{
layerId = UUID0;
name = "Bold Italic";
paths = (
{
closed = 1;
nodes = (
"651 1133 LINE",
"262 1133 LINE",
"23 0 LINE",
"410 0 LINE"
);
}
);
width = 666;
}
);
unicode = 0131;
},
{
glyphname = j;
lastChange = "2013-03-10 17:18:29 +0200";
layers = (
{
layerId = UUID0;
name = "Bold Italic";
paths = (
{
closed = 1;
nodes = (
"183 -492 OFFCURVE",
"344 -351 OFFCURVE",
"397 -94 CURVE",
"657 1133 LINE",
"270 1133 LINE",
"23 -33 LINE",
"1 -131 OFFCURVE",
"-57 -180 OFFCURVE",
"-152 -180 CURVE SMOOTH",
"-189 -180 OFFCURVE",
"-227 -174 OFFCURVE",
"-264 -162 CURVE",
"-264 -465 LINE",
"-199 -483 OFFCURVE",
"-130 -492 OFFCURVE",
"-57 -492 CURVE SMOOTH"
);
},
{
closed = 1;
nodes = (
"317 1288 OFFCURVE",
"381 1241 OFFCURVE",
"508 1241 CURVE SMOOTH",
"661 1241 OFFCURVE",
"733 1325 OFFCURVE",
"733 1450 CURVE SMOOTH",
"733 1541 OFFCURVE",
"664 1591 OFFCURVE",
"543 1591 CURVE SMOOTH",
"400 1591 OFFCURVE",
"317 1519 OFFCURVE",
"317 1382 CURVE SMOOTH"
);
}
);
width = 666;
}
);
unicode = 006A;
},
{
glyphname = k;
lastChange = "2013-03-10 17:18:29 +0200";
layers = (
{
layerId = UUID0;
name = "Bold Italic";
paths = (
{
closed = 1;
nodes = (
"23 0 LINE",
"410 0 LINE",
"479 338 LINE",
"580 391 LINE",
"719 0 LINE",
"1157 0 LINE",
"883 621 LINE",
"1374 1133 LINE",
"932 1133 LINE",
"690 870 LINE SMOOTH",
"644 821 OFFCURVE",
"593 755 OFFCURVE",
"537 670 CURVE",
"528 670 LINE",
"562 767 OFFCURVE",
"585 842 OFFCURVE",
"596 893 CURVE SMOOTH",
"735 1556 LINE",
"348 1556 LINE"
);
}
);
width = 1264;
}
);
unicode = 006B;
},
{
glyphname = l;
lastChange = "2013-03-10 17:18:29 +0200";
layers = (
{
layerId = UUID0;
name = "Bold Italic";
paths = (
{
closed = 1;
nodes = (
"739 1556 LINE",
"352 1556 LINE",
"23 0 LINE",
"410 0 LINE"
);
}
);
width = 666;
}
);
unicode = 006C;
},
{
glyphname = m;
lastChange = "2013-03-10 17:18:29 +0200";
layers = (
{
layerId = UUID0;
name = "Bold Italic";
paths = (
{
closed = 1;
nodes = (
"1032 0 LINE",
"1143 543 LINE SMOOTH",
"1184 744 OFFCURVE",
"1240 846 OFFCURVE",
"1339 846 CURVE SMOOTH",
"1382 846 OFFCURVE",
"1409 817 OFFCURVE",
"1409 764 CURVE SMOOTH",
"1409 713 OFFCURVE",
"1404 668 OFFCURVE",
"1395 631 CURVE",
"1266 0 LINE",
"1653 0 LINE",
"1778 614 LINE SMOOTH",
"1793 686 OFFCURVE",
"1800 754 OFFCURVE",
"1800 819 CURVE SMOOTH",
"1800 1039 OFFCURVE",
"1701 1153 OFFCURVE",
"1513 1153 CURVE SMOOTH",
"1365 1153 OFFCURVE",
"1256 1087 OFFCURVE",
"1169 946 CURVE",
"1161 946 LINE",
"1126 1079 OFFCURVE",
"1047 1153 OFFCURVE",
"891 1153 CURVE SMOOTH",
"814 1153 OFFCURVE",
"751 1137 OFFCURVE",
"700 1106 CURVE SMOOTH",
"649 1075 OFFCURVE",
"604 1022 OFFCURVE",
"563 946 CURVE",
"555 946 LINE",
"571 1133 LINE",
"262 1133 LINE",
"23 0 LINE",
"410 0 LINE",
"528 551 LINE",
"571 746 OFFCURVE",
"628 846 OFFCURVE",
"719 846 CURVE SMOOTH",
"767 846 OFFCURVE",
"791 815 OFFCURVE",
"791 752 CURVE SMOOTH",
"791 731 OFFCURVE",
"786 691 OFFCURVE",
"776 631 CURVE",
"645 0 LINE"
);
}
);
width = 1896;
}
);
unicode = 006D;
},
{
glyphname = n;
lastChange = "2013-03-10 17:18:29 +0200";
layers = (
{
layerId = UUID0;
name = "Bold Italic";
paths = (
{
closed = 1;
nodes = (
"786 717 OFFCURVE",
"780 670 OFFCURVE",
"768 618 CURVE",
"639 0 LINE",
"1026 0 LINE",
"1153 602 LINE SMOOTH",
"1170 684 OFFCURVE",
"1178 760 OFFCURVE",
"1178 831 CURVE SMOOTH",
"1178 1032 OFFCURVE",
"1067 1153 OFFCURVE",
"879 1153 CURVE SMOOTH",
"735 1153 OFFCURVE",
"640 1102 OFFCURVE",
"567 975 CURVE",
"559 975 LINE",
"571 1133 LINE",
"262 1133 LINE",
"23 0 LINE",
"410 0 LINE",
"526 553 LINE",
"567 754 OFFCURVE",
"635 846 OFFCURVE",
"711 846 CURVE SMOOTH",
"752 846 OFFCURVE",
"786 817 OFFCURVE",
"786 760 CURVE SMOOTH"
);
}
);
width = 1274;
}
);
unicode = 006E;
},
{
glyphname = o;
lastChange = "2013-03-10 17:18:29 +0200";
layers = (
{
layerId = UUID0;
name = "Bold Italic";
paths = (
{
closed = 1;
nodes = (
"776 -20 OFFCURVE",
"974 112 OFFCURVE",
"1079 337 CURVE SMOOTH",
"1132 450 OFFCURVE",
"1159 577 OFFCURVE",
"1159 717 CURVE SMOOTH",
"1159 997 OFFCURVE",
"1002 1153 OFFCURVE",
"723 1153 CURVE SMOOTH",
"467 1153 OFFCURVE",
"270 1022 OFFCURVE",
"163 795 CURVE SMOOTH",
"110 682 OFFCURVE",
"84 556 OFFCURVE",
"84 416 CURVE SMOOTH",
"84 136 OFFCURVE",
"241 -20 OFFCURVE",
"520 -20 CURVE SMOOTH"
);
},
{
closed = 1;
nodes = (
"731 862 OFFCURVE",
"764 817 OFFCURVE",
"764 729 CURVE SMOOTH",
"764 608 OFFCURVE",
"744 502 OFFCURVE",
"704 409 CURVE SMOOTH",
"664 316 OFFCURVE",
"617 270 OFFCURVE",
"563 270 CURVE SMOOTH",
"507 270 OFFCURVE",
"479 314 OFFCURVE",
"479 403 CURVE SMOOTH",
"479 523 OFFCURVE",
"498 629 OFFCURVE",
"537 722 CURVE SMOOTH",
"576 815 OFFCURVE",
"623 862 OFFCURVE",
"678 862 CURVE SMOOTH"
);
}
);
width = 1243;
}
);
unicode = 006F;
},
{
glyphname = oslash;
lastChange = "2013-03-10 17:18:29 +0200";
layers = (
{
layerId = UUID0;
name = "Bold Italic";
paths = (
{
closed = 1;
nodes = (
"679 -20 OFFCURVE",
"793 12 OFFCURVE",
"892 75 CURVE SMOOTH",
"991 138 OFFCURVE",
"1067 226 OFFCURVE",
"1121 339 CURVE SMOOTH",
"1175 452 OFFCURVE",
"1202 578 OFFCURVE",
"1202 717 CURVE SMOOTH",
"1202 820 OFFCURVE",
"1175 909 OFFCURVE",
"1120 985 CURVE",
"1225 1108 LINE",
"1098 1217 LINE",
"993 1096 LINE",
"917 1134 OFFCURVE",
"834 1153 OFFCURVE",
"743 1153 CURVE SMOOTH",
"479 1153 OFFCURVE",
"274 1021 OFFCURVE",
"165 793 CURVE SMOOTH",
"111 680 OFFCURVE",
"84 554 OFFCURVE",
"84 416 CURVE SMOOTH",
"84 303 OFFCURVE",
"115 207 OFFCURVE",
"178 129 CURVE",
"66 -2 LINE",
"193 -111 LINE",
"311 29 LINE",
"385 -4 OFFCURVE",
"464 -20 OFFCURVE",
"549 -20 CURVE SMOOTH"
);
},
{
closed = 1;
nodes = (
"733 877 OFFCURVE",
"761 867 OFFCURVE",
"784 848 CURVE",
"449 451 LINE",
"449 690 OFFCURVE",
"568 882 OFFCURVE",
"702 877 CURVE"
);
},
{
closed = 1;
nodes = (
"561 260 OFFCURVE",
"537 265 OFFCURVE",
"518 274 CURVE",
"836 649 LINE",
"824 401 OFFCURVE",
"733 260 OFFCURVE",
"590 260 CURVE SMOOTH"
);
}
);
width = 1286;
}
);
unicode = 00F8;
},
{
glyphname = oe;
lastChange = "2013-03-10 17:18:29 +0200";
layers = (
{
layerId = UUID0;
name = "Bold Italic";
paths = (
{
closed = 1;
nodes = (
"1232 -20 OFFCURVE",
"1306 -13 OFFCURVE",
"1370 2 CURVE SMOOTH",
"1435 17 OFFCURVE",
"1505 43 OFFCURVE",
"1581 82 CURVE",
"1581 356 LINE",
"1452 288 OFFCURVE",
"1358 258 OFFCURVE",
"1253 258 CURVE SMOOTH",
"1144 258 OFFCURVE",
"1090 307 OFFCURVE",
"1090 406 CURVE SMOOTH",
"1090 422 LINE",
"1149 422 LINE SMOOTH",
"1541 422 OFFCURVE",
"1757 567 OFFCURVE",
"1757 838 CURVE SMOOTH",
"1757 933 OFFCURVE",
"1720 1010 OFFCURVE",
"1647 1067 CURVE SMOOTH",
"1574 1124 OFFCURVE",
"1475 1153 OFFCURVE",
"1350 1153 CURVE SMOOTH",
"1197 1153 OFFCURVE",
"1073 1111 OFFCURVE",
"977 1028 CURVE",
"917 1111 OFFCURVE",
"825 1153 OFFCURVE",
"700 1153 CURVE SMOOTH",
"459 1153 OFFCURVE",
"268 1024 OFFCURVE",
"163 796 CURVE SMOOTH",
"110 682 OFFCURVE",
"84 555 OFFCURVE",
"84 416 CURVE SMOOTH",
"84 136 OFFCURVE",
"241 -20 OFFCURVE",
"520 -20 CURVE SMOOTH",
"660 -20 OFFCURVE",
"771 17 OFFCURVE",
"854 92 CURVE",
"915 17 OFFCURVE",
"1014 -20 OFFCURVE",
"1149 -20 CURVE SMOOTH"
);
},
{
closed = 1;
nodes = (
"731 862 OFFCURVE",
"764 817 OFFCURVE",
"764 729 CURVE SMOOTH",
"764 608 OFFCURVE",
"744 502 OFFCURVE",
"704 409 CURVE SMOOTH",
"664 316 OFFCURVE",
"617 270 OFFCURVE",
"563 270 CURVE SMOOTH",
"507 270 OFFCURVE",
"479 314 OFFCURVE",
"479 403 CURVE SMOOTH",
"479 523 OFFCURVE",
"498 629 OFFCURVE",
"537 722 CURVE SMOOTH",
"576 815 OFFCURVE",
"623 862 OFFCURVE",
"678 862 CURVE SMOOTH"
);
},
{
closed = 1;
nodes = (
"1364 891 OFFCURVE",
"1391 858 OFFCURVE",
"1391 815 CURVE SMOOTH",
"1391 723 OFFCURVE",
"1304 664 OFFCURVE",
"1157 664 CURVE SMOOTH",
"1128 664 LINE",
"1137 725 OFFCURVE",
"1159 778 OFFCURVE",
"1194 823 CURVE SMOOTH",
"1229 868 OFFCURVE",
"1267 891 OFFCURVE",
"1307 891 CURVE SMOOTH"
);
}
);
width = 1802;
}
);
unicode = 0153;
},
{
glyphname = p;
lastChange = "2013-03-10 17:18:29 +0200";
layers = (
{
layerId = UUID0;
name = "Bold Italic";
paths = (
{
closed = 1;
nodes = (
"742 -20 OFFCURVE",
"826 12 OFFCURVE",
"903 76 CURVE SMOOTH",
"980 141 OFFCURVE",
"1042 233 OFFCURVE",
"1089 352 CURVE SMOOTH",
"1136 472 OFFCURVE",
"1159 600 OFFCURVE",
"1159 735 CURVE SMOOTH",
"1159 865 OFFCURVE",
"1129 967 OFFCURVE",
"1070 1041 CURVE SMOOTH",
"1011 1116 OFFCURVE",
"929 1153 OFFCURVE",
"825 1153 CURVE SMOOTH",
"717 1153 OFFCURVE",
"631 1104 OFFCURVE",
"567 1006 CURVE",
"559 1006 LINE",
"571 1133 LINE",
"262 1133 LINE",
"-82 -492 LINE",
"305 -492 LINE",
"356 -246 LINE SMOOTH",
"385 -109 OFFCURVE",
"404 14 OFFCURVE",
"412 125 CURVE",
"420 125 LINE",
"479 28 OFFCURVE",
"556 -20 OFFCURVE",
"651 -20 CURVE SMOOTH"
);
},
{
closed = 1;
nodes = (
"735 842 OFFCURVE",
"764 794 OFFCURVE",
"764 698 CURVE SMOOTH",
"764 631 OFFCURVE",
"755 565 OFFCURVE",
"736 501 CURVE SMOOTH",
"718 437 OFFCURVE",
"694 386 OFFCURVE",
"665 348 CURVE SMOOTH",
"636 310 OFFCURVE",
"605 291 OFFCURVE",
"573 291 CURVE SMOOTH",
"517 291 OFFCURVE",
"485 347 OFFCURVE",
"485 434 CURVE SMOOTH",
"485 501 OFFCURVE",
"494 566 OFFCURVE",
"511 631 CURVE SMOOTH",
"529 696 OFFCURVE",
"553 747 OFFCURVE",
"583 785 CURVE SMOOTH",
"613 823 OFFCURVE",
"645 842 OFFCURVE",
"678 842 CURVE SMOOTH"
);
}
);
width = 1243;
}
);
unicode = 0070;
},
{
glyphname = q;
lastChange = "2013-03-10 17:18:29 +0200";
layers = (
{
layerId = UUID0;
name = "Bold Italic";
paths = (
{
closed = 1;
nodes = (
"405 1153 OFFCURVE",
"251 1022 OFFCURVE",
"155 774 CURVE SMOOTH",
"108 651 OFFCURVE",
"84 529 OFFCURVE",
"84 408 CURVE",
"81 143 OFFCURVE",
"209 -24 OFFCURVE",
"387 -20 CURVE",
"487 -20 OFFCURVE",
"562 12 OFFCURVE",
"635 111 CURVE",
"643 111 LINE",
"600 -18 OFFCURVE",
"570 -122 OFFCURVE",
"553 -199 CURVE",
"485 -492 LINE",
"877 -492 LINE",
"1221 1133 LINE",
"911 1133 LINE",
"858 993 LINE",
"850 993 LINE",
"809 1056 OFFCURVE",
"769 1098 OFFCURVE",
"731 1120 CURVE SMOOTH",
"694 1142 OFFCURVE",
"645 1153 OFFCURVE",
"586 1153 CURVE SMOOTH"
);
},
{
closed = 1;
nodes = (
"508 291 OFFCURVE",
"479 339 OFFCURVE",
"479 434 CURVE SMOOTH",
"479 499 OFFCURVE",
"489 563 OFFCURVE",
"508 627 CURVE SMOOTH",
"527 692 OFFCURVE",
"553 744 OFFCURVE",
"584 783 CURVE SMOOTH",
"615 822 OFFCURVE",
"647 842 OFFCURVE",
"680 842 CURVE SMOOTH",
"733 842 OFFCURVE",
"760 794 OFFCURVE",
"760 698 CURVE SMOOTH",
"760 635 OFFCURVE",
"751 571 OFFCURVE",
"733 506 CURVE SMOOTH",
"715 441 OFFCURVE",
"691 388 OFFCURVE",
"660 349 CURVE SMOOTH",
"630 310 OFFCURVE",
"598 291 OFFCURVE",
"565 291 CURVE SMOOTH"
);
}
);
width = 1243;
}
);
unicode = 0071;
},
{
glyphname = r;
lastChange = "2013-03-10 17:18:29 +0200";
layers = (
{
layerId = UUID0;
name = "Bold Italic";
paths = (
{
closed = 1;
nodes = (
"819 1153 OFFCURVE",
"753 1137 OFFCURVE",
"702 1104 CURVE SMOOTH",
"651 1072 OFFCURVE",
"604 1019 OFFCURVE",
"561 944 CURVE",
"553 944 LINE",
"571 1133 LINE",
"262 1133 LINE",
"23 0 LINE",
"410 0 LINE",
"516 498 LINE",
"559 691 OFFCURVE",
"637 784 OFFCURVE",
"774 784 CURVE SMOOTH",
"820 784 OFFCURVE",
"861 777 OFFCURVE",
"897 762 CURVE",
"981 1145 LINE",
"965 1150 OFFCURVE",
"938 1153 OFFCURVE",
"901 1153 CURVE SMOOTH"
);
}
);
width = 895;
}
);
unicode = 0072;
},
{
glyphname = s;
lastChange = "2013-03-10 17:18:29 +0200";
layers = (
{
layerId = UUID0;
name = "Bold Italic";
paths = (
{
closed = 1;
nodes = (
"891 532 OFFCURVE",
"816 638 OFFCURVE",
"666 713 CURVE SMOOTH",
"571 760 OFFCURVE",
"532 782 OFFCURVE",
"532 821 CURVE SMOOTH",
"532 866 OFFCURVE",
"557 889 OFFCURVE",
"608 889 CURVE SMOOTH",
"676 889 OFFCURVE",
"778 852 OFFCURVE",
"866 795 CURVE",
"987 1047 LINE",
"871 1119 OFFCURVE",
"753 1153 OFFCURVE",
"604 1153 CURVE SMOOTH",
"307 1153 OFFCURVE",
"139 1024 OFFCURVE",
"139 795 CURVE SMOOTH",
"139 651 OFFCURVE",
"201 556 OFFCURVE",
"342 479 CURVE",
"411 440 OFFCURVE",
"455 411 OFFCURVE",
"472 394 CURVE SMOOTH",
"489 377 OFFCURVE",
"498 357 OFFCURVE",
"498 334 CURVE SMOOTH",
"498 290 OFFCURVE",
"453 264 OFFCURVE",
"362 264 CURVE SMOOTH",
"254 264 OFFCURVE",
"154 287 OFFCURVE",
"31 354 CURVE",
"31 43 LINE",
"120 1 OFFCURVE",
"239 -20 OFFCURVE",
"387 -20 CURVE SMOOTH",
"712 -20 OFFCURVE",
"891 128 OFFCURVE",
"891 393 CURVE SMOOTH"
);
}
);
width = 1028;
}
);
unicode = 0073;
},
{
glyphname = germandbls;
lastChange = "2013-03-10 17:18:29 +0200";
layers = (
{
layerId = UUID0;
name = "Bold Italic";
paths = (
{
closed = 1;
nodes = (
"190 -492 OFFCURVE",
"336 -373 OFFCURVE",
"393 -117 CURVE",
"645 1067 LINE SMOOTH",
"672 1196 OFFCURVE",
"748 1264 OFFCURVE",
"852 1264 CURVE SMOOTH",
"952 1264 OFFCURVE",
"1010 1222 OFFCURVE",
"1010 1145 CURVE SMOOTH",
"1010 1086 OFFCURVE",
"976 1042 OFFCURVE",
"881 989 CURVE SMOOTH",
"799 944 OFFCURVE",
"744 902 OFFCURVE",
"716 863 CURVE SMOOTH",
"688 824 OFFCURVE",
"674 774 OFFCURVE",
"674 713 CURVE SMOOTH",
"674 613 OFFCURVE",
"723 546 OFFCURVE",
"840 471 CURVE SMOOTH",
"903 430 OFFCURVE",
"940 402 OFFCURVE",
"953 387 CURVE SMOOTH",
"966 373 OFFCURVE",
"973 355 OFFCURVE",
"973 334 CURVE SMOOTH",
"973 297 OFFCURVE",
"937 262 OFFCURVE",
"858 262 CURVE SMOOTH",
"821 262 OFFCURVE",
"776 267 OFFCURVE",
"724 278 CURVE SMOOTH",
"673 289 OFFCURVE",
"627 305 OFFCURVE",
"588 324 CURVE",
"588 25 LINE",
"663 -5 OFFCURVE",
"755 -20 OFFCURVE",
"862 -20 CURVE SMOOTH",
"1181 -20 OFFCURVE",
"1362 139 OFFCURVE",
"1362 373 CURVE SMOOTH",
"1362 502 OFFCURVE",
"1304 587 OFFCURVE",
"1177 655 CURVE",
"1132 678 OFFCURVE",
"1103 697 OFFCURVE",
"1089 711 CURVE",
"1076 726 OFFCURVE",
"1069 743 OFFCURVE",
"1069 762 CURVE SMOOTH",
"1069 793 OFFCURVE",
"1108 827 OFFCURVE",
"1186 864 CURVE SMOOTH",
"1334 933 OFFCURVE",
"1399 1037 OFFCURVE",
"1399 1194 CURVE SMOOTH",
"1399 1311 OFFCURVE",
"1353 1402 OFFCURVE",
"1262 1468 CURVE SMOOTH",
"1171 1534 OFFCURVE",
"1045 1567 OFFCURVE",
"883 1567 CURVE SMOOTH",
"704 1567 OFFCURVE",
"564 1530 OFFCURVE",
"465 1456 CURVE SMOOTH",
"366 1382 OFFCURVE",
"299 1262 OFFCURVE",
"264 1096 CURVE SMOOTH",
"20 -55 LINE SMOOTH",
"1 -142 OFFCURVE",
"-44 -180 OFFCURVE",
"-143 -180 CURVE SMOOTH",
"-179 -180 OFFCURVE",
"-218 -174 OFFCURVE",
"-260 -162 CURVE",
"-260 -465 LINE",
"-195 -483 OFFCURVE",
"-126 -492 OFFCURVE",
"-53 -492 CURVE SMOOTH"
);
}
);
width = 1460;
}
);
unicode = 00DF;
},
{
glyphname = t;
lastChange = "2013-03-10 17:18:29 +0200";
layers = (
{
layerId = UUID0;
name = "Bold Italic";
paths = (
{
closed = 1;
nodes = (
"525 291 OFFCURVE",
"504 312 OFFCURVE",
"504 354 CURVE SMOOTH",
"504 373 OFFCURVE",
"509 408 OFFCURVE",
"520 459 CURVE SMOOTH",
"604 842 LINE",
"893 842 LINE",
"956 1133 LINE",
"668 1133 LINE",
"717 1360 LINE",
"459 1360 LINE",
"322 1120 LINE",
"104 1032 LINE",
"63 842 LINE",
"217 842 LINE",
"133 440 LINE SMOOTH",
"117 365 OFFCURVE",
"109 303 OFFCURVE",
"109 252 CURVE SMOOTH",
"109 59 OFFCURVE",
"213 -20 OFFCURVE",
"410 -20 CURVE SMOOTH",
"546 -20 OFFCURVE",
"659 2 OFFCURVE",
"750 47 CURVE",
"750 338 LINE",
"672 307 OFFCURVE",
"611 291 OFFCURVE",
"567 291 CURVE SMOOTH"
);
}
);
width = 936;
}
);
unicode = 0074;
},
{
glyphname = u;
lastChange = "2013-03-10 17:18:29 +0200";
layers = (
{
layerId = UUID0;
name = "Bold Italic";
paths = (
{
closed = 1;
nodes = (
"487 414 OFFCURVE",
"493 461 OFFCURVE",
"506 516 CURVE",
"635 1133 LINE",
"248 1133 LINE",
"121 530 LINE SMOOTH",
"104 448 OFFCURVE",
"96 372 OFFCURVE",
"96 301 CURVE SMOOTH",
"96 101 OFFCURVE",
"207 -20 OFFCURVE",
"395 -20 CURVE SMOOTH",
"540 -20 OFFCURVE",
"635 34 OFFCURVE",
"707 158 CURVE",
"715 158 LINE",
"702 0 LINE",
"1012 0 LINE",
"1251 1133 LINE",
"864 1133 LINE",
"748 582 LINE",
"709 401 OFFCURVE",
"642 289 OFFCURVE",
"563 289 CURVE SMOOTH",
"522 289 OFFCURVE",
"487 316 OFFCURVE",
"487 375 CURVE SMOOTH"
);
}
);
width = 1274;
}
);
unicode = 0075;
},
{
glyphname = v;
lastChange = "2013-03-10 17:18:29 +0200";
layers = (
{
layerId = UUID0;
name = "Bold Italic";
paths = (
{
closed = 1;
nodes = (
"621 0 LINE",
"1233 1133 LINE",
"819 1133 LINE",
"554 565 LINE SMOOTH",
"541 538 OFFCURVE",
"529 508 OFFCURVE",
"518 475 CURVE SMOOTH",
"507 442 OFFCURVE",
"501 421 OFFCURVE",
"500 412 CURVE",
"492 412 LINE",
"497 442 OFFCURVE",
"500 481 OFFCURVE",
"500 530 CURVE",
"473 1133 LINE",
"88 1133 LINE",
"233 0 LINE"
);
}
);
width = 1114;
}
);
unicode = 0076;
},
{
glyphname = w;
lastChange = "2013-03-10 17:18:29 +0200";
layers = (
{
layerId = UUID0;
name = "Bold Italic";
paths = (
{
closed = 1;
nodes = (
"1262 0 LINE",
"1800 1133 LINE",
"1415 1133 LINE",
"1281 820 OFFCURVE",
"1201 626 OFFCURVE",
"1174 549 CURVE SMOOTH",
"1125 409 LINE",
"1110 362 LINE",
"1102 362 LINE",
"1118 473 OFFCURVE",
"1129 571 OFFCURVE",
"1135 657 CURVE",
"1155 1133 LINE",
"727 1133 LINE",
"555 657 LINE SMOOTH",
"527 578 OFFCURVE",
"498 480 OFFCURVE",
"467 362 CURVE",
"459 362 LINE",
"464 413 OFFCURVE",
"467 500 OFFCURVE",
"467 621 CURVE SMOOTH",
"467 1133 LINE",
"102 1133 LINE",
"168 0 LINE",
"575 0 LINE",
"764 487 LINE SMOOTH",
"805 592 OFFCURVE",
"845 722 OFFCURVE",
"885 877 CURVE",
"893 877 LINE",
"885 822 OFFCURVE",
"878 749 OFFCURVE",
"871 658 CURVE SMOOTH",
"865 567 OFFCURVE",
"861 498 OFFCURVE",
"860 449 CURVE",
"840 0 LINE"
);
}
);
width = 1686;
}
);
unicode = 0077;
},
{
glyphname = x;
lastChange = "2013-03-10 17:18:29 +0200";
layers = (
{
layerId = UUID0;
name = "Bold Italic";
paths = (
{
closed = 1;
nodes = (
"625 0 LINE",
"1053 0 LINE",
"825 557 LINE",
"1290 1133 LINE",
"831 1133 LINE",
"645 819 LINE",
"569 1133 LINE",
"147 1133 LINE",
"354 578 LINE",
"-119 0 LINE",
"334 0 LINE",
"545 328 LINE"
);
}
);
width = 1159;
}
);
unicode = 0078;
},
{
glyphname = y;
lastChange = "2013-03-10 17:18:29 +0200";
layers = (
{
layerId = UUID0;
name = "Bold Italic";
paths = (
{
closed = 1;
nodes = (
"244 12 LINE",
"221 -29 LINE SMOOTH",
"164 -133 OFFCURVE",
"96 -180 OFFCURVE",
"-20 -180 CURVE SMOOTH",
"-62 -180 OFFCURVE",
"-98 -176 OFFCURVE",
"-129 -168 CURVE",
"-129 -475 LINE",
"-88 -486 OFFCURVE",
"-36 -492 OFFCURVE",
"25 -492 CURVE SMOOTH",
"148 -492 OFFCURVE",
"251 -465 OFFCURVE",
"336 -410 CURVE SMOOTH",
"421 -355 OFFCURVE",
"495 -266 OFFCURVE",
"559 -143 CURVE SMOOTH",
"1229 1133 LINE",
"813 1133 LINE",
"662 792 OFFCURVE",
"583 610 OFFCURVE",
"574 587 CURVE SMOOTH",
"565 565 OFFCURVE",
"549 510 OFFCURVE",
"524 422 CURVE",
"516 422 LINE",
"516 509 LINE",
"514 571 LINE",
"471 1133 LINE",
"82 1133 LINE"
);
}
);
width = 1114;
}
);
unicode = 0079;
},
{
glyphname = z;
lastChange = "2013-03-10 17:18:29 +0200";
layers = (
{
layerId = UUID0;
name = "Bold Italic";
paths = (
{
closed = 1;
nodes = (
"868 299 LINE",
"485 299 LINE",
"981 891 LINE",
"1034 1133 LINE",
"223 1133 LINE",
"156 834 LINE",
"504 834 LINE",
"2 221 LINE",
"-41 0 LINE",
"803 0 LINE"
);
}
);
width = 993;
}
);
unicode = 007A;
},
{
glyphname = ordfeminine;
lastChange = "2013-03-10 17:18:29 +0200";
layers = (
{
layerId = UUID0;
name = "Bold Italic";
paths = (
{
closed = 1;
nodes = (
"352 1475 OFFCURVE",
"244 1382 OFFCURVE",
"184 1233 CURVE SMOOTH",
"154 1158 OFFCURVE",
"139 1081 OFFCURVE",
"139 1001 CURVE SMOOTH",
"139 825 OFFCURVE",
"233 729 OFFCURVE",
"352 729 CURVE SMOOTH",
"441 729 OFFCURVE",
"516 762 OFFCURVE",
"575 827 CURVE",
"584 827 LINE",
"575 741 LINE",
"770 741 LINE",
"940 1462 LINE",
"741 1462 LINE",
"705 1376 LINE",
"696 1376 LINE",
"660 1415 OFFCURVE",
"626 1442 OFFCURVE",
"594 1455 CURVE SMOOTH",
"563 1468 OFFCURVE",
"526 1475 OFFCURVE",
"483 1475 CURVE SMOOTH"
);
},
{
closed = 1;
nodes = (
"440 911 OFFCURVE",
"412 948 OFFCURVE",
"412 1012 CURVE SMOOTH",
"412 1055 OFFCURVE",
"418 1099 OFFCURVE",
"431 1144 CURVE SMOOTH",
"444 1189 OFFCURVE",
"462 1224 OFFCURVE",
"484 1251 CURVE SMOOTH",
"507 1278 OFFCURVE",
"531 1292 OFFCURVE",
"557 1292 CURVE SMOOTH",
"601 1292 OFFCURVE",
"629 1249 OFFCURVE",
"629 1178 CURVE SMOOTH",
"629 1044 OFFCURVE",
"572 911 OFFCURVE",
"481 911 CURVE SMOOTH"
);
}
);
width = 827;
}
);
unicode = 00AA;
},
{
glyphname = ordmasculine;
lastChange = "2013-03-10 17:18:29 +0200";
layers = (
{
layerId = UUID0;
name = "Bold Italic";
paths = (
{
closed = 1;
nodes = (
"602 1109 OFFCURVE",
"589 1049 OFFCURVE",
"564 1002 CURVE SMOOTH",
"539 955 OFFCURVE",
"506 932 OFFCURVE",
"467 932 CURVE SMOOTH",
"430 932 OFFCURVE",
"412 960 OFFCURVE",
"412 1016 CURVE SMOOTH",
"412 1091 OFFCURVE",
"424 1152 OFFCURVE",
"449 1201 CURVE SMOOTH",
"474 1250 OFFCURVE",
"507 1274 OFFCURVE",
"547 1274 CURVE SMOOTH",
"590 1274 OFFCURVE",
"602 1242 OFFCURVE",
"602 1182 CURVE SMOOTH"
);
},
{
closed = 1;
nodes = (
"874 1367 OFFCURVE",
"764 1479 OFFCURVE",
"573 1479 CURVE SMOOTH",
"439 1479 OFFCURVE",
"333 1435 OFFCURVE",
"255 1348 CURVE SMOOTH",
"178 1261 OFFCURVE",
"139 1146 OFFCURVE",
"139 1004 CURVE SMOOTH",
"139 920 OFFCURVE",
"165 853 OFFCURVE",
"218 802 CURVE SMOOTH",
"271 752 OFFCURVE",
"346 727 OFFCURVE",
"442 727 CURVE",
"709 724 OFFCURVE",
"878 916 OFFCURVE",
"874 1182 CURVE"
);
}
);
width = 817;
}
);
unicode = 00BA;
},
{
glyphname = "alef-hb";
lastChange = "2013-03-10 17:20:35 +0200";
layers = (
{
anchors = (
{
name = bottom;
position = "{519, -152}";
},
{
name = bottomleft;
position = "{-118, 0}";
},
{
name = center;
position = "{533, 153}";
},
{
name = top;
position = "{789, 1118}";
},
{
name = topleft;
position = "{231, 1160}";
}
);
layerId = UUID0;
name = "Bold Italic";
paths = (
{
closed = 1;
nodes = (
"1008 1295 LINE",
"907 821 LINE SMOOTH",
"897 773 OFFCURVE",
"884 737 OFFCURVE",
"868 713 CURVE",
"807 857 LINE",
"642 1295 LINE",
"210 1295 LINE",
"266 1161 OFFCURVE",
"341 985 OFFCURVE",
"400 846 CURVE",
"167 764 OFFCURVE",
"108 609 OFFCURVE",
"78 471 CURVE SMOOTH",
"-22 0 LINE",
"365 0 LINE",
"466 474 LINE SMOOTH",
"477 525 OFFCURVE",
"487 559 OFFCURVE",
"509 584 CURVE",
"735 0 LINE",
"1168 0 LINE",
"1110 135 OFFCURVE",
"1037 309 OFFCURVE",
"978 450 CURVE",
"1211 531 OFFCURVE",
"1266 685 OFFCURVE",
"1296 824 CURVE SMOOTH",
"1396 1295 LINE"
);
}
);
width = 1378;
}
);
unicode = 05D0;
},
{
glyphname = "bet-hb";
lastChange = "2013-03-10 17:20:35 +0200";
layers = (
{
anchors = (
{
name = bottom;
position = "{426, -152}";
},
{
name = bottomleft;
position = "{-120, 0}";
},
{
name = center;
position = "{382, 665}";
},
{
name = top;
position = "{696, 1118}";
},
{
name = topleft;
position = "{239, 1160}";
}
);
layerId = UUID0;
name = "Bold Italic";
paths = (
{
closed = 1;
nodes = (
"405 1315 OFFCURVE",
"260 1298 OFFCURVE",
"216 1289 CURVE",
"153 992 LINE",
"153 992 OFFCURVE",
"389 1015 OFFCURVE",
"518 1015 CURVE SMOOTH",
"630 1015 OFFCURVE",
"705 968 OFFCURVE",
"674 822 CURVE SMOOTH",
"563 299 LINE",
"6 299 LINE",
"-58 0 LINE",
"1028 0 LINE",
"1092 299 LINE",
"951 299 LINE",
"1066 839 LINE SMOOTH",
"1129 1136 OFFCURVE",
"1097 1315 OFFCURVE",
"619 1315 CURVE SMOOTH"
);
}
);
width = 1196;
}
);
unicode = 05D1;
},
{
glyphname = "gimel-hb";
lastChange = "2013-03-10 17:20:35 +0200";
layers = (
{
anchors = (
{
name = bottom;
position = "{294, -152}";
},
{
name = bottomleft;
position = "{-118, 0}";
},
{
name = center;
position = "{284, 665}";
},
{
name = top;
position = "{592, 1118}";
},
{
name = topleft;
position = "{335, 1160}";
}
);
layerId = UUID0;
name = "Bold Italic";
paths = (
{
closed = 1;
nodes = (
"448 1315 OFFCURVE",
"315 1283 OFFCURVE",
"315 1283 CURVE",
"251 980 LINE",
"251 980 OFFCURVE",
"352 1009 OFFCURVE",
"456 1009 CURVE SMOOTH",
"513 1009 OFFCURVE",
"529 961 OFFCURVE",
"512 884 CURVE SMOOTH",
"441 549 LINE SMOOTH",
"406 386 OFFCURVE",
"275 328 OFFCURVE",
"143 328 CURVE SMOOTH",
"83 328 OFFCURVE",
"18 343 OFFCURVE",
"18 343 CURVE",
"-88 0 LINE",
"-88 0 OFFCURVE",
"-25 -20 OFFCURVE",
"31 -20 CURVE SMOOTH",
"231 -20 OFFCURVE",
"382 182 OFFCURVE",
"382 182 CURVE",
"399 182 LINE",
"421 0 LINE",
"712 0 LINE",
"904 902 LINE SMOOTH",
"953 1134 OFFCURVE",
"940 1315 OFFCURVE",
"573 1315 CURVE SMOOTH"
);
}
);
width = 984;
}
);
unicode = 05D2;
},
{
glyphname = "dalet-hb";
lastChange = "2013-03-12 07:28:11 +0200";
layers = (
{
anchors = (
{
name = bottom;
position = "{582, -152}";
},
{
name = bottomleft;
position = "{-110, 0}";
},
{
name = center;
position = "{288, 665}";
},
{
name = top;
position = "{676, 1118}";
},
{
name = topleft;
position = "{193, 1160}";
}
);
layerId = UUID0;
name = "Bold Italic";
paths = (
{
closed = 1;
nodes = (
"169 1295 LINE",
"105 996 LINE",
"726 996 LINE",
"673 958 OFFCURVE",
"611 891 OFFCURVE",
"588 786 CURVE SMOOTH",
"421 0 LINE",
"809 0 LINE",
"975 779 LINE SMOOTH",
"1006 924 OFFCURVE",
"1057 972 OFFCURVE",
"1195 1021 CURVE",
"1254 1295 LINE"
);
}
);
width = 1135;
}
);
unicode = 05D3;
},
{
glyphname = "he-hb";
lastChange = "2013-03-10 17:20:35 +0200";
layers = (
{
anchors = (
{
name = bottom;
position = "{503, -152}";
},
{
name = bottomleft;
position = "{-120, 0}";
},
{
name = center;
position = "{677, 665}";
},
{
name = top;
position = "{773, 1118}";
},
{
name = topleft;
position = "{285, 1160}";
}
);
layerId = UUID0;
name = "Bold Italic";
paths = (
{
closed = 1;
nodes = (
"512 1315 OFFCURVE",
"267 1277 OFFCURVE",
"267 1277 CURVE",
"204 980 LINE",
"204 980 OFFCURVE",
"521 1015 OFFCURVE",
"710 1015 CURVE SMOOTH",
"822 1015 OFFCURVE",
"896 968 OFFCURVE",
"865 822 CURVE SMOOTH",
"690 0 LINE",
"1079 0 LINE",
"1254 822 LINE SMOOTH",
"1317 1119 OFFCURVE",
"1289 1315 OFFCURVE",
"812 1315 CURVE SMOOTH"
);
},
{
closed = 1;
nodes = (
"157 755 LINE",
"-4 0 LINE",
"383 0 LINE",
"544 755 LINE"
);
}
);
width = 1349;
}
);
unicode = 05D4;
},
{
glyphname = "vav-hb";
lastChange = "2013-03-10 17:20:35 +0200";
layers = (
{
anchors = (
{
name = bottom;
position = "{159, -152}";
},
{
name = bottomleft;
position = "{-118, 0}";
},
{
name = center;
position = "{4, 665}";
},
{
name = top;
position = "{438, 1160}";
},
{
name = topleft;
position = "{331, 1160}";
}
);
layerId = UUID0;
name = "Bold Italic";
paths = (
{
closed = 1;
nodes = (
"273 1295 LINE",
"-3 0 LINE",
"385 0 LINE",
"661 1295 LINE"
);
}
);
width = 658;
}
);
unicode = 05D5;
},
{
glyphname = "zayin-hb";
lastChange = "2013-03-10 17:20:35 +0200";
layers = (
{
anchors = (
{
name = bottom;
position = "{166, -152}";
},
{
name = bottomleft;
position = "{-118, 0}";
},
{
name = center;
position = "{8, 665}";
},
{
name = top;
position = "{466, 1118}";
},
{
name = topleft;
position = "{249, 1160}";
}
);
layerId = UUID0;
name = "Bold Italic";
paths = (
{
closed = 1;
nodes = (
"230 1295 LINE",
"166 996 LINE",
"423 996 LINE",
"323 925 OFFCURVE",
"164 781 OFFCURVE",
"93 445 CURVE SMOOTH",
"-2 0 LINE",
"386 0 LINE",
"481 445 LINE SMOOTH",
"516 608 OFFCURVE",
"547 754 OFFCURVE",
"669 905 CURVE SMOOTH",
"727 976 OFFCURVE",
"786 1016 OFFCURVE",
"786 1016 CURVE",
"846 1295 LINE"
);
}
);
width = 731;
}
);
unicode = 05D6;
},
{
glyphname = "het-hb";
lastChange = "2013-03-10 17:20:35 +0200";
layers = (
{
anchors = (
{
name = bottom;
position = "{503, -152}";
},
{
name = bottomleft;
position = "{-120, 0}";
},
{
name = center;
position = "{677, 665}";
},
{
name = top;
position = "{773, 1118}";
},
{
name = topleft;
position = "{291, 1160}";
}
);
layerId = UUID0;
name = "Bold Italic";
paths = (
{
closed = 1;
nodes = (
"512 1315 OFFCURVE",
"267 1277 OFFCURVE",
"267 1277 CURVE",
"-5 0 LINE",
"383 0 LINE",
"598 1012 LINE",
"638 1014 OFFCURVE",
"676 1015 OFFCURVE",
"710 1015 CURVE SMOOTH",
"822 1015 OFFCURVE",
"896 968 OFFCURVE",
"865 822 CURVE SMOOTH",
"690 0 LINE",
"1079 0 LINE",
"1254 822 LINE SMOOTH",
"1321 1137 OFFCURVE",
"1289 1315 OFFCURVE",
"812 1315 CURVE SMOOTH"
);
}
);
width = 1349;
}
);
unicode = 05D7;
},
{
glyphname = "tet-hb";
lastChange = "2013-03-10 17:20:35 +0200";
layers = (
{
anchors = (
{
name = bottom;
position = "{522, -152}";
},
{
name = bottomleft;
position = "{-118, 0}";
},
{
name = center;
position = "{696, 665}";
},
{
name = top;
position = "{776, 1118}";
},
{
name = topleft;
position = "{283, 1160}";
}
);
layerId = UUID0;
name = "Bold Italic";
paths = (
{
closed = 1;
nodes = (
"876 1315 OFFCURVE",
"833 1308 OFFCURVE",
"793 1302 CURVE",
"729 1003 LINE",
"729 1003 OFFCURVE",
"758 1008 OFFCURVE",
"779 1008 CURVE SMOOTH",
"904 1008 OFFCURVE",
"933 923 OFFCURVE",
"879 665 CURVE SMOOTH",
"822 397 OFFCURVE",
"737 291 OFFCURVE",
"618 291 CURVE SMOOTH",
"497 291 OFFCURVE",
"470 418 OFFCURVE",
"523 665 CURVE SMOOTH",
"657 1295 LINE",
"268 1295 LINE",
"134 665 LINE SMOOTH",
"42 233 OFFCURVE",
"233 -19 OFFCURVE",
"543 -19 CURVE SMOOTH",
"916 -19 OFFCURVE",
"1177 234 OFFCURVE",
"1269 665 CURVE SMOOTH",
"1377 1177 OFFCURVE",
"1255 1315 OFFCURVE",
"932 1315 CURVE SMOOTH"
);
}
);
width = 1351;
}
);
unicode = 05D8;
},
{
glyphname = "yod-hb";
lastChange = "2013-03-12 15:12:08 +0200";
layers = (
{
anchors = (
{
name = bottom;
position = "{146, -152}";
},
{
name = bottomleft;
position = "{-120, 0}";
},
{
name = center;
position = "{43, 917}";
},
{
name = top;
position = "{415, 1118}";
},
{
name = topleft;
position = "{278, 1160}";
}
);
layerId = UUID0;
name = "Bold Italic";
paths = (
{
closed = 1;
nodes = (
"262 1295 LINE",
"76 419 LINE",
"249 419 LINE",
"522 691 LINE",
"650 1295 LINE"
);
}
);
width = 635;
}
);
unicode = 05D9;
},
{
glyphname = "finalkaf-hb";
lastChange = "2013-03-12 07:29:01 +0200";
layers = (
{
anchors = (
{
name = bottom;
position = "{72, 151}";
},
{
name = bottomleft;
position = "{-108, 0}";
},
{
name = center;
position = "{293, 665}";
},
{
name = top;
position = "{663, 1118}";
},
{
name = topleft;
position = "{192, 1160}";
}
);
layerId = UUID0;
name = "Bold Italic";
paths = (
{
closed = 1;
nodes = (
"344 1315 OFFCURVE",
"171 1299 OFFCURVE",
"171 1299 CURVE",
"106 995 LINE",
"106 995 OFFCURVE",
"288 1013 OFFCURVE",
"434 1013 CURVE SMOOTH",
"651 1013 OFFCURVE",
"650 885 OFFCURVE",
"617 731 CURVE SMOOTH",
"357 -492 LINE",
"744 -492 LINE",
"1003 729 LINE SMOOTH",
"1066 1024 OFFCURVE",
"1009 1315 OFFCURVE",
"582 1315 CURVE SMOOTH"
);
}
);
width = 1108;
}
);
unicode = 05DA;
},
{
glyphname = "kaf-hb";
lastChange = "2013-03-10 17:20:35 +0200";
layers = (
{
anchors = (
{
name = bottom;
position = "{302, -152}";
},
{
name = bottomleft;
position = "{-118, 0}";
},
{
name = center;
position = "{356, 665}";
},
{
name = top;
position = "{652, 1118}";
},
{
name = topleft;
position = "{223, 1160}";
}
);
layerId = UUID0;
name = "Bold Italic";
paths = (
{
closed = 1;
nodes = (
"378 1315 OFFCURVE",
"204 1299 OFFCURVE",
"204 1299 CURVE",
"140 995 LINE",
"140 995 OFFCURVE",
"322 1013 OFFCURVE",
"468 1013 CURVE SMOOTH",
"685 1013 OFFCURVE",
"683 885 OFFCURVE",
"651 731 CURVE SMOOTH",
"615 565 LINE SMOOTH",
"583 412 OFFCURVE",
"516 292 OFFCURVE",
"361 292 CURVE SMOOTH",
"233 292 OFFCURVE",
"87 299 OFFCURVE",
"-6 310 CURVE",
"-70 7 LINE",
"38 -14 OFFCURVE",
"154 -20 OFFCURVE",
"332 -20 CURVE SMOOTH",
"790 -20 OFFCURVE",
"941 271 OFFCURVE",
"1003 565 CURVE SMOOTH",
"1038 729 LINE SMOOTH",
"1101 1024 OFFCURVE",
"1043 1315 OFFCURVE",
"616 1315 CURVE SMOOTH"
);
}
);
width = 1104;
}
);
unicode = 05DB;
},
{
glyphname = "lamed-hb";
lastChange = "2013-03-12 07:29:22 +0200";
layers = (
{
anchors = (
{
name = bottom;
position = "{435, -152}";
},
{
name = bottomleft;
position = "{-113, 0}";
},
{
name = center;
position = "{315, 665}";
},
{
name = top;
position = "{671, 1118}";
},
{
name = topleft;
position = "{36, 1160}";
}
);
layerId = UUID0;
name = "Bold Italic";
paths = (
{
closed = 1;
nodes = (
"247 1551 LINE",
"129 996 LINE",
"771 996 LINE",
"515 495 LINE",
"297 0 LINE",
"679 0 LINE",
"891 482 LINE",
"889 481 LINE",
"1182 1058 LINE",
"1232 1295 LINE",
"580 1295 LINE",
"635 1551 LINE"
);
}
);
width = 1131;
}
);
unicode = 05DC;
},
{
glyphname = "finalmem-hb";
lastChange = "2013-03-10 17:20:35 +0200";
layers = (
{
anchors = (
{
name = bottom;
position = "{503, -152}";
},
{
name = bottomleft;
position = "{-120, 0}";
},
{
name = center;
position = "{677, 665}";
},
{
name = top;
position = "{773, 1118}";
},
{
name = topleft;
position = "{295, 1160}";
}
);
layerId = UUID0;
name = "Bold Italic";
paths = (
{
closed = 1;
nodes = (
"512 1314 OFFCURVE",
"267 1277 OFFCURVE",
"267 1277 CURVE",
"-5 0 LINE",
"1079 0 LINE",
"1267 883 LINE SMOOTH",
"1333 1194 OFFCURVE",
"1204 1314 OFFCURVE",
"812 1314 CURVE SMOOTH"
);
},
{
closed = 1;
nodes = (
"828 1014 OFFCURVE",
"901 990 OFFCURVE",
"881 895 CURVE SMOOTH",
"754 299 LINE",
"447 299 LINE",
"598 1010 LINE",
"598 1010 OFFCURVE",
"660 1014 OFFCURVE",
"710 1014 CURVE SMOOTH"
);
}
);
width = 1349;
}
);
unicode = 05DD;
},
{
glyphname = "mem-hb";
lastChange = "2013-03-10 17:20:35 +0200";
layers = (
{
anchors = (
{
name = bottom;
position = "{541, -152}";
},
{
name = bottomleft;
position = "{-120, 0}";
},
{
name = center;
position = "{715, 665}";
},
{
name = top;
position = "{811, 1118}";
},
{
name = topleft;
position = "{247, 1160}";
}
);
layerId = UUID0;
name = "Bold Italic";
paths = (
{
closed = 1;
nodes = (
"777 1315 OFFCURVE",
"611 1163 OFFCURVE",
"611 1163 CURVE SMOOTH",
"597 1163 LINE SMOOTH",
"597 1163 OFFCURVE",
"602 1204 OFFCURVE",
"594 1248 CURVE SMOOTH",
"590 1262 OFFCURVE",
"586 1282 OFFCURVE",
"581 1295 CURVE",
"241 1295 LINE",
"259 1171 OFFCURVE",
"257 1074 OFFCURVE",
"230 951 CURVE SMOOTH",
"217 890 OFFCURVE",
"205 849 OFFCURVE",
"195 818 CURVE SMOOTH",
"-54 0 LINE",
"328 0 LINE",
"589 874 LINE",
"589 874 OFFCURVE",
"689 1007 OFFCURVE",
"813 1007 CURVE SMOOTH",
"963 1007 OFFCURVE",
"947 878 OFFCURVE",
"915 729 CURVE SMOOTH",
"824 299 LINE",
"593 299 LINE",
"529 0 LINE",
"1155 0 LINE",
"1310 729 LINE SMOOTH",
"1382 1065 OFFCURVE",
"1349 1315 OFFCURVE",
"1005 1315 CURVE SMOOTH"
);
}
);
width = 1425;
}
);
unicode = 05DE;
},
{
glyphname = "finalnun-hb";
lastChange = "2013-03-12 07:29:42 +0200";
layers = (
{
anchors = (
{
name = bottom;
position = "{-433, 149}";
},
{
name = bottomleft;
position = "{-112, 0}";
},
{
name = center;
position = "{-53, 655}";
},
{
name = top;
position = "{415, 1118}";
},
{
name = topleft;
position = "{190, 1160}";
}
);
layerId = UUID0;
name = "Bold Italic";
paths = (
{
closed = 1;
nodes = (
"171 1295 LINE SMOOTH",
"171 1295 OFFCURVE",
"197 1101 OFFCURVE",
"137 821 CURVE SMOOTH",
"-138 -473 LINE",
"251 -473 LINE",
"526 821 LINE SMOOTH",
"584 1095 OFFCURVE",
"560 1295 OFFCURVE",
"560 1295 CURVE SMOOTH"
);
}
);
width = 619;
}
);
unicode = 05DF;
},
{
glyphname = "nun-hb";
lastChange = "2013-03-10 17:20:35 +0200";
layers = (
{
anchors = (
{
name = bottom;
position = "{258, -152}";
},
{
name = bottomleft;
position = "{-120, 0}";
},
{
name = center;
position = "{200, 665}";
},
{
name = top;
position = "{551, 1118}";
},
{
name = topleft;
position = "{275, 1160}";
}
);
layerId = UUID0;
name = "Bold Italic";
paths = (
{
closed = 1;
nodes = (
"349 1315 OFFCURVE",
"265 1299 OFFCURVE",
"265 1299 CURVE",
"201 995 LINE",
"201 995 OFFCURVE",
"301 1008 OFFCURVE",
"366 1008 CURVE SMOOTH",
"440 1008 OFFCURVE",
"447 942 OFFCURVE",
"435 883 CURVE SMOOTH",
"333 405 LINE",
"321 348 OFFCURVE",
"299 299 OFFCURVE",
"299 299 CURVE",
"-4 299 LINE",
"-68 0 LINE",
"590 0 LINE",
"590 0 OFFCURVE",
"676 193 OFFCURVE",
"721 405 CURVE",
"823 883 LINE SMOOTH",
"872 1115 OFFCURVE",
"837 1315 OFFCURVE",
"496 1315 CURVE SMOOTH"
);
}
);
width = 905;
}
);
unicode = 05E0;
},
{
glyphname = "samekh-hb";
lastChange = "2013-03-10 17:20:35 +0200";
layers = (
{
anchors = (
{
name = bottom;
position = "{484, -152}";
},
{
name = bottomleft;
position = "{-118, 0}";
},
{
name = center;
position = "{658, 665}";
},
{
name = top;
position = "{754, 1118}";
},
{
name = topleft;
position = "{265, 1160}";
}
);
layerId = UUID0;
name = "Bold Italic";
paths = (
{
closed = 1;
nodes = (
"523 1315 OFFCURVE",
"236 1292 OFFCURVE",
"236 1292 CURVE",
"171 986 LINE",
"279 993 LINE",
"231 950 OFFCURVE",
"127 839 OFFCURVE",
"86 647 CURVE SMOOTH",
"-4 226 OFFCURVE",
"145 -19 OFFCURVE",
"515 -19 CURVE SMOOTH",
"862 -19 OFFCURVE",
"1132 226 OFFCURVE",
"1222 647 CURVE SMOOTH",
"1312 1070 OFFCURVE",
"1155 1315 OFFCURVE",
"796 1315 CURVE SMOOTH"
);
},
{
closed = 1;
nodes = (
"855 1014 OFFCURVE",
"880 890 OFFCURVE",
"829 647 CURVE SMOOTH",
"777 405 OFFCURVE",
"701 289 OFFCURVE",
"578 289 CURVE SMOOTH",
"454 289 OFFCURVE",
"427 405 OFFCURVE",
"479 647 CURVE SMOOTH",
"512 805 OFFCURVE",
"574 923 OFFCURVE",
"653 1010 CURVE",
"653 1010 OFFCURVE",
"687 1014 OFFCURVE",
"732 1014 CURVE SMOOTH"
);
}
);
width = 1308;
}
);
unicode = 05E1;
},
{
glyphname = "ayin-hb";
lastChange = "2013-03-10 17:20:35 +0200";
layers = (
{
anchors = (
{
name = bottom;
position = "{454, -152}";
},
{
name = bottomleft;
position = "{-110, 0}";
},
{
name = center;
position = "{772, 979}";
},
{
name = top;
position = "{764, 1118}";
},
{
name = topleft;
position = "{240, 1160}";
}
);
layerId = UUID0;
name = "Bold Italic";
paths = (
{
closed = 1;
nodes = (
"987 1295 LINE",
"810 707 LINE SMOOTH",
"767 565 OFFCURVE",
"721 473 OFFCURVE",
"653 409 CURVE",
"657 733 LINE",
"619 1295 LINE",
"232 1295 LINE",
"291 285 LINE",
"-30 238 LINE",
"-95 -70 LINE",
"367 0 LINE SMOOTH",
"1017 99 OFFCURVE",
"1150 554 OFFCURVE",
"1201 725 CURVE SMOOTH",
"1373 1295 LINE"
);
}
);
width = 1314;
}
);
unicode = 05E2;
},
{
glyphname = "finalpe-hb";
lastChange = "2013-03-12 07:30:07 +0200";
layers = (
{
anchors = (
{
name = bottom;
position = "{271, 155}";
},
{
name = bottomleft;
position = "{-111, 0}";
},
{
name = center;
position = "{651, 859}";
},
{
name = top;
position = "{761, 1118}";
},
{
name = topleft;
position = "{241, 1160}";
}
);
layerId = UUID0;
name = "Bold Italic";
paths = (
{
closed = 1;
nodes = (
"502 1315 OFFCURVE",
"169 1211 OFFCURVE",
"92 848 CURVE SMOOTH",
"12 471 OFFCURVE",
"285 419 OFFCURVE",
"438 414 CURVE SMOOTH",
"534 411 LINE",
"655 687 LINE",
"576 704 LINE SMOOTH",
"545 711 OFFCURVE",
"461 741 OFFCURVE",
"486 858 CURVE SMOOTH",
"492 885 OFFCURVE",
"525 1006 OFFCURVE",
"693 1006 CURVE SMOOTH",
"854 1006 OFFCURVE",
"841 876 OFFCURVE",
"792 648 CURVE SMOOTH",
"550 -492 LINE",
"943 -492 LINE",
"1185 648 LINE SMOOTH",
"1304 1205 OFFCURVE",
"1016 1315 OFFCURVE",
"759 1315 CURVE SMOOTH"
);
}
);
width = 1309;
}
);
unicode = 05E3;
},
{
glyphname = "pe-hb";
lastChange = "2013-03-10 17:20:35 +0200";
layers = (
{
anchors = (
{
name = bottom;
position = "{484, -152}";
},
{
name = bottomleft;
position = "{-118, 0}";
},
{
name = center;
position = "{694, 838}";
},
{
name = top;
position = "{754, 1118}";
},
{
name = topleft;
position = "{275, 1160}";
}
);
layerId = UUID0;
name = "Bold Italic";
paths = (
{
closed = 1;
nodes = (
"539 1315 OFFCURVE",
"206 1211 OFFCURVE",
"129 848 CURVE SMOOTH",
"48 471 OFFCURVE",
"322 424 OFFCURVE",
"474 414 CURVE SMOOTH",
"570 408 LINE",
"691 687 LINE",
"613 704 LINE SMOOTH",
"581 711 OFFCURVE",
"498 741 OFFCURVE",
"523 858 CURVE SMOOTH",
"528 885 OFFCURVE",
"562 1006 OFFCURVE",
"730 1006 CURVE SMOOTH",
"898 1006 OFFCURVE",
"866 824 OFFCURVE",
"828 648 CURVE SMOOTH",
"791 474 OFFCURVE",
"744 280 OFFCURVE",
"576 280 CURVE SMOOTH",
"348 280 OFFCURVE",
"125 302 OFFCURVE",
"125 302 CURVE",
"62 9 LINE",
"62 9 OFFCURVE",
"230 -20 OFFCURVE",
"511 -20 CURVE SMOOTH",
"814 -20 OFFCURVE",
"1104 92 OFFCURVE",
"1222 648 CURVE SMOOTH",
"1341 1205 OFFCURVE",
"1053 1315 OFFCURVE",
"796 1315 CURVE SMOOTH"
);
}
);
width = 1308;
}
);
unicode = 05E4;
},
{
glyphname = "finaltsadi-hb";
lastChange = "2013-03-12 07:30:31 +0200";
layers = (
{
anchors = (
{
name = bottom;
position = "{-221, 155}";
},
{
name = bottomleft;
position = "{-108, 0}";
},
{
name = center;
position = "{723, 1043}";
},
{
name = top;
position = "{716, 1118}";
},
{
name = topleft;
position = "{176, 1160}";
}
);
layerId = UUID0;
name = "Bold Italic";
paths = (
{
closed = 1;
nodes = (
"887 1295 LINE",
"790 839 LINE SMOOTH",
"768 734 OFFCURVE",
"730 692 OFFCURVE",
"663 692 CURVE SMOOTH",
"654 692 LINE",
"565 1295 LINE",
"147 1295 LINE",
"280 582 LINE",
"52 -492 LINE",
"440 -492 LINE",
"634 418 LINE",
"665 418 LINE SMOOTH",
"1009 418 OFFCURVE",
"1132 629 OFFCURVE",
"1174 824 CURVE SMOOTH",
"1274 1295 LINE"
);
}
);
width = 1213;
}
);
unicode = 05E5;
},
{
glyphname = "tsadi-hb";
lastChange = "2013-03-10 17:20:35 +0200";
layers = (
{
anchors = (
{
name = bottom;
position = "{484, -152}";
},
{
name = bottomleft;
position = "{-118, 0}";
},
{
name = center;
position = "{237, 520}";
},
{
name = top;
position = "{754, 1118}";
},
{
name = topleft;
position = "{193, 1160}";
}
);
layerId = UUID0;
name = "Bold Italic";
paths = (
{
closed = 1;
nodes = (
"987 1295 LINE",
"898 997 LINE SMOOTH",
"875 920 OFFCURVE",
"846 850 OFFCURVE",
"815 796 CURVE",
"611 1295 LINE",
"183 1295 LINE",
"494 586 LINE",
"668 290 LINE",
"527 299 LINE",
"1 299 LINE",
"-63 0 LINE",
"1090 0 LINE",
"1137 220 LINE",
"956 512 LINE",
"1192 695 OFFCURVE",
"1260 923 OFFCURVE",
"1293 1034 CURVE SMOOTH",
"1373 1295 LINE"
);
}
);
width = 1307;
}
);
unicode = 05E6;
},
{
glyphname = "qof-hb";
lastChange = "2013-03-12 07:30:56 +0200";
layers = (
{
anchors = (
{
name = bottom;
position = "{732, -152}";
},
{
name = bottomleft;
position = "{-115, 0}";
},
{
name = center;
position = "{654, 665}";
},
{
name = top;
position = "{796, 1118}";
},
{
name = topleft;
position = "{311, 1160}";
}
);
layerId = UUID0;
name = "Bold Italic";
paths = (
{
closed = 1;
nodes = (
"275 1295 LINE",
"211 996 LINE",
"998 996 LINE",
"720 523 LINE SMOOTH",
"635 378 OFFCURVE",
"552 154 OFFCURVE",
"533 61 CURVE SMOOTH",
"520 0 LINE",
"905 0 LINE",
"918 61 LINE SMOOTH",
"941 172 OFFCURVE",
"1008 338 OFFCURVE",
"1112 515 CURVE SMOOTH",
"1440 1071 LINE",
"1488 1295 LINE"
);
},
{
closed = 1;
nodes = (
"165 780 LINE",
"-105 -492 LINE",
"283 -492 LINE",
"553 780 LINE"
);
}
);
width = 1388;
}
);
unicode = 05E7;
},
{
glyphname = "resh-hb";
lastChange = "2013-03-10 17:20:35 +0200";
layers = (
{
anchors = (
{
name = bottom;
position = "{620, -152}";
},
{
name = bottomleft;
position = "{-120, 0}";
},
{
name = center;
position = "{362, 665}";
},
{
name = top;
position = "{661, 1118}";
},
{
name = topleft;
position = "{215, 1160}";
}
);
layerId = UUID0;
name = "Bold Italic";
paths = (
{
closed = 1;
nodes = (
"429 1315 OFFCURVE",
"285 1304 OFFCURVE",
"186 1294 CURVE",
"122 993 LINE",
"231 1004 OFFCURVE",
"379 1015 OFFCURVE",
"487 1015 CURVE SMOOTH",
"599 1015 OFFCURVE",
"673 968 OFFCURVE",
"642 822 CURVE SMOOTH",
"467 0 LINE",
"855 0 LINE",
"1030 822 LINE SMOOTH",
"1093 1119 OFFCURVE",
"1066 1315 OFFCURVE",
"589 1315 CURVE SMOOTH"
);
}
);
width = 1126;
}
);
unicode = 05E8;
},
{
glyphname = "shin-hb";
lastChange = "2013-03-10 17:20:35 +0200";
layers = (
{
anchors = (
{
name = bottom;
position = "{542, -152}";
},
{
name = bottomleft;
position = "{-118, 0}";
},
{
name = center;
position = "{861, 435}";
},
{
name = top;
position = "{917, 1160}";
},
{
name = topleft;
position = "{235, 1160}";
},
{
name = topright;
position = "{1669, 1160}";
}
);
layerId = UUID0;
name = "Bold Italic";
paths = (
{
closed = 1;
nodes = (
"1682 1295 OFFCURVE",
"1305 1295 OFFCURVE",
"1305 1295 CURVE",
"1131 713 LINE SMOOTH",
"1039 406 OFFCURVE",
"887 299 OFFCURVE",
"734 299 CURVE SMOOTH",
"474 299 LINE SMOOTH",
"474 299 OFFCURVE",
"487 417 OFFCURVE",
"487 417 CURVE",
"503 417 LINE SMOOTH",
"609 417 OFFCURVE",
"906 441 OFFCURVE",
"1021 834 CURVE SMOOTH",
"1158 1295 LINE",
"1158 1295 OFFCURVE",
"784 1295 OFFCURVE",
"784 1295 CURVE",
"645 829 LINE SMOOTH",
"603 688 OFFCURVE",
"523 693 OFFCURVE",
"523 693 CURVE SMOOTH",
"523 693 OFFCURVE",
"601 1295 OFFCURVE",
"601 1295 CURVE SMOOTH",
"601 1295 OFFCURVE",
"224 1295 OFFCURVE",
"224 1295 CURVE",
"57 0 LINE",
"625 0 LINE SMOOTH",
"979 0 OFFCURVE",
"1325 118 OFFCURVE",
"1503 704 CURVE SMOOTH",
"1682 1295 LINE"
);
}
);
width = 1616;
}
);
unicode = 05E9;
},
{
glyphname = "tav-hb";
lastChange = "2013-03-10 17:20:35 +0200";
layers = (
{
anchors = (
{
name = bottom;
position = "{610, -152}";
},
{
name = bottomleft;
position = "{-118, 0}";
},
{
name = center;
position = "{782, 655}";
},
{
name = top;
position = "{819, 1118}";
},
{
name = topleft;
position = "{277, 1160}";
}
);
layerId = UUID0;
name = "Bold Italic";
paths = (
{
closed = 1;
nodes = (
"602 1314 OFFCURVE",
"260 1277 OFFCURVE",
"260 1277 CURVE",
"196 979 LINE",
"196 979 OFFCURVE",
"262 986 OFFCURVE",
"337 990 CURVE",
"210 395 LINE SMOOTH",
"194 318 OFFCURVE",
"167 288 OFFCURVE",
"111 288 CURVE SMOOTH",
"49 288 OFFCURVE",
"-23 302 OFFCURVE",
"-23 302 CURVE",
"-83 23 LINE",
"-83 23 OFFCURVE",
"-9 -19 OFFCURVE",
"91 -19 CURVE SMOOTH",
"432 -19 OFFCURVE",
"549 162 OFFCURVE",
"598 395 CURVE SMOOTH",
"730 1013 LINE",
"771 1015 OFFCURVE",
"765 1014 OFFCURVE",
"800 1014 CURVE SMOOTH",
"912 1014 OFFCURVE",
"986 967 OFFCURVE",
"955 821 CURVE SMOOTH",
"780 0 LINE",
"1169 0 LINE",
"1347 838 LINE SMOOTH",
"1411 1135 OFFCURVE",
"1379 1314 OFFCURVE",
"902 1314 CURVE SMOOTH"
);
}
);
width = 1437;
}
);
unicode = 05EA;
},
{
glyphname = "shindageshshindot-hb";
lastChange = "2013-03-10 17:24:02 +0200";
layers = (
{
components = (
{
name = "shin-hb";
transform = "{1, 0, 0, 1, 0, 0}";
},
{
name = "shindot-hb";
transform = "{1, 0, 0, 1, 883, -21}";
}
);
layerId = UUID0;
name = "Bold Italic";
paths = (
{
closed = 1;
nodes = (
"839 493 OFFCURVE",
"810 470 OFFCURVE",
"802 434 CURVE SMOOTH",
"794 397 OFFCURVE",
"812 375 OFFCURVE",
"853 375 CURVE SMOOTH",
"893 375 OFFCURVE",
"924 398 OFFCURVE",
"932 434 CURVE SMOOTH",
"939 469 OFFCURVE",
"919 493 OFFCURVE",
"879 493 CURVE SMOOTH"
);
}
);
width = 1616;
}
);
leftMetricsKey = "shin-hb";
rightMetricsKey = "shin-hb";
unicode = FB2C;
},
{
glyphname = "shindageshsindot-hb";
lastChange = "2013-03-10 17:24:52 +0200";
layers = (
{
components = (
{
name = "shin-hb";
transform = "{1, 0, 0, 1, 0, 0}";
},
{
name = "sindot-hb";
transform = "{1, 0, 0, 1, -326, -21}";
}
);
layerId = UUID0;
name = "Bold Italic";
paths = (
{
closed = 1;
nodes = (
"839 493 OFFCURVE",
"810 470 OFFCURVE",
"802 434 CURVE SMOOTH",
"794 397 OFFCURVE",
"812 375 OFFCURVE",
"853 375 CURVE SMOOTH",
"893 375 OFFCURVE",
"924 398 OFFCURVE",
"932 434 CURVE SMOOTH",
"939 469 OFFCURVE",
"919 493 OFFCURVE",
"879 493 CURVE SMOOTH"
);
}
);
width = 1616;
}
);
leftMetricsKey = "shin-hb";
rightMetricsKey = "shin-hb";
unicode = FB2D;
},
{
glyphname = "shindagesh-hb";
lastChange = "2013-03-10 17:25:03 +0200";
layers = (
{
components = (
{
name = "shin-hb";
transform = "{1, 0, 0, 1, 0, 0}";
}
);
layerId = UUID0;
name = "Bold Italic";
paths = (
{
closed = 1;
nodes = (
"839 493 OFFCURVE",
"810 470 OFFCURVE",
"802 434 CURVE SMOOTH",
"794 397 OFFCURVE",
"812 375 OFFCURVE",
"853 375 CURVE SMOOTH",
"893 375 OFFCURVE",
"924 398 OFFCURVE",
"932 434 CURVE SMOOTH",
"939 469 OFFCURVE",
"919 493 OFFCURVE",
"879 493 CURVE SMOOTH"
);
}
);
width = 1616;
}
);
leftMetricsKey = "shin-hb";
rightMetricsKey = "shin-hb";
unicode = FB49;
},
{
glyphname = zero;
lastChange = "2013-03-10 17:18:29 +0200";
layers = (
{
layerId = UUID0;
name = "Bold Italic";
paths = (
{
closed = 1;
nodes = (
"1157 1287 OFFCURVE",
"1001 1485 OFFCURVE",
"731 1485 CURVE SMOOTH",
"467 1485 OFFCURVE",
"261 1317 OFFCURVE",
"148 998 CURVE SMOOTH",
"91 839 OFFCURVE",
"63 662 OFFCURVE",
"63 465 CURVE SMOOTH",
"63 154 OFFCURVE",
"209 -20 OFFCURVE",
"489 -20 CURVE SMOOTH",
"753 -20 OFFCURVE",
"959 145 OFFCURVE",
"1072 453 CURVE SMOOTH",
"1129 608 OFFCURVE",
"1157 784 OFFCURVE",
"1157 983 CURVE SMOOTH"
);
},
{
closed = 1;
nodes = (
"746 1169 OFFCURVE",
"768 1104 OFFCURVE",
"768 991 CURVE SMOOTH",
"768 881 OFFCURVE",
"755 769 OFFCURVE",
"730 655 CURVE SMOOTH",
"705 541 OFFCURVE",
"675 452 OFFCURVE",
"639 389 CURVE SMOOTH",
"604 326 OFFCURVE",
"567 295 OFFCURVE",
"528 295 CURVE SMOOTH",
"468 295 OFFCURVE",
"453 345 OFFCURVE",
"453 457 CURVE SMOOTH",
"453 556 OFFCURVE",
"464 662 OFFCURVE",
"487 776 CURVE SMOOTH",
"510 890 OFFCURVE",
"539 984 OFFCURVE",
"576 1058 CURVE SMOOTH",
"613 1132 OFFCURVE",
"649 1169 OFFCURVE",
"686 1169 CURVE SMOOTH"
);
}
);
width = 1188;
}
);
unicode = 0030;
},
{
glyphname = one;
lastChange = "2013-03-10 17:18:29 +0200";
layers = (
{
layerId = UUID0;
name = "Bold Italic";
paths = (
{
closed = 1;
nodes = (
"1081 1462 LINE",
"770 1462 LINE",
"150 1079 LINE",
"301 827 LINE",
"504 952 LINE",
"539 975 OFFCURVE",
"583 1010 OFFCURVE",
"635 1055 CURVE",
"603 972 OFFCURVE",
"578 887 OFFCURVE",
"559 799 CURVE SMOOTH",
"385 0 LINE",
"774 0 LINE"
);
}
);
width = 1188;
}
);
unicode = 0031;
},
{
glyphname = two;
lastChange = "2013-03-10 17:18:29 +0200";
layers = (
{
layerId = UUID0;
name = "Bold Italic";
paths = (
{
closed = 1;
nodes = (
"1016 326 LINE",
"526 326 LINE",
"526 338 LINE",
"731 514 LINE SMOOTH",
"872 635 OFFCURVE",
"971 740 OFFCURVE",
"1029 829 CURVE SMOOTH",
"1087 918 OFFCURVE",
"1116 1013 OFFCURVE",
"1116 1114 CURVE SMOOTH",
"1116 1227 OFFCURVE",
"1079 1317 OFFCURVE",
"1004 1383 CURVE SMOOTH",
"929 1450 OFFCURVE",
"831 1483 OFFCURVE",
"709 1483 CURVE SMOOTH",
"504 1483 OFFCURVE",
"324 1409 OFFCURVE",
"168 1262 CURVE",
"354 1004 LINE",
"461 1102 OFFCURVE",
"555 1151 OFFCURVE",
"635 1151 CURVE SMOOTH",
"688 1151 OFFCURVE",
"727 1118 OFFCURVE",
"727 1053 CURVE SMOOTH",
"727 960 OFFCURVE",
"644 839 OFFCURVE",
"479 692 CURVE",
"-4 256 LINE",
"-57 0 LINE",
"948 0 LINE"
);
}
);
width = 1188;
}
);
unicode = 0032;
},
{
glyphname = three;
lastChange = "2013-03-10 17:18:29 +0200";
layers = (
{
layerId = UUID0;
name = "Bold Italic";
paths = (
{
closed = 1;
nodes = (
"1126 1244 OFFCURVE",
"1086 1328 OFFCURVE",
"1005 1390 CURVE SMOOTH",
"925 1452 OFFCURVE",
"818 1483 OFFCURVE",
"684 1483 CURVE SMOOTH",
"590 1483 OFFCURVE",
"504 1472 OFFCURVE",
"425 1449 CURVE SMOOTH",
"347 1427 OFFCURVE",
"266 1389 OFFCURVE",
"182 1335 CURVE",
"340 1087 LINE",
"442 1143 OFFCURVE",
"532 1171 OFFCURVE",
"610 1171 CURVE SMOOTH",
"694 1171 OFFCURVE",
"745 1130 OFFCURVE",
"745 1069 CURVE SMOOTH",
"745 961 OFFCURVE",
"630 895 OFFCURVE",
"434 895 CURVE SMOOTH",
"356 895 LINE",
"303 604 LINE",
"387 604 LINE",
"600 600 OFFCURVE",
"661 578 OFFCURVE",
"666 471 CURVE",
"666 355 OFFCURVE",
"575 291 OFFCURVE",
"391 291 CURVE SMOOTH",
"251 291 OFFCURVE",
"125 324 OFFCURVE",
"14 391 CURVE",
"14 59 LINE",
"102 8 OFFCURVE",
"244 -20 OFFCURVE",
"399 -20 CURVE SMOOTH",
"602 -20 OFFCURVE",
"762 19 OFFCURVE",
"881 97 CURVE SMOOTH",
"1000 175 OFFCURVE",
"1059 286 OFFCURVE",
"1059 430 CURVE SMOOTH",
"1059 514 OFFCURVE",
"1035 585 OFFCURVE",
"986 642 CURVE SMOOTH",
"937 700 OFFCURVE",
"870 737 OFFCURVE",
"784 754 CURVE",
"784 762 LINE",
"1001 806 OFFCURVE",
"1126 940 OFFCURVE",
"1126 1137 CURVE SMOOTH"
);
}
);
width = 1188;
}
);
unicode = 0033;
},
{
glyphname = four;
lastChange = "2013-03-10 17:18:29 +0200";
layers = (
{
layerId = UUID0;
name = "Bold Italic";
paths = (
{
closed = 1;
nodes = (
"1126 578 LINE",
"977 578 LINE",
"1163 1462 LINE",
"803 1462 LINE",
"41 539 LINE",
"-10 283 LINE",
"539 283 LINE",
"479 0 LINE",
"856 0 LINE",
"915 283 LINE",
"1065 283 LINE"
);
},
{
closed = 1;
nodes = (
"391 578 LINE",
"586 811 LINE SMOOTH",
"628 861 OFFCURVE",
"666 918 OFFCURVE",
"700 983 CURVE",
"709 983 LINE",
"688 914 OFFCURVE",
"668 843 OFFCURVE",
"649 772 CURVE",
"600 578 LINE"
);
}
);
width = 1188;
}
);
unicode = 0034;
},
{
glyphname = five;
lastChange = "2013-03-10 17:18:29 +0200";
layers = (
{
layerId = UUID0;
name = "Bold Italic";
paths = (
{
closed = 1;
nodes = (
"628 958 OFFCURVE",
"603 957 OFFCURVE",
"580 954 CURVE",
"639 1139 LINE",
"1110 1139 LINE",
"1178 1462 LINE",
"365 1462 LINE",
"150 713 LINE",
"272 621 LINE",
"295 629 OFFCURVE",
"325 636 OFFCURVE",
"364 643 CURVE SMOOTH",
"403 650 OFFCURVE",
"440 653 OFFCURVE",
"475 653 CURVE SMOOTH",
"590 653 OFFCURVE",
"662 584 OFFCURVE",
"662 483 CURVE SMOOTH",
"662 355 OFFCURVE",
"570 291 OFFCURVE",
"385 291 CURVE SMOOTH",
"330 291 OFFCURVE",
"269 299 OFFCURVE",
"201 316 CURVE SMOOTH",
"133 333 OFFCURVE",
"73 357 OFFCURVE",
"20 387 CURVE",
"20 63 LINE",
"56 37 OFFCURVE",
"112 17 OFFCURVE",
"189 2 CURVE SMOOTH",
"266 -13 OFFCURVE",
"348 -20 OFFCURVE",
"434 -20 CURVE SMOOTH",
"637 -20 OFFCURVE",
"793 27 OFFCURVE",
"900 121 CURVE SMOOTH",
"1007 216 OFFCURVE",
"1061 350 OFFCURVE",
"1061 524 CURVE SMOOTH",
"1061 657 OFFCURVE",
"1023 762 OFFCURVE",
"948 840 CURVE SMOOTH",
"873 919 OFFCURVE",
"776 958 OFFCURVE",
"655 958 CURVE SMOOTH"
);
}
);
width = 1188;
}
);
unicode = 0035;
},
{
glyphname = six;
lastChange = "2013-03-10 17:18:29 +0200";
layers = (
{
layerId = UUID0;
name = "Bold Italic";
paths = (
{
closed = 1;
nodes = (
"734 1483 OFFCURVE",
"545 1422 OFFCURVE",
"402 1300 CURVE SMOOTH",
"260 1178 OFFCURVE",
"161 986 OFFCURVE",
"104 725 CURVE",
"87 626 OFFCURVE",
"78 541 OFFCURVE",
"78 471 CURVE SMOOTH",
"78 147 OFFCURVE",
"243 -20 OFFCURVE",
"543 -20 CURVE",
"881 -26 OFFCURVE",
"1111 224 OFFCURVE",
"1106 575 CURVE",
"1106 836 OFFCURVE",
"991 977 OFFCURVE",
"778 977 CURVE SMOOTH",
"644 977 OFFCURVE",
"542 920 OFFCURVE",
"471 807 CURVE",
"463 807 LINE",
"494 907 OFFCURVE",
"530 982 OFFCURVE",
"569 1031 CURVE SMOOTH",
"609 1081 OFFCURVE",
"660 1117 OFFCURVE",
"721 1140 CURVE SMOOTH",
"782 1163 OFFCURVE",
"861 1174 OFFCURVE",
"958 1174 CURVE SMOOTH",
"1017 1174 OFFCURVE",
"1078 1166 OFFCURVE",
"1141 1149 CURVE",
"1204 1452 LINE",
"1117 1473 OFFCURVE",
"1039 1483 OFFCURVE",
"971 1483 CURVE SMOOTH"
);
},
{
closed = 1;
nodes = (
"501 287 OFFCURVE",
"463 332 OFFCURVE",
"463 420 CURVE SMOOTH",
"463 492 OFFCURVE",
"478 552 OFFCURVE",
"508 601 CURVE SMOOTH",
"538 650 OFFCURVE",
"576 674 OFFCURVE",
"621 674 CURVE SMOOTH",
"682 674 OFFCURVE",
"713 631 OFFCURVE",
"713 545 CURVE SMOOTH",
"713 475 OFFCURVE",
"699 414 OFFCURVE",
"670 363 CURVE SMOOTH",
"641 312 OFFCURVE",
"605 287 OFFCURVE",
"561 287 CURVE SMOOTH"
);
}
);
width = 1188;
}
);
unicode = 0036;
},
{
glyphname = seven;
lastChange = "2013-03-10 17:18:29 +0200";
layers = (
{
layerId = UUID0;
name = "Bold Italic";
paths = (
{
closed = 1;
nodes = (
"483 0 LINE",
"1227 1231 LINE",
"1278 1462 LINE",
"248 1462 LINE",
"178 1135 LINE",
"752 1135 LINE",
"35 0 LINE"
);
}
);
width = 1188;
}
);
unicode = 0037;
},
{
glyphname = eight;
lastChange = "2013-03-10 17:18:29 +0200";
layers = (
{
layerId = UUID0;
name = "Bold Italic";
paths = (
{
closed = 1;
nodes = (
"421 1488 OFFCURVE",
"221 1305 OFFCURVE",
"225 1065 CURVE",
"225 940 OFFCURVE",
"277 837 OFFCURVE",
"381 756 CURVE",
"160 678 OFFCURVE",
"49 539 OFFCURVE",
"49 338 CURVE SMOOTH",
"49 231 OFFCURVE",
"93 145 OFFCURVE",
"180 79 CURVE SMOOTH",
"268 13 OFFCURVE",
"387 -20 OFFCURVE",
"537 -20 CURVE SMOOTH",
"701 -20 OFFCURVE",
"830 19 OFFCURVE",
"924 97 CURVE SMOOTH",
"1018 175 OFFCURVE",
"1065 283 OFFCURVE",
"1065 420 CURVE SMOOTH",
"1065 576 OFFCURVE",
"1000 687 OFFCURVE",
"877 782 CURVE",
"960 809 OFFCURVE",
"1028 855 OFFCURVE",
"1079 922 CURVE SMOOTH",
"1131 989 OFFCURVE",
"1157 1066 OFFCURVE",
"1157 1151 CURVE SMOOTH",
"1157 1250 OFFCURVE",
"1118 1331 OFFCURVE",
"1041 1392 CURVE SMOOTH",
"964 1454 OFFCURVE",
"858 1485 OFFCURVE",
"725 1485 CURVE"
);
},
{
closed = 1;
nodes = (
"663 555 OFFCURVE",
"702 491 OFFCURVE",
"702 414 CURVE SMOOTH",
"702 323 OFFCURVE",
"640 262 OFFCURVE",
"547 262 CURVE SMOOTH",
"467 262 OFFCURVE",
"414 313 OFFCURVE",
"414 385 CURVE SMOOTH",
"414 474 OFFCURVE",
"471 548 OFFCURVE",
"584 608 CURVE"
);
},
{
closed = 1;
nodes = (
"756 1202 OFFCURVE",
"801 1169 OFFCURVE",
"801 1104 CURVE SMOOTH",
"801 1032 OFFCURVE",
"751 959 OFFCURVE",
"674 930 CURVE",
"622 955 OFFCURVE",
"588 1014 OFFCURVE",
"588 1065 CURVE SMOOTH",
"588 1104 OFFCURVE",
"600 1136 OFFCURVE",
"623 1162 CURVE SMOOTH",
"647 1189 OFFCURVE",
"675 1202 OFFCURVE",
"707 1202 CURVE SMOOTH"
);
}
);
width = 1188;
}
);
unicode = 0038;
},
{
glyphname = nine;
lastChange = "2013-03-10 17:18:29 +0200";
layers = (
{
layerId = UUID0;
name = "Bold Italic";
paths = (
{
closed = 1;
nodes = (
"1137 1293 OFFCURVE",
"969 1483 OFFCURVE",
"662 1483 CURVE",
"316 1486 OFFCURVE",
"107 1236 OFFCURVE",
"109 887 CURVE",
"109 763 OFFCURVE",
"138 664 OFFCURVE",
"197 591 CURVE SMOOTH",
"256 518 OFFCURVE",
"335 481 OFFCURVE",
"436 481 CURVE SMOOTH",
"564 481 OFFCURVE",
"658 528 OFFCURVE",
"737 655 CURVE",
"745 655 LINE",
"718 526 OFFCURVE",
"670 432 OFFCURVE",
"600 374 CURVE SMOOTH",
"531 316 OFFCURVE",
"434 287 OFFCURVE",
"309 287 CURVE SMOOTH",
"235 287 OFFCURVE",
"167 299 OFFCURVE",
"106 324 CURVE",
"106 10 LINE",
"170 -10 OFFCURVE",
"240 -20 OFFCURVE",
"317 -20 CURVE SMOOTH",
"649 -20 OFFCURVE",
"897 131 OFFCURVE",
"1034 432 CURVE SMOOTH",
"1103 583 OFFCURVE",
"1137 757 OFFCURVE",
"1137 952 CURVE SMOOTH"
);
},
{
closed = 1;
nodes = (
"729 1176 OFFCURVE",
"770 1118 OFFCURVE",
"770 1030 CURVE SMOOTH",
"770 963 OFFCURVE",
"753 905 OFFCURVE",
"719 858 CURVE SMOOTH",
"685 811 OFFCURVE",
"643 788 OFFCURVE",
"594 788 CURVE SMOOTH",
"533 788 OFFCURVE",
"502 836 OFFCURVE",
"502 932 CURVE SMOOTH",
"502 1000 OFFCURVE",
"518 1058 OFFCURVE",
"550 1105 CURVE SMOOTH",
"583 1152 OFFCURVE",
"623 1176 OFFCURVE",
"672 1176 CURVE SMOOTH"
);
}
);
width = 1188;
}
);
unicode = 0039;
},
{
glyphname = fraction;
lastChange = "2013-03-10 17:18:29 +0200";
layers = (
{
layerId = UUID0;
name = "Bold Italic";
paths = (
{
closed = 1;
nodes = (
"526 1462 LINE",
"-563 0 LINE",
"-266 0 LINE",
"817 1462 LINE"
);
}
);
width = 248;
}
);
unicode = 2044;
},
{
glyphname = asterisk;
lastChange = "2013-03-10 17:18:29 +0200";
layers = (
{
layerId = UUID0;
name = "Bold Italic";
paths = (
{
closed = 1;
nodes = (
"602 1571 LINE",
"571 1221 LINE",
"252 1386 LINE",
"152 1108 LINE",
"451 1024 LINE",
"197 795 LINE",
"446 610 LINE",
"612 854 LINE",
"692 551 LINE",
"977 637 LINE",
"829 948 LINE",
"1139 907 LINE",
"1161 1208 LINE",
"793 1178 LINE",
"909 1509 LINE"
);
}
);
width = 1110;
}
);
unicode = 002A;
},
{
glyphname = backslash;
lastChange = "2013-03-10 17:18:29 +0200";
layers = (
{
layerId = UUID0;
name = "Bold Italic";
paths = (
{
closed = 1;
nodes = (
"221 1483 LINE",
"459 -20 LINE",
"778 -20 LINE",
"530 1483 LINE"
);
}
);
width = 956;
}
);
unicode = 005C;
},
{
glyphname = bullet;
lastChange = "2013-03-10 17:18:29 +0200";
layers = (
{
layerId = UUID0;
name = "Bold Italic";
paths = (
{
closed = 1;
nodes = (
"86 595 OFFCURVE",
"112 522 OFFCURVE",
"164 469 CURVE SMOOTH",
"216 416 OFFCURVE",
"288 389 OFFCURVE",
"379 389 CURVE SMOOTH",
"499 389 OFFCURVE",
"593 426 OFFCURVE",
"660 500 CURVE SMOOTH",
"728 574 OFFCURVE",
"762 676 OFFCURVE",
"762 805 CURVE SMOOTH",
"762 1000 OFFCURVE",
"664 1106 OFFCURVE",
"467 1106 CURVE",
"239 1111 OFFCURVE",
"83 923 OFFCURVE",
"86 688 CURVE"
);
}
);
width = 803;
}
);
unicode = 2022;
},
{
glyphname = colon;
lastChange = "2013-03-10 17:18:29 +0200";
layers = (
{
layerId = UUID0;
name = "Bold Italic";
paths = (
{
closed = 1;
nodes = (
"0 23 OFFCURVE",
"70 -25 OFFCURVE",
"174 -25 CURVE SMOOTH",
"347 -25 OFFCURVE",
"424 48 OFFCURVE",
"424 205 CURVE SMOOTH",
"424 305 OFFCURVE",
"356 360 OFFCURVE",
"244 360 CURVE SMOOTH",
"92 360 OFFCURVE",
"0 272 OFFCURVE",
"0 127 CURVE SMOOTH"
);
},
{
closed = 1;
nodes = (
"195 811 OFFCURVE",
"264 762 OFFCURVE",
"369 762 CURVE SMOOTH",
"544 762 OFFCURVE",
"618 834 OFFCURVE",
"618 993 CURVE SMOOTH",
"618 1098 OFFCURVE",
"545 1147 OFFCURVE",
"436 1147 CURVE SMOOTH",
"288 1147 OFFCURVE",
"195 1062 OFFCURVE",
"195 915 CURVE SMOOTH"
);
}
);
width = 627;
}
);
unicode = 003A;
},
{
glyphname = comma;
lastChange = "2013-03-10 17:18:29 +0200";
layers = (
{
layerId = UUID0;
name = "Bold Italic";
paths = (
{
closed = 1;
nodes = (
"84 238 LINE",
"43 123 LINE SMOOTH",
"-20 -54 OFFCURVE",
"-69 -183 OFFCURVE",
"-104 -264 CURVE",
"184 -264 LINE",
"277 -119 OFFCURVE",
"363 40 OFFCURVE",
"440 215 CURVE",
"432 238 LINE"
);
}
);
width = 627;
}
);
unicode = 002C;
},
{
glyphname = exclam;
lastChange = "2013-03-10 17:18:29 +0200";
layers = (
{
layerId = UUID0;
name = "Bold Italic";
paths = (
{
closed = 1;
nodes = (
"707 1462 LINE",
"281 1462 LINE",
"125 516 LINE",
"453 516 LINE"
);
},
{
closed = 1;
nodes = (
"12 27 OFFCURVE",
"82 -25 OFFCURVE",
"199 -25 CURVE SMOOTH",
"346 -25 OFFCURVE",
"436 58 OFFCURVE",
"436 205 CURVE SMOOTH",
"436 304 OFFCURVE",
"372 360 OFFCURVE",
"256 360 CURVE SMOOTH",
"104 360 OFFCURVE",
"12 270 OFFCURVE",
"12 127 CURVE SMOOTH"
);
}
);
width = 623;
}
);
unicode = 0021;
},
{
glyphname = exclamdown;
lastChange = "2013-03-10 17:18:29 +0200";
layers = (
{
layerId = UUID0;
name = "Bold Italic";
paths = (
{
closed = 1;
nodes = (
"-109 -338 LINE",
"317 -338 LINE",
"473 608 LINE",
"145 608 LINE"
);
},
{
closed = 1;
nodes = (
"586 1098 OFFCURVE",
"518 1153 OFFCURVE",
"399 1153 CURVE SMOOTH",
"254 1153 OFFCURVE",
"162 1069 OFFCURVE",
"162 924 CURVE SMOOTH",
"162 824 OFFCURVE",
"226 768 OFFCURVE",
"342 768 CURVE SMOOTH",
"494 768 OFFCURVE",
"586 858 OFFCURVE",
"586 1001 CURVE SMOOTH"
);
}
);
width = 623;
}
);
unicode = 00A1;
},
{
glyphname = numbersign;
lastChange = "2013-03-10 17:18:29 +0200";
layers = (
{
layerId = UUID0;
name = "Bold Italic";
paths = (
{
closed = 1;
nodes = (
"1337 831 LINE",
"1358 1073 LINE",
"1137 1073 LINE",
"1247 1462 LINE",
"977 1462 LINE",
"866 1073 LINE",
"698 1073 LINE",
"809 1462 LINE",
"539 1462 LINE",
"428 1073 LINE",
"143 1073 LINE",
"123 831 LINE",
"358 831 LINE",
"301 631 LINE",
"35 631 LINE",
"14 393 LINE",
"233 393 LINE",
"121 0 LINE",
"391 0 LINE",
"504 393 LINE",
"672 393 LINE",
"559 0 LINE",
"829 0 LINE",
"940 393 LINE",
"1233 393 LINE",
"1253 631 LINE",
"1010 631 LINE",
"1067 831 LINE"
);
},
{
closed = 1;
nodes = (
"629 831 LINE",
"797 831 LINE",
"739 631 LINE",
"571 631 LINE"
);
}
);
width = 1323;
}
);
unicode = 0023;
},
{
glyphname = period;
lastChange = "2013-03-10 17:18:29 +0200";
layers = (
{
layerId = UUID0;
name = "Bold Italic";
paths = (
{
closed = 1;
nodes = (
"0 23 OFFCURVE",
"70 -25 OFFCURVE",
"174 -25 CURVE SMOOTH",
"347 -25 OFFCURVE",
"424 48 OFFCURVE",
"424 205 CURVE SMOOTH",
"424 305 OFFCURVE",
"356 360 OFFCURVE",
"244 360 CURVE SMOOTH",
"92 360 OFFCURVE",
"0 272 OFFCURVE",
"0 127 CURVE SMOOTH"
);
}
);
width = 627;
}
);
unicode = 002E;
},
{
glyphname = periodcentered;
lastChange = "2013-03-10 17:18:29 +0200";
layers = (
{
layerId = UUID0;
name = "Bold Italic";
paths = (
{
closed = 1;
nodes = (
"115 585 OFFCURVE",
"180 530 OFFCURVE",
"295 530 CURVE SMOOTH",
"446 530 OFFCURVE",
"539 604 OFFCURVE",
"539 760 CURVE SMOOTH",
"539 859 OFFCURVE",
"467 915 OFFCURVE",
"358 915 CURVE SMOOTH",
"283 915 OFFCURVE",
"223 894 OFFCURVE",
"180 852 CURVE SMOOTH",
"137 811 OFFCURVE",
"115 755 OFFCURVE",
"115 684 CURVE SMOOTH"
);
}
);
width = 627;
}
);
unicode = 00B7;
},
{
glyphname = question;
lastChange = "2013-03-10 17:18:29 +0200";
layers = (
{
layerId = UUID0;
name = "Bold Italic";
paths = (
{
closed = 1;
nodes = (
"571 516 LINE",
"586 559 LINE",
"595 588 OFFCURVE",
"613 616 OFFCURVE",
"641 643 CURVE SMOOTH",
"670 670 OFFCURVE",
"717 703 OFFCURVE",
"784 743 CURVE SMOOTH",
"863 791 OFFCURVE",
"920 833 OFFCURVE",
"954 868 CURVE SMOOTH",
"989 904 OFFCURVE",
"1015 944 OFFCURVE",
"1033 989 CURVE SMOOTH",
"1052 1034 OFFCURVE",
"1061 1086 OFFCURVE",
"1061 1145 CURVE SMOOTH",
"1061 1250 OFFCURVE",
"1021 1333 OFFCURVE",
"942 1393 CURVE SMOOTH",
"863 1453 OFFCURVE",
"757 1483 OFFCURVE",
"623 1483 CURVE SMOOTH",
"470 1483 OFFCURVE",
"316 1438 OFFCURVE",
"162 1348 CURVE",
"281 1065 LINE",
"406 1138 OFFCURVE",
"510 1174 OFFCURVE",
"594 1174 CURVE SMOOTH",
"654 1174 OFFCURVE",
"684 1151 OFFCURVE",
"684 1104 CURVE SMOOTH",
"684 1077 OFFCURVE",
"672 1052 OFFCURVE",
"647 1027 CURVE SMOOTH",
"623 1002 OFFCURVE",
"581 971 OFFCURVE",
"522 932 CURVE SMOOTH",
"457 889 OFFCURVE",
"410 853 OFFCURVE",
"381 822 CURVE SMOOTH",
"352 791 OFFCURVE",
"328 757 OFFCURVE",
"310 718 CURVE SMOOTH",
"292 679 OFFCURVE",
"278 633 OFFCURVE",
"268 580 CURVE SMOOTH",
"256 516 LINE"
);
},
{
closed = 1;
nodes = (
"176 28 OFFCURVE",
"246 -25 OFFCURVE",
"362 -25 CURVE SMOOTH",
"510 -25 OFFCURVE",
"600 58 OFFCURVE",
"600 205 CURVE SMOOTH",
"600 304 OFFCURVE",
"536 360 OFFCURVE",
"420 360 CURVE SMOOTH",
"268 360 OFFCURVE",
"176 270 OFFCURVE",
"176 127 CURVE SMOOTH"
);
}
);
width = 999;
}
);
unicode = 003F;
},
{
glyphname = questiondown;
lastChange = "2013-03-10 17:18:29 +0200";
layers = (
{
layerId = UUID0;
name = "Bold Italic";
paths = (
{
closed = 1;
nodes = (
"406 612 LINE",
"391 569 LINE SMOOTH",
"382 541 OFFCURVE",
"364 513 OFFCURVE",
"335 486 CURVE SMOOTH",
"307 459 OFFCURVE",
"260 425 OFFCURVE",
"193 385 CURVE SMOOTH",
"112 336 OFFCURVE",
"54 293 OFFCURVE",
"21 258 CURVE SMOOTH",
"-12 223 OFFCURVE",
"-38 184 OFFCURVE",
"-56 139 CURVE",
"-75 95 OFFCURVE",
"-84 43 OFFCURVE",
"-84 -16 CURVE SMOOTH",
"-84 -121 OFFCURVE",
"-45 -204 OFFCURVE",
"34 -264 CURVE SMOOTH",
"113 -324 OFFCURVE",
"220 -354 OFFCURVE",
"354 -354 CURVE SMOOTH",
"510 -354 OFFCURVE",
"664 -309 OFFCURVE",
"815 -219 CURVE",
"696 63 LINE",
"570 -9 OFFCURVE",
"466 -45 OFFCURVE",
"383 -45 CURVE SMOOTH",
"323 -45 OFFCURVE",
"293 -24 OFFCURVE",
"293 25 CURVE SMOOTH",
"293 52 OFFCURVE",
"305 77 OFFCURVE",
"329 102 CURVE SMOOTH",
"354 127 OFFCURVE",
"396 158 OFFCURVE",
"455 197 CURVE SMOOTH",
"518 238 OFFCURVE",
"564 273 OFFCURVE",
"593 304 CURVE SMOOTH",
"623 335 OFFCURVE",
"647 370 OFFCURVE",
"666 409 CURVE SMOOTH",
"685 448 OFFCURVE",
"699 494 OFFCURVE",
"709 549 CURVE SMOOTH",
"721 612 LINE"
);
},
{
closed = 1;
nodes = (
"801 1098 OFFCURVE",
"733 1153 OFFCURVE",
"614 1153 CURVE SMOOTH",
"469 1153 OFFCURVE",
"377 1069 OFFCURVE",
"377 924 CURVE SMOOTH",
"377 824 OFFCURVE",
"441 768 OFFCURVE",
"557 768 CURVE SMOOTH",
"709 768 OFFCURVE",
"801 858 OFFCURVE",
"801 1001 CURVE SMOOTH"
);
}
);
width = 999;
}
);
unicode = 00BF;
},
{
glyphname = quotedbl;
lastChange = "2013-03-10 17:18:29 +0200";
layers = (
{
layerId = UUID0;
name = "Bold Italic";
paths = (
{
closed = 1;
nodes = (
"254 1462 LINE",
"182 934 LINE",
"438 934 LINE",
"596 1462 LINE"
);
},
{
closed = 1;
nodes = (
"696 1462 LINE",
"623 934 LINE",
"881 934 LINE",
"1038 1462 LINE"
);
}
);
width = 930;
}
);
unicode = 0022;
},
{
glyphname = quotesingle;
lastChange = "2013-03-10 17:18:29 +0200";
layers = (
{
layerId = UUID0;
name = "Bold Italic";
paths = (
{
closed = 1;
nodes = (
"254 1462 LINE",
"182 934 LINE",
"438 934 LINE",
"596 1462 LINE"
);
}
);
width = 487;
}
);
unicode = 0027;
},
{
glyphname = semicolon;
lastChange = "2013-03-10 17:18:29 +0200";
layers = (
{
layerId = UUID0;
name = "Bold Italic";
paths = (
{
closed = 1;
nodes = (
"72 238 LINE",
"31 123 LINE",
"-24 -37 OFFCURVE",
"-74 -166 OFFCURVE",
"-117 -264 CURVE",
"172 -264 LINE",
"265 -119 OFFCURVE",
"351 40 OFFCURVE",
"428 215 CURVE",
"420 238 LINE"
);
},
{
closed = 1;
nodes = (
"195 811 OFFCURVE",
"264 762 OFFCURVE",
"369 762 CURVE SMOOTH",
"544 762 OFFCURVE",
"618 834 OFFCURVE",
"618 993 CURVE SMOOTH",
"618 1098 OFFCURVE",
"545 1147 OFFCURVE",
"436 1147 CURVE SMOOTH",
"288 1147 OFFCURVE",
"195 1062 OFFCURVE",
"195 915 CURVE SMOOTH"
);
}
);
width = 627;
}
);
unicode = 003B;
},
{
glyphname = slash;
lastChange = "2013-03-10 17:18:29 +0200";
layers = (
{
layerId = UUID0;
name = "Bold Italic";
paths = (
{
closed = 1;
nodes = (
"748 1483 LINE",
"-90 -20 LINE",
"254 -20 LINE",
"1092 1483 LINE"
);
}
);
width = 956;
}
);
unicode = 002F;
},
{
glyphname = underscore;
lastChange = "2013-03-10 17:18:29 +0200";
layers = (
{
layerId = UUID0;
name = "Bold Italic";
paths = (
{
closed = 1;
nodes = (
"803 -133 LINE",
"-127 -133 LINE",
"-184 -379 LINE",
"745 -379 LINE"
);
}
);
width = 922;
}
);
unicode = 005F;
},
{
glyphname = braceleft;
lastChange = "2013-03-10 17:18:29 +0200";
layers = (
{
layerId = UUID0;
name = "Bold Italic";
paths = (
{
closed = 1;
nodes = (
"432 58 OFFCURVE",
"434 74 OFFCURVE",
"438 94 CURVE SMOOTH",
"473 258 LINE",
"480 296 OFFCURVE",
"483 321 OFFCURVE",
"483 332 CURVE SMOOTH",
"483 449 OFFCURVE",
"433 526 OFFCURVE",
"313 565 CURVE",
"313 573 LINE",
"484 593 OFFCURVE",
"565 667 OFFCURVE",
"592 795 CURVE SMOOTH",
"645 1053 LINE",
"668 1149 OFFCURVE",
"713 1179 OFFCURVE",
"821 1182 CURVE",
"883 1462 LINE",
"754 1462 LINE SMOOTH",
"591 1462 OFFCURVE",
"485 1417 OFFCURVE",
"420 1329 CURVE SMOOTH",
"388 1285 OFFCURVE",
"363 1222 OFFCURVE",
"344 1139 CURVE SMOOTH",
"289 893 LINE SMOOTH",
"275 830 OFFCURVE",
"249 785 OFFCURVE",
"212 759 CURVE SMOOTH",
"175 734 OFFCURVE",
"116 721 OFFCURVE",
"37 721 CURVE",
"-16 434 LINE",
"107 434 OFFCURVE",
"160 397 OFFCURVE",
"160 297 CURVE SMOOTH",
"160 284 OFFCURVE",
"158 270 OFFCURVE",
"154 254 CURVE SMOOTH",
"117 80 LINE",
"107 37 OFFCURVE",
"102 -5 OFFCURVE",
"102 -47 CURVE SMOOTH",
"102 -234 OFFCURVE",
"219 -324 OFFCURVE",
"463 -324 CURVE SMOOTH",
"545 -324 LINE",
"545 -43 LINE",
"470 -43 OFFCURVE",
"432 -14 OFFCURVE",
"432 45 CURVE SMOOTH"
);
}
);
width = 735;
}
);
unicode = 007B;
},
{
glyphname = braceright;
lastChange = "2013-03-10 17:18:29 +0200";
layers = (
{
layerId = UUID0;
name = "Bold Italic";
paths = (
{
closed = 1;
nodes = (
"-49 -324 LINE",
"72 -324 OFFCURVE",
"166 -298 OFFCURVE",
"233 -247 CURVE SMOOTH",
"300 -196 OFFCURVE",
"346 -114 OFFCURVE",
"371 0 CURVE SMOOTH",
"426 246 LINE SMOOTH",
"453 370 OFFCURVE",
"529 420 OFFCURVE",
"690 420 CURVE",
"748 707 LINE",
"609 707 OFFCURVE",
"555 754 OFFCURVE",
"555 842 CURVE SMOOTH",
"555 853 OFFCURVE",
"557 868 OFFCURVE",
"561 885 CURVE SMOOTH",
"598 1059 LINE SMOOTH",
"607 1099 OFFCURVE",
"612 1142 OFFCURVE",
"612 1188 CURVE SMOOTH",
"612 1365 OFFCURVE",
"486 1462 OFFCURVE",
"262 1462 CURVE SMOOTH",
"201 1462 LINE",
"147 1182 LINE",
"238 1182 OFFCURVE",
"283 1153 OFFCURVE",
"283 1094 CURVE SMOOTH",
"283 1080 OFFCURVE",
"281 1063 OFFCURVE",
"276 1044 CURVE",
"242 881 LINE",
"235 840 OFFCURVE",
"231 815 OFFCURVE",
"231 807 CURVE SMOOTH",
"231 688 OFFCURVE",
"288 610 OFFCURVE",
"401 573 CURVE",
"401 565 LINE",
"237 549 OFFCURVE",
"151 476 OFFCURVE",
"123 344 CURVE SMOOTH",
"70 86 LINE SMOOTH",
"62 47 OFFCURVE",
"52 19 OFFCURVE",
"40 4 CURVE SMOOTH",
"28 -11 OFFCURVE",
"10 -22 OFFCURVE",
"-14 -29 CURVE SMOOTH",
"-38 -36 OFFCURVE",
"-74 -41 OFFCURVE",
"-123 -43 CURVE",
"-123 -324 LINE",
"-49 -324 LINE"
);
}
);
width = 735;
}
);
unicode = 007D;
},
{
glyphname = bracketleft;
lastChange = "2013-03-10 17:18:29 +0200";
layers = (
{
layerId = UUID0;
name = "Bold Italic";
paths = (
{
closed = 1;
nodes = (
"530 -90 LINE",
"315 -90 LINE",
"600 1249 LINE",
"815 1249 LINE",
"870 1503 LINE",
"340 1503 LINE",
"-53 -344 LINE",
"477 -344 LINE"
);
}
);
width = 737;
}
);
unicode = 005B;
},
{
glyphname = bracketright;
lastChange = "2013-03-10 17:18:29 +0200";
layers = (
{
layerId = UUID0;
name = "Bold Italic";
paths = (
{
closed = 1;
nodes = (
"-133 -344 LINE",
"393 -344 LINE",
"786 1503 LINE",
"258 1503 LINE",
"203 1249 LINE",
"418 1249 LINE",
"133 -90 LINE",
"-80 -90 LINE"
);
}
);
width = 737;
}
);
unicode = 005D;
},
{
glyphname = parenleft;
lastChange = "2013-03-10 17:18:29 +0200";
layers = (
{
layerId = UUID0;
name = "Bold Italic";
paths = (
{
closed = 1;
nodes = (
"68 211 OFFCURVE",
"82 94 OFFCURVE",
"110 -25 CURVE SMOOTH",
"138 -144 OFFCURVE",
"174 -244 OFFCURVE",
"219 -324 CURVE",
"512 -324 LINE",
"477 -237 OFFCURVE",
"449 -134 OFFCURVE",
"427 -17 CURVE SMOOTH",
"406 100 OFFCURVE",
"395 209 OFFCURVE",
"395 309 CURVE SMOOTH",
"395 740 OFFCURVE",
"556 1128 OFFCURVE",
"903 1503 CURVE",
"580 1503 LINE",
"229 1144 OFFCURVE",
"68 766 OFFCURVE",
"68 326 CURVE SMOOTH"
);
}
);
width = 766;
}
);
unicode = 0028;
},
{
glyphname = parenright;
lastChange = "2013-03-10 17:18:29 +0200";
layers = (
{
layerId = UUID0;
name = "Bold Italic";
paths = (
{
closed = 1;
nodes = (
"694 972 OFFCURVE",
"681 1089 OFFCURVE",
"654 1205 CURVE SMOOTH",
"627 1321 OFFCURVE",
"590 1420 OFFCURVE",
"543 1503 CURVE",
"248 1503 LINE",
"284 1411 OFFCURVE",
"313 1307 OFFCURVE",
"334 1192 CURVE SMOOTH",
"356 1077 OFFCURVE",
"367 970 OFFCURVE",
"367 870 CURVE SMOOTH",
"367 433 OFFCURVE",
"208 45 OFFCURVE",
"-133 -324 CURVE",
"193 -324 LINE",
"363 -149 OFFCURVE",
"489 35 OFFCURVE",
"571 226 CURVE SMOOTH",
"653 417 OFFCURVE",
"694 627 OFFCURVE",
"694 854 CURVE SMOOTH"
);
}
);
width = 766;
}
);
unicode = 0029;
},
{
glyphname = emdash;
lastChange = "2013-03-10 17:18:29 +0200";
layers = (
{
layerId = UUID0;
name = "Bold Italic";
paths = (
{
closed = 1;
nodes = (
"1884 416 LINE",
"1944 690 LINE",
"90 690 LINE",
"33 416 LINE"
);
}
);
width = 1966;
}
);
unicode = 2014;
},
{
glyphname = endash;
lastChange = "2013-03-10 17:18:29 +0200";
layers = (
{
layerId = UUID0;
name = "Bold Italic";
paths = (
{
closed = 1;
nodes = (
"901 416 LINE",
"961 690 LINE",
"90 690 LINE",
"33 416 LINE"
);
}
);
width = 983;
}
);
unicode = 2013;
},
{
glyphname = hyphen;
lastChange = "2013-03-10 17:18:29 +0200";
layers = (
{
layerId = UUID0;
name = "Bold Italic";
paths = (
{
closed = 1;
nodes = (
"575 393 LINE",
"639 705 LINE",
"86 705 LINE",
"23 393 LINE"
);
}
);
width = 674;
}
);
unicode = 002D;
},
{
glyphname = guillemotleft;
lastChange = "2013-03-10 17:18:29 +0200";
layers = (
{
layerId = UUID0;
name = "Bold Italic";
paths = (
{
closed = 1;
nodes = (
"61 553 LINE",
"244 76 LINE",
"578 213 LINE",
"467 543 LINE",
"733 877 LINE",
"469 1081 LINE",
"61 563 LINE"
);
},
{
closed = 1;
nodes = (
"608 582 LINE",
"803 76 LINE",
"1137 213 LINE",
"1014 571 LINE",
"1292 877 LINE",
"1032 1087 LINE",
"608 592 LINE"
);
}
);
width = 1276;
}
);
unicode = 00AB;
},
{
glyphname = guillemotright;
lastChange = "2013-03-10 17:18:29 +0200";
layers = (
{
layerId = UUID0;
name = "Bold Italic";
paths = (
{
closed = 1;
nodes = (
"1214 571 LINE",
"1032 1049 LINE",
"698 911 LINE",
"809 582 LINE",
"543 248 LINE",
"807 43 LINE",
"1214 561 LINE"
);
},
{
closed = 1;
nodes = (
"668 543 LINE",
"473 1049 LINE",
"141 911 LINE",
"262 553 LINE",
"-14 248 LINE",
"244 35 LINE",
"668 532 LINE"
);
}
);
width = 1276;
}
);
unicode = 00BB;
},
{
glyphname = guilsinglleft;
lastChange = "2013-03-10 17:18:29 +0200";
layers = (
{
layerId = UUID0;
name = "Bold Italic";
paths = (
{
closed = 1;
nodes = (
"61 553 LINE",
"244 76 LINE",
"578 213 LINE",
"467 543 LINE",
"733 877 LINE",
"469 1081 LINE",
"61 563 LINE"
);
}
);
width = 719;
}
);
unicode = 2039;
},
{
glyphname = guilsinglright;
lastChange = "2013-03-10 17:18:29 +0200";
layers = (
{
layerId = UUID0;
name = "Bold Italic";
paths = (
{
closed = 1;
nodes = (
"657 571 LINE",
"473 1049 LINE",
"141 911 LINE",
"252 582 LINE",
"-14 248 LINE",
"250 43 LINE",
"657 561 LINE"
);
}
);
width = 719;
}
);
unicode = 203A;
},
{
glyphname = quotedblbase;
lastChange = "2013-03-10 17:18:29 +0200";
layers = (
{
layerId = UUID0;
name = "Bold Italic";
paths = (
{
closed = 1;
nodes = (
"84 238 LINE",
"9 28 OFFCURVE",
"-37 -98 OFFCURVE",
"-54 -141 CURVE SMOOTH",
"-71 -184 OFFCURVE",
"-87 -225 OFFCURVE",
"-104 -264 CURVE",
"184 -264 LINE",
"292 -93 OFFCURVE",
"377 66 OFFCURVE",
"440 215 CURVE",
"432 238 LINE"
);
},
{
closed = 1;
nodes = (
"586 238 LINE",
"544 123 LINE SMOOTH",
"487 -36 OFFCURVE",
"438 -165 OFFCURVE",
"397 -264 CURVE",
"684 -264 LINE",
"724 -202 OFFCURVE",
"768 -126 OFFCURVE",
"817 -36 CURVE SMOOTH",
"866 54 OFFCURVE",
"908 138 OFFCURVE",
"942 215 CURVE",
"934 238 LINE"
);
}
);
width = 1122;
}
);
unicode = 201E;
},
{
glyphname = quotedblleft;
lastChange = "2013-03-10 17:18:29 +0200";
layers = (
{
layerId = UUID0;
name = "Bold Italic";
paths = (
{
closed = 1;
nodes = (
"963 961 LINE",
"1051 1204 LINE SMOOTH",
"1085 1299 OFFCURVE",
"1118 1385 OFFCURVE",
"1151 1462 CURVE",
"862 1462 LINE",
"764 1307 OFFCURVE",
"679 1147 OFFCURVE",
"606 983 CURVE",
"614 961 LINE"
);
},
{
closed = 1;
nodes = (
"467 961 LINE",
"539 1162 OFFCURVE",
"584 1285 OFFCURVE",
"602 1331 CURVE SMOOTH",
"620 1377 OFFCURVE",
"638 1421 OFFCURVE",
"655 1462 CURVE",
"367 1462 LINE",
"264 1299 OFFCURVE",
"178 1140 OFFCURVE",
"109 983 CURVE",
"119 961 LINE"
);
}
);
width = 997;
}
);
unicode = 201C;
},
{
glyphname = quotedblright;
lastChange = "2013-03-10 17:18:29 +0200";
layers = (
{
layerId = UUID0;
name = "Bold Italic";
paths = (
{
closed = 1;
nodes = (
"283 1462 LINE",
"194 1219 LINE SMOOTH",
"160 1125 OFFCURVE",
"127 1039 OFFCURVE",
"94 961 CURVE",
"383 961 LINE",
"492 1139 OFFCURVE",
"578 1299 OFFCURVE",
"639 1440 CURVE",
"631 1462 LINE"
);
},
{
closed = 1;
nodes = (
"780 1462 LINE",
"691 1219 LINE SMOOTH",
"652 1112 OFFCURVE",
"619 1026 OFFCURVE",
"592 961 CURVE",
"881 961 LINE",
"930 1040 OFFCURVE",
"978 1124 OFFCURVE",
"1025 1214 CURVE SMOOTH",
"1072 1304 OFFCURVE",
"1109 1379 OFFCURVE",
"1135 1440 CURVE",
"1128 1462 LINE"
);
}
);
width = 997;
}
);
unicode = 201D;
},
{
glyphname = quoteleft;
lastChange = "2013-03-10 17:18:29 +0200";
layers = (
{
layerId = UUID0;
name = "Bold Italic";
paths = (
{
closed = 1;
nodes = (
"467 961 LINE",
"539 1162 OFFCURVE",
"584 1285 OFFCURVE",
"602 1331 CURVE SMOOTH",
"620 1377 OFFCURVE",
"638 1421 OFFCURVE",
"655 1462 CURVE",
"367 1462 LINE",
"264 1299 OFFCURVE",
"178 1140 OFFCURVE",
"109 983 CURVE",
"119 961 LINE"
);
}
);
width = 500;
}
);
unicode = 2018;
},
{
glyphname = quoteright;
lastChange = "2013-03-10 17:18:29 +0200";
layers = (
{
layerId = UUID0;
name = "Bold Italic";
paths = (
{
closed = 1;
nodes = (
"283 1462 LINE",
"224 1297 OFFCURVE",
"184 1186 OFFCURVE",
"161 1128 CURVE SMOOTH",
"139 1071 OFFCURVE",
"117 1015 OFFCURVE",
"94 961 CURVE",
"383 961 LINE",
"492 1139 OFFCURVE",
"578 1299 OFFCURVE",
"639 1440 CURVE",
"631 1462 LINE"
);
}
);
width = 500;
}
);
unicode = 2019;
},
{
glyphname = quotesinglbase;
lastChange = "2013-03-10 17:18:29 +0200";
layers = (
{
layerId = UUID0;
name = "Bold Italic";
paths = (
{
closed = 1;
nodes = (
"84 238 LINE",
"9 28 OFFCURVE",
"-37 -98 OFFCURVE",
"-54 -141 CURVE SMOOTH",
"-71 -184 OFFCURVE",
"-87 -225 OFFCURVE",
"-104 -264 CURVE",
"184 -264 LINE",
"292 -93 OFFCURVE",
"377 66 OFFCURVE",
"440 215 CURVE",
"432 238 LINE"
);
}
);
width = 621;
}
);
unicode = 201A;
},
{
glyphname = "geresh-hb";
lastChange = "2013-03-12 15:13:37 +0200";
layers = (
{
layerId = UUID0;
name = "Bold Italic";
paths = (
{
closed = 1;
nodes = (
"283 1290 LINE",
"224 1125 OFFCURVE",
"184 1014 OFFCURVE",
"161 956 CURVE SMOOTH",
"139 899 OFFCURVE",
"117 843 OFFCURVE",
"94 789 CURVE",
"383 789 LINE",
"492 967 OFFCURVE",
"578 1127 OFFCURVE",
"639 1268 CURVE",
"631 1290 LINE"
);
}
);
width = 512;
}
);
unicode = 05F3;
},
{
glyphname = "gershayim-hb";
lastChange = "2013-03-12 15:13:01 +0200";
layers = (
{
layerId = UUID0;
name = "Bold Italic";
paths = (
{
closed = 1;
nodes = (
"283 1290 LINE",
"194 1047 LINE SMOOTH",
"160 953 OFFCURVE",
"127 867 OFFCURVE",
"94 789 CURVE",
"383 789 LINE",
"492 967 OFFCURVE",
"578 1127 OFFCURVE",
"639 1268 CURVE",
"631 1290 LINE"
);
},
{
closed = 1;
nodes = (
"780 1290 LINE",
"691 1047 LINE SMOOTH",
"652 940 OFFCURVE",
"619 854 OFFCURVE",
"592 789 CURVE",
"881 789 LINE",
"930 868 OFFCURVE",
"978 952 OFFCURVE",
"1025 1042 CURVE SMOOTH",
"1072 1132 OFFCURVE",
"1109 1207 OFFCURVE",
"1135 1268 CURVE",
"1128 1290 LINE"
);
}
);
width = 1022;
}
);
unicode = 05F4;
},
{
glyphname = "maqaf-hb";
lastChange = "2013-03-10 17:21:15 +0200";
layers = (
{
layerId = UUID0;
name = "Bold Italic";
paths = (
{
closed = 1;
nodes = (
"76 1295 LINE",
"10 982 LINE",
"575 982 LINE",
"641 1295 LINE"
);
}
);
width = 651;
}
);
unicode = 05BE;
},
{
glyphname = .notdef;
lastChange = "2013-03-10 17:18:29 +0200";
layers = (
{
layerId = UUID0;
name = "Bold Italic";
paths = (
{
closed = 1;
nodes = (
"195 0 LINE",
"1034 0 LINE",
"1034 1462 LINE",
"195 1462 LINE"
);
},
{
closed = 1;
nodes = (
"299 1358 LINE",
"930 1358 LINE",
"930 104 LINE",
"299 104 LINE"
);
}
);
width = 1229;
}
);
},
{
glyphname = florin;
lastChange = "2013-03-10 17:18:29 +0200";
layers = (
{
layerId = UUID0;
name = "Bold Italic";
paths = (
{
closed = 1;
nodes = (
"394 -492 OFFCURVE",
"550 -362 OFFCURVE",
"602 -117 CURVE SMOOTH",
"784 737 LINE",
"991 737 LINE",
"1057 1034 LINE",
"848 1034 LINE",
"866 1112 LINE SMOOTH",
"876 1155 OFFCURVE",
"905 1176 OFFCURVE",
"952 1176 CURVE SMOOTH",
"993 1176 OFFCURVE",
"1036 1165 OFFCURVE",
"1081 1143 CURVE",
"1186 1425 LINE",
"1106 1464 OFFCURVE",
"1017 1483 OFFCURVE",
"920 1483 CURVE SMOOTH",
"671 1483 OFFCURVE",
"538 1367 OFFCURVE",
"481 1118 CURVE SMOOTH",
"461 1030 LINE",
"283 940 LINE",
"244 737 LINE",
"395 737 LINE",
"229 -51 LINE SMOOTH",
"212 -134 OFFCURVE",
"157 -176 OFFCURVE",
"63 -176 CURVE SMOOTH",
"22 -176 OFFCURVE",
"-16 -170 OFFCURVE",
"-53 -158 CURVE",
"-53 -465 LINE",
"12 -483 OFFCURVE",
"81 -492 OFFCURVE",
"154 -492 CURVE SMOOTH"
);
}
);
width = 1188;
}
);
unicode = 0192;
},
{
glyphname = Euro;
lastChange = "2013-03-10 17:18:29 +0200";
layers = (
{
layerId = UUID0;
name = "Bold Italic";
paths = (
{
closed = 1;
nodes = (
"972 1178 OFFCURVE",
"1046 1152 OFFCURVE",
"1126 1100 CURVE",
"1280 1382 LINE",
"1223 1419 OFFCURVE",
"1165 1445 OFFCURVE",
"1107 1462 CURVE SMOOTH",
"1049 1479 OFFCURVE",
"982 1487 OFFCURVE",
"905 1487 CURVE SMOOTH",
"614 1487 OFFCURVE",
"397 1307 OFFCURVE",
"285 983 CURVE",
"168 983 LINE",
"121 778 LINE",
"227 778 LINE",
"205 655 LINE",
"96 655 LINE",
"53 451 LINE",
"193 451 LINE",
"201 127 OFFCURVE",
"343 -20 OFFCURVE",
"651 -20 CURVE SMOOTH",
"804 -20 OFFCURVE",
"922 2 OFFCURVE",
"1006 45 CURVE",
"1006 375 LINE",
"902 334 OFFCURVE",
"813 307 OFFCURVE",
"713 307 CURVE SMOOTH",
"661 307 OFFCURVE",
"626 317 OFFCURVE",
"607 338 CURVE SMOOTH",
"589 359 OFFCURVE",
"580 396 OFFCURVE",
"580 451 CURVE",
"807 451 LINE",
"850 655 LINE",
"604 655 LINE",
"609 698 OFFCURVE",
"617 739 OFFCURVE",
"629 778 CURVE",
"938 778 LINE",
"983 983 LINE",
"686 983 LINE",
"737 1113 OFFCURVE",
"810 1178 OFFCURVE",
"905 1178 CURVE SMOOTH"
);
}
);
width = 1188;
}
);
unicode = 20AC;
},
{
glyphname = cent;
lastChange = "2013-03-10 17:18:29 +0200";
layers = (
{
layerId = UUID0;
name = "Bold Italic";
paths = (
{
closed = 1;
nodes = (
"643 168 LINE",
"751 176 OFFCURVE",
"853 206 OFFCURVE",
"950 258 CURVE",
"950 569 LINE",
"851 516 OFFCURVE",
"764 479 OFFCURVE",
"668 479 CURVE SMOOTH",
"589 479 OFFCURVE",
"547 522 OFFCURVE",
"547 627 CURVE SMOOTH",
"547 700 OFFCURVE",
"558 769 OFFCURVE",
"579 834 CURVE SMOOTH",
"600 899 OFFCURVE",
"628 947 OFFCURVE",
"663 980 CURVE SMOOTH",
"698 1013 OFFCURVE",
"736 1030 OFFCURVE",
"778 1030 CURVE SMOOTH",
"811 1030 OFFCURVE",
"843 1026 OFFCURVE",
"876 1019 CURVE SMOOTH",
"909 1012 OFFCURVE",
"951 996 OFFCURVE",
"1004 971 CURVE",
"1126 1257 LINE",
"1053 1295 OFFCURVE",
"976 1320 OFFCURVE",
"895 1333 CURVE",
"928 1483 LINE",
"698 1483 LINE",
"666 1335 LINE",
"512 1312 OFFCURVE",
"388 1232 OFFCURVE",
"294 1096 CURVE SMOOTH",
"201 960 OFFCURVE",
"154 790 OFFCURVE",
"154 586 CURVE SMOOTH",
"154 370 OFFCURVE",
"244 237 OFFCURVE",
"424 188 CURVE",
"373 -20 LINE",
"602 -20 LINE"
);
}
);
width = 1188;
}
);
unicode = 00A2;
},
{
glyphname = dollar;
lastChange = "2013-03-10 17:18:29 +0200";
layers = (
{
layerId = UUID0;
name = "Bold Italic";
paths = (
{
closed = 1;
nodes = (
"1067 649 OFFCURVE",
"984 759 OFFCURVE",
"797 850 CURVE SMOOTH",
"718 889 OFFCURVE",
"665 920 OFFCURVE",
"639 944 CURVE SMOOTH",
"613 969 OFFCURVE",
"600 999 OFFCURVE",
"600 1034 CURVE SMOOTH",
"600 1087 OFFCURVE",
"653 1130 OFFCURVE",
"741 1130 CURVE SMOOTH",
"832 1130 OFFCURVE",
"931 1106 OFFCURVE",
"1036 1059 CURVE",
"1176 1329 LINE",
"1074 1379 OFFCURVE",
"969 1409 OFFCURVE",
"862 1419 CURVE",
"893 1556 LINE",
"725 1556 LINE",
"696 1423 LINE",
"547 1413 OFFCURVE",
"427 1371 OFFCURVE",
"338 1296 CURVE SMOOTH",
"249 1221 OFFCURVE",
"205 1125 OFFCURVE",
"205 1008 CURVE SMOOTH",
"205 836 OFFCURVE",
"309 704 OFFCURVE",
"494 621 CURVE",
"565 587 OFFCURVE",
"612 559 OFFCURVE",
"633 537 CURVE",
"655 516 OFFCURVE",
"666 492 OFFCURVE",
"666 465 CURVE SMOOTH",
"666 395 OFFCURVE",
"608 360 OFFCURVE",
"492 360 CURVE SMOOTH",
"357 360 OFFCURVE",
"229 394 OFFCURVE",
"61 473 CURVE",
"61 162 LINE",
"145 111 OFFCURVE",
"261 81 OFFCURVE",
"408 70 CURVE",
"367 -121 LINE",
"535 -121 LINE",
"573 66 LINE",
"725 75 OFFCURVE",
"845 116 OFFCURVE",
"934 191 CURVE SMOOTH",
"1023 266 OFFCURVE",
"1067 362 OFFCURVE",
"1067 481 CURVE SMOOTH"
);
}
);
width = 1188;
}
);
unicode = 0024;
},
{
glyphname = sterling;
lastChange = "2013-03-10 17:18:29 +0200";
layers = (
{
layerId = UUID0;
name = "Bold Italic";
paths = (
{
closed = 1;
nodes = (
"655 1483 OFFCURVE",
"541 1427 OFFCURVE",
"462 1302 CURVE SMOOTH",
"423 1239 OFFCURVE",
"394 1158 OFFCURVE",
"377 1059 CURVE SMOOTH",
"354 930 LINE",
"166 930 LINE",
"109 651 LINE",
"297 651 LINE",
"276 555 LINE",
"265 500 OFFCURVE",
"251 459 OFFCURVE",
"234 431 CURVE SMOOTH",
"218 404 OFFCURVE",
"195 381 OFFCURVE",
"165 362 CURVE SMOOTH",
"136 343 OFFCURVE",
"96 327 OFFCURVE",
"45 313 CURVE",
"-18 0 LINE",
"1001 0 LINE",
"1073 330 LINE",
"469 330 LINE",
"576 375 OFFCURVE",
"651 458 OFFCURVE",
"672 557 CURVE SMOOTH",
"692 651 LINE",
"944 651 LINE",
"1001 930 LINE",
"750 930 LINE",
"774 1044 LINE SMOOTH",
"793 1135 OFFCURVE",
"819 1161 OFFCURVE",
"866 1161 CURVE SMOOTH",
"934 1161 OFFCURVE",
"991 1139 OFFCURVE",
"1079 1098 CURVE",
"1223 1397 LINE",
"1079 1461 OFFCURVE",
"969 1483 OFFCURVE",
"850 1483 CURVE SMOOTH"
);
}
);
width = 1188;
}
);
unicode = 00A3;
},
{
glyphname = yen;
lastChange = "2013-03-10 17:18:29 +0200";
layers = (
{
layerId = UUID0;
name = "Bold Italic";
paths = (
{
closed = 1;
nodes = (
"567 1462 LINE",
"182 1462 LINE",
"369 729 LINE",
"190 729 LINE",
"145 524 LINE",
"371 524 LINE",
"346 395 LINE",
"119 395 LINE",
"76 190 LINE",
"303 190 LINE",
"262 0 LINE",
"641 0 LINE",
"682 190 LINE",
"905 190 LINE",
"948 395 LINE",
"725 395 LINE",
"752 524 LINE",
"975 524 LINE",
"1020 729 LINE",
"836 729 LINE",
"1325 1462 LINE",
"932 1462 LINE",
"639 975 LINE"
);
}
);
width = 1188;
}
);
unicode = 00A5;
},
{
glyphname = asciitilde;
lastChange = "2013-03-10 17:18:29 +0200";
layers = (
{
layerId = UUID0;
name = "Bold Italic";
paths = (
{
closed = 1;
nodes = (
"369 645 OFFCURVE",
"399 641 OFFCURVE",
"428 633 CURVE SMOOTH",
"457 625 OFFCURVE",
"497 611 OFFCURVE",
"547 590 CURVE SMOOTH",
"612 564 OFFCURVE",
"661 547 OFFCURVE",
"695 538 CURVE",
"730 530 OFFCURVE",
"768 526 OFFCURVE",
"809 526 CURVE SMOOTH",
"912 526 OFFCURVE",
"1000 562 OFFCURVE",
"1071 635 CURVE",
"1071 920 LINE",
"995 844 OFFCURVE",
"902 799 OFFCURVE",
"834 799 CURVE SMOOTH",
"765 799 OFFCURVE",
"710 817 OFFCURVE",
"621 854 CURVE",
"552 881 OFFCURVE",
"501 899 OFFCURVE",
"468 906 CURVE SMOOTH",
"435 914 OFFCURVE",
"399 918 OFFCURVE",
"358 918 CURVE SMOOTH",
"255 918 OFFCURVE",
"167 882 OFFCURVE",
"96 809 CURVE",
"96 524 LINE",
"180 605 OFFCURVE",
"267 645 OFFCURVE",
"336 645 CURVE SMOOTH"
);
}
);
width = 1159;
}
);
unicode = 007E;
},
{
glyphname = divide;
lastChange = "2013-03-10 17:18:29 +0200";
layers = (
{
layerId = UUID0;
name = "Bold Italic";
paths = (
{
closed = 1;
nodes = (
"1077 586 LINE",
"1077 858 LINE",
"102 858 LINE",
"102 586 LINE"
);
},
{
closed = 1;
nodes = (
"432 266 OFFCURVE",
"491 201 OFFCURVE",
"590 201 CURVE SMOOTH",
"686 201 OFFCURVE",
"745 265 OFFCURVE",
"745 373 CURVE SMOOTH",
"745 484 OFFCURVE",
"689 545 OFFCURVE",
"590 545 CURVE SMOOTH",
"489 545 OFFCURVE",
"432 484 OFFCURVE",
"432 373 CURVE SMOOTH"
);
},
{
closed = 1;
nodes = (
"432 964 OFFCURVE",
"491 899 OFFCURVE",
"590 899 CURVE SMOOTH",
"686 899 OFFCURVE",
"745 963 OFFCURVE",
"745 1071 CURVE SMOOTH",
"745 1182 OFFCURVE",
"689 1243 OFFCURVE",
"590 1243 CURVE SMOOTH",
"489 1243 OFFCURVE",
"432 1182 OFFCURVE",
"432 1071 CURVE SMOOTH"
);
}
);
width = 1159;
}
);
unicode = 00F7;
},
{
glyphname = equal;
lastChange = "2013-03-10 17:18:29 +0200";
layers = (
{
layerId = UUID0;
name = "Bold Italic";
paths = (
{
closed = 1;
nodes = (
"1077 774 LINE",
"1077 1040 LINE",
"102 1040 LINE",
"102 774 LINE"
);
},
{
closed = 1;
nodes = (
"1077 399 LINE",
"1077 670 LINE",
"102 670 LINE",
"102 399 LINE"
);
}
);
width = 1159;
}
);
unicode = 003D;
},
{
glyphname = greater;
lastChange = "2013-03-10 17:18:29 +0200";
layers = (
{
layerId = UUID0;
name = "Bold Italic";
paths = (
{
closed = 1;
nodes = (
"109 176 LINE",
"1081 627 LINE",
"1081 799 LINE",
"109 1307 LINE",
"109 1008 LINE",
"684 725 LINE",
"109 473 LINE"
);
}
);
width = 1159;
}
);
unicode = 003E;
},
{
glyphname = greaterequal;
lastChange = "2013-03-10 17:18:29 +0200";
layers = (
{
layerId = UUID0;
name = "Bold Italic";
paths = (
{
closed = 1;
nodes = (
"113 285 LINE",
"1087 733 LINE",
"1087 905 LINE",
"113 1413 LINE",
"113 1116 LINE",
"688 831 LINE",
"113 582 LINE"
);
},
{
closed = 1;
nodes = (
"1087 0 LINE",
"1087 270 LINE",
"113 270 LINE",
"113 0 LINE"
);
}
);
width = 1159;
}
);
unicode = 2265;
},
{
glyphname = integral;
lastChange = "2013-03-10 17:18:29 +0200";
layers = (
{
layerId = UUID0;
name = "Bold Italic";
paths = (
{
closed = 1;
nodes = (
"365 1556 OFFCURVE",
"219 1422 OFFCURVE",
"219 1167 CURVE SMOOTH",
"219 -68 LINE SMOOTH",
"219 -133 OFFCURVE",
"197 -168 OFFCURVE",
"133 -168 CURVE SMOOTH",
"98 -168 OFFCURVE",
"44 -152 OFFCURVE",
"-29 -119 CURVE",
"-29 -436 LINE",
"42 -473 OFFCURVE",
"120 -492 OFFCURVE",
"205 -492 CURVE SMOOTH",
"476 -492 OFFCURVE",
"616 -355 OFFCURVE",
"616 -102 CURVE SMOOTH",
"616 1130 LINE SMOOTH",
"616 1205 OFFCURVE",
"644 1233 OFFCURVE",
"700 1233 CURVE SMOOTH",
"733 1233 OFFCURVE",
"792 1217 OFFCURVE",
"877 1184 CURVE",
"877 1501 LINE",
"804 1538 OFFCURVE",
"724 1556 OFFCURVE",
"637 1556 CURVE SMOOTH"
);
}
);
width = 879;
}
);
unicode = 222B;
},
{
glyphname = less;
lastChange = "2013-03-10 17:18:29 +0200";
layers = (
{
layerId = UUID0;
name = "Bold Italic";
paths = (
{
closed = 1;
nodes = (
"1061 473 LINE",
"485 725 LINE",
"1061 1008 LINE",
"1061 1307 LINE",
"88 799 LINE",
"88 627 LINE",
"1061 176 LINE"
);
}
);
width = 1159;
}
);
unicode = 003C;
},
{
glyphname = lessequal;
lastChange = "2013-03-10 17:18:29 +0200";
layers = (
{
layerId = UUID0;
name = "Bold Italic";
paths = (
{
closed = 1;
nodes = (
"1061 582 LINE",
"485 831 LINE",
"1061 1114 LINE",
"1061 1413 LINE",
"86 905 LINE",
"86 733 LINE",
"1061 285 LINE"
);
},
{
closed = 1;
nodes = (
"1057 0 LINE",
"1057 270 LINE",
"82 270 LINE",
"82 0 LINE"
);
}
);
width = 1159;
}
);
unicode = 2264;
},
{
glyphname = logicalnot;
lastChange = "2013-03-10 17:18:29 +0200";
layers = (
{
layerId = UUID0;
name = "Bold Italic";
paths = (
{
closed = 1;
nodes = (
"82 858 LINE",
"82 586 LINE",
"786 586 LINE",
"786 238 LINE",
"1057 238 LINE",
"1057 858 LINE"
);
}
);
width = 1159;
}
);
unicode = 00AC;
},
{
glyphname = notequal;
lastChange = "2013-03-10 17:18:29 +0200";
layers = (
{
layerId = UUID0;
name = "Bold Italic";
paths = (
{
closed = 1;
nodes = (
"1087 358 LINE",
"1087 629 LINE",
"682 629 LINE",
"768 815 LINE",
"1087 815 LINE",
"1087 1083 LINE",
"891 1083 LINE",
"954 1214 LINE",
"707 1319 LINE",
"598 1083 LINE",
"72 1083 LINE",
"72 815 LINE",
"473 815 LINE",
"387 629 LINE",
"72 629 LINE",
"72 358 LINE",
"262 358 LINE",
"203 231 LINE",
"451 129 LINE",
"557 358 LINE"
);
}
);
width = 1159;
}
);
unicode = 2260;
},
{
glyphname = percent;
lastChange = "2013-03-10 17:18:29 +0200";
layers = (
{
layerId = UUID0;
name = "Bold Italic";
paths = (
{
closed = 1;
nodes = (
"1341 1462 LINE",
"252 0 LINE",
"549 0 LINE",
"1630 1462 LINE"
);
},
{
closed = 1;
nodes = (
"537 1241 OFFCURVE",
"551 1214 OFFCURVE",
"551 1157 CURVE SMOOTH",
"551 1071 OFFCURVE",
"538 991 OFFCURVE",
"513 917 CURVE SMOOTH",
"488 844 OFFCURVE",
"459 807 OFFCURVE",
"424 807 CURVE SMOOTH",
"389 807 OFFCURVE",
"371 835 OFFCURVE",
"371 891 CURVE SMOOTH",
"371 978 OFFCURVE",
"384 1058 OFFCURVE",
"409 1131 CURVE SMOOTH",
"435 1204 OFFCURVE",
"465 1241 OFFCURVE",
"498 1241 CURVE SMOOTH"
);
},
{
closed = 1;
nodes = (
"842 1262 OFFCURVE",
"814 1341 OFFCURVE",
"757 1398 CURVE SMOOTH",
"701 1455 OFFCURVE",
"624 1483 OFFCURVE",
"526 1483 CURVE",
"253 1489 OFFCURVE",
"78 1233 OFFCURVE",
"80 887 CURVE",
"80 680 OFFCURVE",
"185 565 OFFCURVE",
"397 565 CURVE SMOOTH",
"569 565 OFFCURVE",
"710 674 OFFCURVE",
"785 858 CURVE SMOOTH",
"823 950 OFFCURVE",
"842 1051 OFFCURVE",
"842 1161 CURVE SMOOTH"
);
},
{
closed = 1;
nodes = (
"1514 655 OFFCURVE",
"1528 630 OFFCURVE",
"1528 571 CURVE SMOOTH",
"1528 485 OFFCURVE",
"1515 405 OFFCURVE",
"1490 331 CURVE SMOOTH",
"1465 258 OFFCURVE",
"1436 221 OFFCURVE",
"1401 221 CURVE SMOOTH",
"1366 221 OFFCURVE",
"1348 249 OFFCURVE",
"1348 305 CURVE SMOOTH",
"1348 392 OFFCURVE",
"1361 472 OFFCURVE",
"1386 545 CURVE SMOOTH",
"1412 618 OFFCURVE",
"1442 655 OFFCURVE",
"1475 655 CURVE SMOOTH"
);
},
{
closed = 1;
nodes = (
"1819 676 OFFCURVE",
"1791 755 OFFCURVE",
"1734 812 CURVE SMOOTH",
"1678 869 OFFCURVE",
"1601 897 OFFCURVE",
"1503 897 CURVE",
"1230 903 OFFCURVE",
"1055 647 OFFCURVE",
"1057 301 CURVE",
"1057 94 OFFCURVE",
"1162 -20 OFFCURVE",
"1374 -20 CURVE SMOOTH",
"1546 -20 OFFCURVE",
"1688 89 OFFCURVE",
"1763 273 CURVE SMOOTH",
"1800 365 OFFCURVE",
"1819 466 OFFCURVE",
"1819 575 CURVE SMOOTH"
);
}
);
width = 1878;
}
);
unicode = 0025;
},
{
glyphname = perthousand;
lastChange = "2013-03-10 17:18:29 +0200";
layers = (
{
layerId = UUID0;
name = "Bold Italic";
paths = (
{
closed = 1;
nodes = (
"1341 1462 LINE",
"252 0 LINE",
"549 0 LINE",
"1630 1462 LINE"
);
},
{
closed = 1;
nodes = (
"537 1241 OFFCURVE",
"551 1214 OFFCURVE",
"551 1157 CURVE SMOOTH",
"551 1071 OFFCURVE",
"538 991 OFFCURVE",
"513 917 CURVE SMOOTH",
"488 844 OFFCURVE",
"459 807 OFFCURVE",
"424 807 CURVE SMOOTH",
"389 807 OFFCURVE",
"371 835 OFFCURVE",
"371 891 CURVE SMOOTH",
"371 978 OFFCURVE",
"384 1058 OFFCURVE",
"409 1131 CURVE SMOOTH",
"435 1204 OFFCURVE",
"465 1241 OFFCURVE",
"498 1241 CURVE SMOOTH"
);
},
{
closed = 1;
nodes = (
"842 1262 OFFCURVE",
"814 1341 OFFCURVE",
"757 1398 CURVE SMOOTH",
"701 1455 OFFCURVE",
"624 1483 OFFCURVE",
"526 1483 CURVE",
"253 1489 OFFCURVE",
"78 1233 OFFCURVE",
"80 887 CURVE",
"80 680 OFFCURVE",
"185 565 OFFCURVE",
"397 565 CURVE SMOOTH",
"569 565 OFFCURVE",
"710 674 OFFCURVE",
"785 858 CURVE SMOOTH",
"823 950 OFFCURVE",
"842 1051 OFFCURVE",
"842 1161 CURVE SMOOTH"
);
},
{
closed = 1;
nodes = (
"1514 655 OFFCURVE",
"1528 630 OFFCURVE",
"1528 571 CURVE SMOOTH",
"1528 485 OFFCURVE",
"1515 405 OFFCURVE",
"1490 331 CURVE SMOOTH",
"1465 258 OFFCURVE",
"1436 221 OFFCURVE",
"1401 221 CURVE SMOOTH",
"1366 221 OFFCURVE",
"1348 249 OFFCURVE",
"1348 305 CURVE SMOOTH",
"1348 392 OFFCURVE",
"1361 472 OFFCURVE",
"1386 545 CURVE SMOOTH",
"1412 618 OFFCURVE",
"1442 655 OFFCURVE",
"1475 655 CURVE SMOOTH"
);
},
{
closed = 1;
nodes = (
"1819 676 OFFCURVE",
"1791 755 OFFCURVE",
"1734 812 CURVE SMOOTH",
"1678 869 OFFCURVE",
"1601 897 OFFCURVE",
"1503 897 CURVE",
"1230 903 OFFCURVE",
"1055 647 OFFCURVE",
"1057 301 CURVE",
"1057 94 OFFCURVE",
"1162 -20 OFFCURVE",
"1374 -20 CURVE SMOOTH",
"1546 -20 OFFCURVE",
"1688 89 OFFCURVE",
"1763 273 CURVE SMOOTH",
"1800 365 OFFCURVE",
"1819 466 OFFCURVE",
"1819 575 CURVE SMOOTH"
);
},
{
closed = 1;
nodes = (
"2333 655 OFFCURVE",
"2347 630 OFFCURVE",
"2347 571 CURVE SMOOTH",
"2347 485 OFFCURVE",
"2334 405 OFFCURVE",
"2309 331 CURVE SMOOTH",
"2284 258 OFFCURVE",
"2255 221 OFFCURVE",
"2220 221 CURVE SMOOTH",
"2185 221 OFFCURVE",
"2167 249 OFFCURVE",
"2167 305 CURVE SMOOTH",
"2167 392 OFFCURVE",
"2180 472 OFFCURVE",
"2205 545 CURVE SMOOTH",
"2231 618 OFFCURVE",
"2261 655 OFFCURVE",
"2294 655 CURVE SMOOTH"
);
},
{
closed = 1;
nodes = (
"2638 676 OFFCURVE",
"2610 755 OFFCURVE",
"2553 812 CURVE SMOOTH",
"2497 869 OFFCURVE",
"2420 897 OFFCURVE",
"2322 897 CURVE",
"2049 903 OFFCURVE",
"1874 647 OFFCURVE",
"1876 301 CURVE",
"1876 94 OFFCURVE",
"1981 -20 OFFCURVE",
"2193 -20 CURVE SMOOTH",
"2365 -20 OFFCURVE",
"2507 89 OFFCURVE",
"2582 273 CURVE SMOOTH",
"2619 365 OFFCURVE",
"2638 466 OFFCURVE",
"2638 575 CURVE SMOOTH"
);
}
);
width = 2697;
}
);
unicode = 2030;
},
{
glyphname = plus;
lastChange = "2013-03-10 17:18:29 +0200";
layers = (
{
layerId = UUID0;
name = "Bold Italic";
paths = (
{
closed = 1;
nodes = (
"455 238 LINE",
"725 238 LINE",
"725 586 LINE",
"1077 586 LINE",
"1077 858 LINE",
"725 858 LINE",
"725 1210 LINE",
"455 1210 LINE",
"455 858 LINE",
"102 858 LINE",
"102 586 LINE",
"455 586 LINE"
);
}
);
width = 1159;
}
);
unicode = 002B;
},
{
glyphname = plusminus;
lastChange = "2013-03-10 17:18:29 +0200";
layers = (
{
layerId = UUID0;
name = "Bold Italic";
paths = (
{
closed = 1;
nodes = (
"455 344 LINE",
"725 344 LINE",
"725 694 LINE",
"1077 694 LINE",
"1077 965 LINE",
"725 965 LINE",
"725 1317 LINE",
"455 1317 LINE",
"455 965 LINE",
"102 965 LINE",
"102 694 LINE",
"455 694 LINE"
);
},
{
closed = 1;
nodes = (
"1077 0 LINE",
"1077 270 LINE",
"102 270 LINE",
"102 0 LINE"
);
}
);
width = 1159;
}
);
unicode = 00B1;
},
{
glyphname = ampersand;
lastChange = "2013-03-10 17:18:29 +0200";
layers = (
{
layerId = UUID0;
name = "Bold Italic";
paths = (
{
closed = 1;
nodes = (
"8 257 OFFCURVE",
"54 157 OFFCURVE",
"146 86 CURVE SMOOTH",
"238 15 OFFCURVE",
"365 -20 OFFCURVE",
"528 -20 CURVE SMOOTH",
"657 -20 OFFCURVE",
"774 7 OFFCURVE",
"877 61 CURVE",
"920 0 LINE",
"1362 0 LINE",
"1171 262 LINE",
"1314 407 OFFCURVE",
"1428 606 OFFCURVE",
"1489 821 CURVE",
"1106 821 LINE",
"1090 766 OFFCURVE",
"1069 712 OFFCURVE",
"1042 659 CURVE SMOOTH",
"1016 607 OFFCURVE",
"991 569 OFFCURVE",
"967 545 CURVE",
"838 731 LINE",
"959 794 OFFCURVE",
"1047 859 OFFCURVE",
"1100 928 CURVE SMOOTH",
"1153 997 OFFCURVE",
"1180 1074 OFFCURVE",
"1180 1161 CURVE SMOOTH",
"1180 1260 OFFCURVE",
"1142 1338 OFFCURVE",
"1066 1397 CURVE SMOOTH",
"991 1456 OFFCURVE",
"890 1485 OFFCURVE",
"764 1485 CURVE SMOOTH",
"611 1485 OFFCURVE",
"493 1448 OFFCURVE",
"409 1373 CURVE SMOOTH",
"325 1299 OFFCURVE",
"283 1196 OFFCURVE",
"283 1065 CURVE SMOOTH",
"283 1026 OFFCURVE",
"291 982 OFFCURVE",
"306 933 CURVE",
"322 885 OFFCURVE",
"342 846 OFFCURVE",
"367 815 CURVE",
"122 735 OFFCURVE",
"8 597 OFFCURVE",
"8 385 CURVE SMOOTH"
);
},
{
closed = 1;
nodes = (
"796 1221 OFFCURVE",
"827 1182 OFFCURVE",
"827 1135 CURVE SMOOTH",
"827 1056 OFFCURVE",
"782 989 OFFCURVE",
"686 948 CURVE",
"652 993 OFFCURVE",
"635 1041 OFFCURVE",
"635 1092 CURVE SMOOTH",
"635 1172 OFFCURVE",
"680 1221 OFFCURVE",
"745 1221 CURVE SMOOTH"
);
},
{
closed = 1;
nodes = (
"468 287 OFFCURVE",
"399 341 OFFCURVE",
"399 424 CURVE SMOOTH",
"399 501 OFFCURVE",
"438 557 OFFCURVE",
"516 592 CURVE",
"709 313 LINE",
"668 296 OFFCURVE",
"622 287 OFFCURVE",
"571 287 CURVE SMOOTH"
);
}
);
width = 1501;
}
);
unicode = 0026;
},
{
glyphname = asciicircum;
lastChange = "2013-03-10 17:18:29 +0200";
layers = (
{
layerId = UUID0;
name = "Bold Italic";
paths = (
{
closed = 1;
nodes = (
"291 502 LINE",
"651 1071 LINE",
"807 502 LINE",
"1081 502 LINE",
"797 1462 LINE",
"625 1462 LINE",
"-6 502 LINE"
);
}
);
width = 1096;
}
);
unicode = 005E;
},
{
glyphname = at;
lastChange = "2013-03-10 17:18:29 +0200";
layers = (
{
layerId = UUID0;
name = "Bold Italic";
paths = (
{
closed = 1;
nodes = (
"1774 1032 OFFCURVE",
"1707 1193 OFFCURVE",
"1574 1309 CURVE SMOOTH",
"1441 1425 OFFCURVE",
"1257 1483 OFFCURVE",
"1020 1483 CURVE SMOOTH",
"842 1483 OFFCURVE",
"680 1441 OFFCURVE",
"534 1358 CURVE SMOOTH",
"389 1275 OFFCURVE",
"277 1160 OFFCURVE",
"199 1011 CURVE SMOOTH",
"121 862 OFFCURVE",
"82 692 OFFCURVE",
"82 500 CURVE SMOOTH",
"82 363 OFFCURVE",
"111 242 OFFCURVE",
"168 137 CURVE SMOOTH",
"225 33 OFFCURVE",
"307 -47 OFFCURVE",
"412 -102 CURVE SMOOTH",
"518 -158 OFFCURVE",
"641 -186 OFFCURVE",
"780 -186 CURVE SMOOTH",
"859 -186 OFFCURVE",
"942 -177 OFFCURVE",
"1031 -158 CURVE SMOOTH",
"1120 -140 OFFCURVE",
"1195 -117 OFFCURVE",
"1255 -88 CURVE",
"1255 137 LINE",
"1179 107 OFFCURVE",
"1097 84 OFFCURVE",
"1010 67 CURVE SMOOTH",
"923 51 OFFCURVE",
"845 43 OFFCURVE",
"776 43 CURVE",
"527 40 OFFCURVE",
"340 235 OFFCURVE",
"344 524 CURVE",
"344 666 OFFCURVE",
"371 792 OFFCURVE",
"426 903 CURVE SMOOTH",
"481 1014 OFFCURVE",
"559 1100 OFFCURVE",
"658 1161 CURVE SMOOTH",
"758 1222 OFFCURVE",
"870 1253 OFFCURVE",
"995 1253 CURVE SMOOTH",
"1327 1253 OFFCURVE",
"1511 1105 OFFCURVE",
"1511 821 CURVE",
"1513 589 OFFCURVE",
"1411 424 OFFCURVE",
"1284 428 CURVE",
"1258 428 OFFCURVE",
"1245 442 OFFCURVE",
"1245 469 CURVE SMOOTH",
"1245 498 OFFCURVE",
"1253 543 OFFCURVE",
"1268 606 CURVE SMOOTH",
"1368 1020 LINE",
"1247 1067 OFFCURVE",
"1135 1090 OFFCURVE",
"1032 1090 CURVE SMOOTH",
"827 1090 OFFCURVE",
"658 991 OFFCURVE",
"559 806 CURVE SMOOTH",
"510 714 OFFCURVE",
"485 616 OFFCURVE",
"485 512 CURVE SMOOTH",
"485 420 OFFCURVE",
"510 346 OFFCURVE",
"559 290 CURVE SMOOTH",
"608 235 OFFCURVE",
"672 207 OFFCURVE",
"750 207 CURVE SMOOTH",
"874 207 OFFCURVE",
"954 249 OFFCURVE",
"1018 336 CURVE",
"1028 336 LINE",
"1061 250 OFFCURVE",
"1134 207 OFFCURVE",
"1247 207 CURVE SMOOTH",
"1344 207 OFFCURVE",
"1432 234 OFFCURVE",
"1513 288 CURVE SMOOTH",
"1594 342 OFFCURVE",
"1658 417 OFFCURVE",
"1704 513 CURVE SMOOTH",
"1751 609 OFFCURVE",
"1774 714 OFFCURVE",
"1774 827 CURVE SMOOTH"
);
},
{
closed = 1;
nodes = (
"1031 868 OFFCURVE",
"1048 865 OFFCURVE",
"1063 858 CURVE",
"1016 668 LINE",
"992 577 OFFCURVE",
"967 514 OFFCURVE",
"941 479 CURVE SMOOTH",
"916 445 OFFCURVE",
"883 428 OFFCURVE",
"842 428 CURVE SMOOTH",
"790 428 OFFCURVE",
"764 463 OFFCURVE",
"764 532 CURVE SMOOTH",
"764 587 OFFCURVE",
"775 640 OFFCURVE",
"796 693 CURVE SMOOTH",
"817 746 OFFCURVE",
"846 789 OFFCURVE",
"883 820 CURVE SMOOTH",
"920 852 OFFCURVE",
"963 868 OFFCURVE",
"1012 868 CURVE SMOOTH"
);
}
);
width = 1837;
}
);
unicode = 0040;
},
{
glyphname = bar;
lastChange = "2013-03-10 17:18:29 +0200";
layers = (
{
layerId = UUID0;
name = "Bold Italic";
paths = (
{
closed = 1;
nodes = (
"442 -465 LINE",
"713 -465 LINE",
"713 1548 LINE",
"442 1548 LINE"
);
}
);
width = 1159;
}
);
unicode = 007C;
},
{
glyphname = copyright;
lastChange = "2013-03-10 17:18:29 +0200";
layers = (
{
layerId = UUID0;
name = "Bold Italic";
paths = (
{
closed = 1;
nodes = (
"985 971 OFFCURVE",
"1059 951 OFFCURVE",
"1135 911 CURVE",
"1227 1116 LINE",
"1116 1171 OFFCURVE",
"1006 1198 OFFCURVE",
"895 1198 CURVE SMOOTH",
"757 1198 OFFCURVE",
"650 1157 OFFCURVE",
"574 1076 CURVE SMOOTH",
"499 995 OFFCURVE",
"461 882 OFFCURVE",
"461 735 CURVE SMOOTH",
"461 586 OFFCURVE",
"499 470 OFFCURVE",
"576 387 CURVE SMOOTH",
"653 304 OFFCURVE",
"763 262 OFFCURVE",
"905 262 CURVE SMOOTH",
"1003 262 OFFCURVE",
"1094 283 OFFCURVE",
"1178 326 CURVE",
"1178 557 LINE",
"1098 512 OFFCURVE",
"1012 489 OFFCURVE",
"920 489 CURVE SMOOTH",
"799 489 OFFCURVE",
"741 560 OFFCURVE",
"741 731 CURVE SMOOTH",
"741 888 OFFCURVE",
"806 971 OFFCURVE",
"913 971 CURVE SMOOTH"
);
},
{
closed = 1;
nodes = (
"113 599 OFFCURVE",
"146 475 OFFCURVE",
"211 359 CURVE SMOOTH",
"277 243 OFFCURVE",
"368 151 OFFCURVE",
"484 82 CURVE SMOOTH",
"600 14 OFFCURVE",
"727 -20 OFFCURVE",
"864 -20 CURVE SMOOTH",
"1003 -20 OFFCURVE",
"1130 15 OFFCURVE",
"1247 84 CURVE SMOOTH",
"1364 153 OFFCURVE",
"1454 246 OFFCURVE",
"1519 361 CURVE SMOOTH",
"1584 476 OFFCURVE",
"1616 600 OFFCURVE",
"1616 731 CURVE SMOOTH",
"1616 866 OFFCURVE",
"1582 991 OFFCURVE",
"1515 1108 CURVE SMOOTH",
"1448 1225 OFFCURVE",
"1356 1316 OFFCURVE",
"1239 1383 CURVE SMOOTH",
"1122 1450 OFFCURVE",
"997 1483 OFFCURVE",
"864 1483 CURVE SMOOTH",
"731 1483 OFFCURVE",
"606 1450 OFFCURVE",
"490 1384 CURVE SMOOTH",
"374 1318 OFFCURVE",
"282 1226 OFFCURVE",
"214 1109 CURVE SMOOTH",
"147 992 OFFCURVE",
"113 866 OFFCURVE",
"113 731 CURVE SMOOTH"
);
},
{
closed = 1;
nodes = (
"276 836 OFFCURVE",
"302 933 OFFCURVE",
"353 1024 CURVE SMOOTH",
"405 1115 OFFCURVE",
"477 1186 OFFCURVE",
"568 1239 CURVE SMOOTH",
"660 1292 OFFCURVE",
"759 1319 OFFCURVE",
"864 1319 CURVE SMOOTH",
"969 1319 OFFCURVE",
"1067 1293 OFFCURVE",
"1158 1240 CURVE SMOOTH",
"1249 1188 OFFCURVE",
"1321 1116 OFFCURVE",
"1373 1025 CURVE SMOOTH",
"1426 934 OFFCURVE",
"1452 836 OFFCURVE",
"1452 731 CURVE SMOOTH",
"1452 624 OFFCURVE",
"1425 525 OFFCURVE",
"1372 434 CURVE SMOOTH",
"1319 343 OFFCURVE",
"1248 272 OFFCURVE",
"1157 220 CURVE SMOOTH",
"1066 169 OFFCURVE",
"969 143 OFFCURVE",
"864 143 CURVE SMOOTH",
"759 143 OFFCURVE",
"660 169 OFFCURVE",
"569 222 CURVE SMOOTH",
"478 275 OFFCURVE",
"407 346 OFFCURVE",
"354 437 CURVE SMOOTH",
"302 528 OFFCURVE",
"276 626 OFFCURVE",
"276 731 CURVE SMOOTH"
);
}
);
width = 1688;
}
);
unicode = 00A9;
},
{
glyphname = dagger;
lastChange = "2013-03-10 17:18:29 +0200";
layers = (
{
layerId = UUID0;
name = "Bold Italic";
paths = (
{
closed = 1;
nodes = (
"1090 1169 LINE",
"1044 1164 OFFCURVE",
"961 1157 OFFCURVE",
"840 1149 CURVE",
"766 1143 LINE",
"907 1556 LINE",
"573 1556 LINE",
"541 1143 LINE",
"244 1169 LINE",
"182 883 LINE",
"370 899 LINE",
"487 909 LINE",
"242 0 LINE",
"575 0 LINE",
"717 913 LINE",
"1026 883 LINE"
);
}
);
width = 1110;
}
);
unicode = 2020;
},
{
glyphname = daggerdbl;
lastChange = "2013-03-10 17:18:29 +0200";
layers = (
{
layerId = UUID0;
name = "Bold Italic";
paths = (
{
closed = 1;
nodes = (
"731 786 LINE",
"723 950 LINE",
"1032 924 LINE",
"1094 1210 LINE",
"933 1196 LINE",
"770 1184 LINE",
"903 1556 LINE",
"569 1556 LINE",
"556 1372 LINE",
"543 1184 LINE",
"231 1210 LINE",
"172 924 LINE",
"496 950 LINE",
"414 786 LINE",
"420 606 LINE",
"109 633 LINE",
"47 346 LINE",
"170 358 LINE",
"371 373 LINE",
"238 0 LINE",
"571 0 LINE",
"586 185 LINE",
"598 373 LINE",
"909 346 LINE",
"969 633 LINE",
"897 625 OFFCURVE",
"844 621 OFFCURVE",
"809 620 CURVE SMOOTH",
"772 619 OFFCURVE",
"718 614 OFFCURVE",
"647 606 CURVE"
);
}
);
width = 1110;
}
);
unicode = 2021;
},
{
glyphname = degree;
lastChange = "2013-03-10 17:18:29 +0200";
layers = (
{
layerId = UUID0;
name = "Bold Italic";
paths = (
{
closed = 1;
nodes = (
"160 919 OFFCURVE",
"337 745 OFFCURVE",
"535 750 CURVE",
"600 750 OFFCURVE",
"661 766 OFFCURVE",
"718 798 CURVE SMOOTH",
"775 830 OFFCURVE",
"820 874 OFFCURVE",
"853 931 CURVE SMOOTH",
"886 988 OFFCURVE",
"903 1049 OFFCURVE",
"903 1114 CURVE SMOOTH",
"903 1178 OFFCURVE",
"887 1239 OFFCURVE",
"854 1296 CURVE SMOOTH",
"821 1354 OFFCURVE",
"776 1400 OFFCURVE",
"719 1433 CURVE SMOOTH",
"662 1466 OFFCURVE",
"600 1483 OFFCURVE",
"535 1483 CURVE",
"337 1488 OFFCURVE",
"160 1307 OFFCURVE",
"166 1114 CURVE"
);
},
{
closed = 1;
nodes = (
"403 1150 OFFCURVE",
"416 1181 OFFCURVE",
"441 1207 CURVE SMOOTH",
"467 1234 OFFCURVE",
"498 1247 OFFCURVE",
"535 1247 CURVE SMOOTH",
"571 1247 OFFCURVE",
"602 1234 OFFCURVE",
"627 1207 CURVE SMOOTH",
"653 1180 OFFCURVE",
"666 1149 OFFCURVE",
"666 1114 CURVE SMOOTH",
"666 1080 OFFCURVE",
"653 1050 OFFCURVE",
"626 1025 CURVE SMOOTH",
"600 1000 OFFCURVE",
"570 987 OFFCURVE",
"535 987 CURVE SMOOTH",
"500 987 OFFCURVE",
"469 1000 OFFCURVE",
"442 1025 CURVE SMOOTH",
"416 1050 OFFCURVE",
"403 1080 OFFCURVE",
"403 1114 CURVE SMOOTH"
);
}
);
width = 864;
}
);
unicode = 00B0;
},
{
glyphname = paragraph;
lastChange = "2013-03-10 17:18:29 +0200";
layers = (
{
layerId = UUID0;
name = "Bold Italic";
paths = (
{
closed = 1;
nodes = (
"1186 1556 LINE",
"553 1556 LINE SMOOTH",
"238 1556 OFFCURVE",
"102 1383 OFFCURVE",
"102 1042 CURVE SMOOTH",
"102 707 OFFCURVE",
"234 541 OFFCURVE",
"522 541 CURVE SMOOTH",
"569 541 OFFCURVE",
"611 547 OFFCURVE",
"647 559 CURVE",
"647 -260 LINE",
"838 -260 LINE",
"838 1327 LINE",
"995 1327 LINE",
"995 -260 LINE",
"1186 -260 LINE"
);
}
);
width = 1317;
}
);
unicode = 00B6;
},
{
glyphname = registered;
lastChange = "2013-03-10 17:18:29 +0200";
layers = (
{
layerId = UUID0;
name = "Bold Italic";
paths = (
{
closed = 1;
nodes = (
"1245 1090 OFFCURVE",
"1110 1188 OFFCURVE",
"825 1188 CURVE SMOOTH",
"535 1188 LINE",
"535 313 LINE",
"815 313 LINE",
"815 633 LINE",
"827 633 LINE",
"987 313 LINE",
"1272 313 LINE",
"1061 668 LINE",
"1188 715 OFFCURVE",
"1245 797 OFFCURVE",
"1245 918 CURVE SMOOTH"
);
},
{
closed = 1;
nodes = (
"815 993 LINE",
"823 993 LINE SMOOTH",
"915 993 OFFCURVE",
"963 979 OFFCURVE",
"963 907 CURVE SMOOTH",
"963 835 OFFCURVE",
"929 809 OFFCURVE",
"825 809 CURVE SMOOTH",
"815 809 LINE"
);
},
{
closed = 1;
nodes = (
"113 599 OFFCURVE",
"146 475 OFFCURVE",
"211 359 CURVE SMOOTH",
"277 243 OFFCURVE",
"368 151 OFFCURVE",
"484 82 CURVE SMOOTH",
"600 14 OFFCURVE",
"727 -20 OFFCURVE",
"864 -20 CURVE SMOOTH",
"1003 -20 OFFCURVE",
"1130 15 OFFCURVE",
"1247 84 CURVE SMOOTH",
"1364 153 OFFCURVE",
"1454 246 OFFCURVE",
"1519 361 CURVE SMOOTH",
"1584 476 OFFCURVE",
"1616 600 OFFCURVE",
"1616 731 CURVE SMOOTH",
"1616 866 OFFCURVE",
"1582 991 OFFCURVE",
"1515 1108 CURVE SMOOTH",
"1448 1225 OFFCURVE",
"1356 1316 OFFCURVE",
"1239 1383 CURVE SMOOTH",
"1122 1450 OFFCURVE",
"997 1483 OFFCURVE",
"864 1483 CURVE SMOOTH",
"731 1483 OFFCURVE",
"606 1450 OFFCURVE",
"490 1384 CURVE SMOOTH",
"374 1318 OFFCURVE",
"282 1226 OFFCURVE",
"214 1109 CURVE SMOOTH",
"147 992 OFFCURVE",
"113 866 OFFCURVE",
"113 731 CURVE SMOOTH"
);
},
{
closed = 1;
nodes = (
"276 836 OFFCURVE",
"302 933 OFFCURVE",
"353 1024 CURVE SMOOTH",
"405 1115 OFFCURVE",
"477 1186 OFFCURVE",
"568 1239 CURVE SMOOTH",
"660 1292 OFFCURVE",
"759 1319 OFFCURVE",
"864 1319 CURVE SMOOTH",
"969 1319 OFFCURVE",
"1067 1293 OFFCURVE",
"1158 1240 CURVE SMOOTH",
"1249 1188 OFFCURVE",
"1321 1116 OFFCURVE",
"1373 1025 CURVE SMOOTH",
"1426 934 OFFCURVE",
"1452 836 OFFCURVE",
"1452 731 CURVE SMOOTH",
"1452 624 OFFCURVE",
"1425 525 OFFCURVE",
"1372 434 CURVE SMOOTH",
"1319 343 OFFCURVE",
"1248 272 OFFCURVE",
"1157 220 CURVE SMOOTH",
"1066 169 OFFCURVE",
"969 143 OFFCURVE",
"864 143 CURVE SMOOTH",
"759 143 OFFCURVE",
"660 169 OFFCURVE",
"569 222 CURVE SMOOTH",
"478 275 OFFCURVE",
"407 346 OFFCURVE",
"354 437 CURVE SMOOTH",
"302 528 OFFCURVE",
"276 626 OFFCURVE",
"276 731 CURVE SMOOTH"
);
}
);
width = 1688;
}
);
unicode = 00AE;
},
{
glyphname = section;
lastChange = "2013-03-10 17:18:29 +0200";
layers = (
{
layerId = UUID0;
name = "Bold Italic";
paths = (
{
closed = 1;
nodes = (
"158 647 OFFCURVE",
"237 541 OFFCURVE",
"410 446 CURVE SMOOTH",
"507 393 OFFCURVE",
"545 354 OFFCURVE",
"545 303 CURVE SMOOTH",
"545 240 OFFCURVE",
"487 199 OFFCURVE",
"395 199 CURVE SMOOTH",
"266 199 OFFCURVE",
"150 250 OFFCURVE",
"37 319 CURVE",
"37 70 LINE",
"112 11 OFFCURVE",
"230 -25 OFFCURVE",
"377 -25 CURVE SMOOTH",
"685 -25 OFFCURVE",
"862 99 OFFCURVE",
"862 326 CURVE SMOOTH",
"862 402 OFFCURVE",
"836 475 OFFCURVE",
"793 526 CURVE",
"916 595 OFFCURVE",
"961 689 OFFCURVE",
"961 821 CURVE SMOOTH",
"961 954 OFFCURVE",
"880 1058 OFFCURVE",
"717 1133 CURVE",
"602 1190 OFFCURVE",
"568 1214 OFFCURVE",
"567 1278 CURVE SMOOTH",
"567 1317 OFFCURVE",
"598 1352 OFFCURVE",
"678 1352 CURVE SMOOTH",
"721 1352 OFFCURVE",
"766 1345 OFFCURVE",
"811 1330 CURVE",
"857 1316 OFFCURVE",
"910 1290 OFFCURVE",
"971 1251 CURVE",
"1071 1475 LINE",
"954 1543 OFFCURVE",
"834 1577 OFFCURVE",
"711 1577 CURVE SMOOTH",
"414 1577 OFFCURVE",
"256 1462 OFFCURVE",
"256 1249 CURVE SMOOTH",
"256 1181 OFFCURVE",
"285 1108 OFFCURVE",
"336 1057 CURVE",
"221 986 OFFCURVE",
"158 888 OFFCURVE",
"158 776 CURVE SMOOTH"
);
},
{
closed = 1;
nodes = (
"632 895 OFFCURVE",
"678 842 OFFCURVE",
"678 770 CURVE SMOOTH",
"678 719 OFFCURVE",
"653 677 OFFCURVE",
"604 643 CURVE",
"487 708 OFFCURVE",
"442 760 OFFCURVE",
"442 817 CURVE SMOOTH",
"442 862 OFFCURVE",
"475 915 OFFCURVE",
"524 940 CURVE"
);
}
);
width = 1036;
}
);
unicode = 00A7;
},
{
glyphname = trademark;
lastChange = "2013-03-10 17:18:29 +0200";
layers = (
{
layerId = UUID0;
name = "Bold Italic";
paths = (
{
closed = 1;
nodes = (
"469 1286 LINE",
"639 1286 LINE",
"639 1462 LINE",
"102 1462 LINE",
"102 1286 LINE",
"272 1286 LINE",
"272 741 LINE",
"469 741 LINE"
);
},
{
closed = 1;
nodes = (
"1212 741 LINE",
"1364 1251 LINE",
"1372 1251 LINE",
"1368 1227 OFFCURVE",
"1366 1190 OFFCURVE",
"1366 1141 CURVE SMOOTH",
"1366 741 LINE",
"1561 741 LINE",
"1561 1462 LINE",
"1284 1462 LINE",
"1135 983 LINE",
"997 1462 LINE",
"711 1462 LINE",
"711 741 LINE",
"903 741 LINE",
"903 1141 LINE SMOOTH",
"903 1172 OFFCURVE",
"901 1208 OFFCURVE",
"897 1251 CURVE",
"905 1251 LINE",
"1049 741 LINE"
);
}
);
width = 1577;
}
);
unicode = 2122;
},
{
glyphname = acute;
lastChange = "2013-03-10 17:18:29 +0200";
layers = (
{
layerId = UUID0;
name = "Bold Italic";
paths = (
{
closed = 1;
nodes = (
"453 1241 LINE",
"737 1241 LINE",
"803 1276 OFFCURVE",
"885 1328 OFFCURVE",
"982 1397 CURVE SMOOTH",
"1080 1466 OFFCURVE",
"1144 1518 OFFCURVE",
"1174 1554 CURVE",
"1174 1569 LINE",
"735 1569 LINE",
"629 1434 OFFCURVE",
"535 1332 OFFCURVE",
"453 1264 CURVE"
);
}
);
width = 1135;
}
);
unicode = 00B4;
},
{
glyphname = breve;
lastChange = "2013-03-10 17:18:29 +0200";
layers = (
{
layerId = UUID0;
name = "Bold Italic";
paths = (
{
closed = 1;
nodes = (
"989 1612 LINE",
"961 1527 OFFCURVE",
"901 1483 OFFCURVE",
"788 1483 CURVE SMOOTH",
"689 1483 OFFCURVE",
"625 1525 OFFCURVE",
"625 1612 CURVE",
"408 1612 LINE",
"402 1600 OFFCURVE",
"399 1581 OFFCURVE",
"399 1556 CURVE SMOOTH",
"399 1457 OFFCURVE",
"431 1380 OFFCURVE",
"494 1324 CURVE SMOOTH",
"557 1269 OFFCURVE",
"645 1241 OFFCURVE",
"756 1241 CURVE SMOOTH",
"1021 1241 OFFCURVE",
"1169 1361 OFFCURVE",
"1210 1612 CURVE"
);
}
);
width = 1135;
}
);
unicode = 02D8;
},
{
glyphname = caron;
lastChange = "2013-03-10 17:18:29 +0200";
layers = (
{
layerId = UUID0;
name = "Bold Italic";
paths = (
{
closed = 1;
nodes = (
"322 1546 LINE",
"346 1515 OFFCURVE",
"377 1468 OFFCURVE",
"414 1405 CURVE",
"452 1343 OFFCURVE",
"481 1288 OFFCURVE",
"502 1241 CURVE",
"948 1241 LINE",
"1064 1368 OFFCURVE",
"1167 1470 OFFCURVE",
"1257 1546 CURVE",
"1257 1569 LINE",
"983 1569 LINE",
"916 1526 OFFCURVE",
"836 1468 OFFCURVE",
"743 1395 CURVE",
"668 1486 OFFCURVE",
"617 1544 OFFCURVE",
"588 1569 CURVE",
"322 1569 LINE"
);
}
);
width = 1135;
}
);
unicode = 02C7;
},
{
glyphname = cedilla;
lastChange = "2013-03-10 17:18:29 +0200";
layers = (
{
layerId = UUID0;
name = "Bold Italic";
paths = (
{
closed = 1;
nodes = (
"287 -131 OFFCURVE",
"228 -66 OFFCURVE",
"109 -41 CURVE",
"133 0 LINE",
"-72 0 LINE",
"-147 -135 LINE",
"-50 -154 OFFCURVE",
"-2 -187 OFFCURVE",
"-2 -236 CURVE SMOOTH",
"-2 -269 OFFCURVE",
"-25 -285 OFFCURVE",
"-70 -285 CURVE SMOOTH",
"-86 -285 OFFCURVE",
"-110 -282 OFFCURVE",
"-142 -276 CURVE SMOOTH",
"-175 -270 OFFCURVE",
"-201 -264 OFFCURVE",
"-221 -258 CURVE",
"-221 -463 LINE",
"-170 -482 OFFCURVE",
"-106 -492 OFFCURVE",
"-29 -492 CURVE SMOOTH",
"172 -492 OFFCURVE",
"287 -397 OFFCURVE",
"287 -236 CURVE SMOOTH"
);
}
);
width = 383;
}
);
unicode = 00B8;
},
{
glyphname = circumflex;
lastChange = "2013-03-10 17:18:29 +0200";
layers = (
{
layerId = UUID0;
name = "Bold Italic";
paths = (
{
closed = 1;
nodes = (
"1190 1264 LINE",
"1157 1307 OFFCURVE",
"1123 1359 OFFCURVE",
"1088 1419 CURVE SMOOTH",
"1053 1480 OFFCURVE",
"1027 1530 OFFCURVE",
"1010 1569 CURVE",
"563 1569 LINE",
"531 1534 OFFCURVE",
"485 1487 OFFCURVE",
"424 1426 CURVE SMOOTH",
"363 1366 OFFCURVE",
"307 1312 OFFCURVE",
"254 1264 CURVE",
"254 1241 LINE",
"528 1241 LINE",
"595 1284 OFFCURVE",
"675 1342 OFFCURVE",
"768 1415 CURVE",
"841 1326 OFFCURVE",
"893 1268 OFFCURVE",
"924 1241 CURVE",
"1190 1241 LINE"
);
}
);
width = 1135;
}
);
unicode = 02C6;
},
{
glyphname = dieresis;
lastChange = "2013-03-10 17:18:29 +0200";
layers = (
{
layerId = UUID0;
name = "Bold Italic";
paths = (
{
closed = 1;
nodes = (
"336 1297 OFFCURVE",
"389 1257 OFFCURVE",
"506 1257 CURVE SMOOTH",
"640 1257 OFFCURVE",
"707 1320 OFFCURVE",
"707 1446 CURVE SMOOTH",
"707 1529 OFFCURVE",
"650 1571 OFFCURVE",
"537 1571 CURVE SMOOTH",
"403 1571 OFFCURVE",
"336 1509 OFFCURVE",
"336 1384 CURVE SMOOTH"
);
},
{
closed = 1;
nodes = (
"823 1297 OFFCURVE",
"876 1257 OFFCURVE",
"993 1257 CURVE SMOOTH",
"1126 1257 OFFCURVE",
"1192 1317 OFFCURVE",
"1192 1446 CURVE SMOOTH",
"1192 1529 OFFCURVE",
"1136 1571 OFFCURVE",
"1024 1571 CURVE SMOOTH",
"890 1571 OFFCURVE",
"823 1509 OFFCURVE",
"823 1384 CURVE SMOOTH"
);
}
);
width = 1135;
}
);
unicode = 00A8;
},
{
glyphname = dotaccent;
lastChange = "2013-03-10 17:18:29 +0200";
layers = (
{
layerId = UUID0;
name = "Bold Italic";
paths = (
{
closed = 1;
nodes = (
"319 1289 OFFCURVE",
"377 1241 OFFCURVE",
"510 1241 CURVE SMOOTH",
"661 1241 OFFCURVE",
"737 1311 OFFCURVE",
"737 1450 CURVE SMOOTH",
"737 1541 OFFCURVE",
"674 1591 OFFCURVE",
"547 1591 CURVE SMOOTH",
"395 1591 OFFCURVE",
"319 1521 OFFCURVE",
"319 1382 CURVE SMOOTH"
);
}
);
width = 680;
}
);
unicode = 02D9;
},
{
glyphname = grave;
lastChange = "2013-03-10 17:18:29 +0200";
layers = (
{
layerId = UUID0;
name = "Bold Italic";
paths = (
{
closed = 1;
nodes = (
"975 1266 LINE",
"932 1363 OFFCURVE",
"900 1464 OFFCURVE",
"881 1569 CURVE",
"485 1569 LINE",
"485 1548 LINE",
"506 1505 OFFCURVE",
"540 1456 OFFCURVE",
"587 1400 CURVE SMOOTH",
"634 1344 OFFCURVE",
"684 1291 OFFCURVE",
"739 1241 CURVE",
"975 1241 LINE"
);
}
);
width = 1135;
}
);
unicode = 0060;
},
{
glyphname = hungarumlaut;
lastChange = "2013-03-10 17:18:29 +0200";
layers = (
{
layerId = UUID0;
name = "Bold Italic";
paths = (
{
closed = 1;
nodes = (
"414 1241 LINE",
"642 1399 OFFCURVE",
"770 1501 OFFCURVE",
"799 1548 CURVE",
"799 1569 LINE",
"428 1569 LINE",
"405 1529 OFFCURVE",
"371 1478 OFFCURVE",
"324 1416 CURVE SMOOTH",
"278 1354 OFFCURVE",
"240 1305 OFFCURVE",
"211 1270 CURVE",
"211 1241 LINE"
);
},
{
closed = 1;
nodes = (
"877 1241 LINE",
"1095 1392 OFFCURVE",
"1220 1494 OFFCURVE",
"1253 1548 CURVE",
"1253 1569 LINE",
"881 1569 LINE",
"853 1518 OFFCURVE",
"800 1440 OFFCURVE",
"723 1337 CURVE SMOOTH",
"674 1270 LINE",
"674 1241 LINE"
);
}
);
width = 1135;
}
);
unicode = 02DD;
},
{
glyphname = ogonek;
lastChange = "2013-03-10 17:18:29 +0200";
layers = (
{
layerId = UUID0;
name = "Bold Italic";
paths = (
{
closed = 1;
nodes = (
"27 0 LINE",
"-129 -101 OFFCURVE",
"-190 -193 OFFCURVE",
"-190 -309 CURVE SMOOTH",
"-190 -372 OFFCURVE",
"-167 -424 OFFCURVE",
"-122 -464 CURVE SMOOTH",
"-77 -504 OFFCURVE",
"-16 -524 OFFCURVE",
"59 -524 CURVE SMOOTH",
"129 -524 OFFCURVE",
"195 -514 OFFCURVE",
"258 -494 CURVE",
"258 -272 LINE",
"211 -289 OFFCURVE",
"172 -297 OFFCURVE",
"141 -297 CURVE SMOOTH",
"106 -297 OFFCURVE",
"88 -273 OFFCURVE",
"88 -246 CURVE SMOOTH",
"88 -201 OFFCURVE",
"111 -158 OFFCURVE",
"151 -113 CURVE",
"172 -91 OFFCURVE",
"214 -53 OFFCURVE",
"279 0 CURVE"
);
}
);
width = 453;
}
);
unicode = 02DB;
},
{
glyphname = ring;
lastChange = "2013-03-10 17:18:29 +0200";
layers = (
{
layerId = UUID0;
name = "Bold Italic";
paths = (
{
closed = 1;
nodes = (
"1059 1565 OFFCURVE",
"1034 1625 OFFCURVE",
"984 1672 CURVE SMOOTH",
"934 1719 OFFCURVE",
"870 1743 OFFCURVE",
"791 1743 CURVE SMOOTH",
"710 1743 OFFCURVE",
"644 1720 OFFCURVE",
"595 1673 CURVE SMOOTH",
"546 1626 OFFCURVE",
"522 1565 OFFCURVE",
"522 1489 CURVE SMOOTH",
"522 1412 OFFCURVE",
"547 1351 OFFCURVE",
"596 1305 CURVE SMOOTH",
"645 1260 OFFCURVE",
"710 1237 OFFCURVE",
"791 1237 CURVE SMOOTH",
"870 1237 OFFCURVE",
"935 1260 OFFCURVE",
"984 1307 CURVE SMOOTH",
"1034 1354 OFFCURVE",
"1059 1416 OFFCURVE",
"1059 1491 CURVE SMOOTH"
);
},
{
closed = 1;
nodes = (
"879 1444 OFFCURVE",
"843 1405 OFFCURVE",
"791 1405 CURVE SMOOTH",
"735 1405 OFFCURVE",
"702 1440 OFFCURVE",
"702 1489 CURVE SMOOTH",
"702 1540 OFFCURVE",
"743 1575 OFFCURVE",
"791 1575 CURVE SMOOTH",
"838 1575 OFFCURVE",
"879 1540 OFFCURVE",
"879 1489 CURVE SMOOTH"
);
}
);
width = 1182;
}
);
unicode = 02DA;
},
{
glyphname = tilde;
lastChange = "2013-03-10 17:18:29 +0200";
layers = (
{
layerId = UUID0;
name = "Bold Italic";
paths = (
{
closed = 1;
nodes = (
"1058 1239 OFFCURVE",
"1161 1352 OFFCURVE",
"1206 1581 CURVE",
"1016 1581 LINE",
"991 1514 OFFCURVE",
"953 1481 OFFCURVE",
"901 1481 CURVE SMOOTH",
"858 1481 OFFCURVE",
"809 1507 OFFCURVE",
"768 1530 CURVE",
"722 1554 OFFCURVE",
"690 1568 OFFCURVE",
"673 1572 CURVE SMOOTH",
"656 1577 OFFCURVE",
"637 1579 OFFCURVE",
"614 1579 CURVE SMOOTH",
"443 1579 OFFCURVE",
"344 1466 OFFCURVE",
"301 1237 CURVE",
"489 1237 LINE",
"498 1298 OFFCURVE",
"545 1337 OFFCURVE",
"586 1337 CURVE SMOOTH",
"622 1337 OFFCURVE",
"664 1322 OFFCURVE",
"713 1292 CURVE",
"748 1273 OFFCURVE",
"822 1236 OFFCURVE",
"885 1239 CURVE"
);
}
);
width = 1135;
}
);
unicode = 02DC;
},
{
glyphname = "sheva-hb";
lastChange = "2013-03-10 17:20:24 +0200";
layers = (
{
anchors = (
{
name = _bottom;
position = "{665, -140}";
},
{
name = bottom_1;
position = "{160, -47}";
},
{
name = bottom_2;
position = "{160, -47}";
},
{
name = top_1;
position = "{160, -47}";
},
{
name = top_2;
position = "{160, -47}";
}
);
layerId = UUID0;
name = "Bold Italic";
paths = (
{
closed = 1;
nodes = (
"617 -101 OFFCURVE",
"574 -134 OFFCURVE",
"563 -188 CURVE SMOOTH",
"551 -242 OFFCURVE",
"580 -274 OFFCURVE",
"638 -274 CURVE SMOOTH",
"695 -274 OFFCURVE",
"738 -241 OFFCURVE",
"750 -188 CURVE SMOOTH",
"761 -135 OFFCURVE",
"732 -101 OFFCURVE",
"675 -101 CURVE SMOOTH"
);
},
{
closed = 1;
nodes = (
"566 -342 OFFCURVE",
"523 -375 OFFCURVE",
"511 -429 CURVE SMOOTH",
"500 -483 OFFCURVE",
"529 -515 OFFCURVE",
"587 -515 CURVE SMOOTH",
"644 -515 OFFCURVE",
"687 -481 OFFCURVE",
"698 -429 CURVE SMOOTH",
"710 -376 OFFCURVE",
"681 -342 OFFCURVE",
"624 -342 CURVE SMOOTH"
);
}
);
width = 1256;
}
);
unicode = 05B0;
},
{
glyphname = "hatafsegol-hb";
lastChange = "2013-03-10 17:20:24 +0200";
layers = (
{
anchors = (
{
name = _bottom;
position = "{669, -147}";
}
);
layerId = UUID0;
name = "Bold Italic";
paths = (
{
closed = 1;
nodes = (
"660 -116 OFFCURVE",
"618 -149 OFFCURVE",
"607 -203 CURVE SMOOTH",
"595 -257 OFFCURVE",
"622 -289 OFFCURVE",
"682 -289 CURVE SMOOTH",
"739 -289 OFFCURVE",
"784 -256 OFFCURVE",
"796 -203 CURVE SMOOTH",
"807 -151 OFFCURVE",
"776 -116 OFFCURVE",
"719 -116 CURVE SMOOTH"
);
},
{
closed = 1;
nodes = (
"465 -357 OFFCURVE",
"423 -390 OFFCURVE",
"411 -444 CURVE SMOOTH",
"400 -498 OFFCURVE",
"428 -530 OFFCURVE",
"486 -530 CURVE SMOOTH",
"543 -530 OFFCURVE",
"586 -496 OFFCURVE",
"597 -444 CURVE SMOOTH",
"609 -391 OFFCURVE",
"580 -357 OFFCURVE",
"523 -357 CURVE SMOOTH"
);
},
{
closed = 1;
nodes = (
"365 -116 OFFCURVE",
"322 -149 OFFCURVE",
"311 -203 CURVE SMOOTH",
"299 -257 OFFCURVE",
"328 -289 OFFCURVE",
"385 -289 CURVE SMOOTH",
"443 -289 OFFCURVE",
"486 -256 OFFCURVE",
"498 -203 CURVE SMOOTH",
"509 -150 OFFCURVE",
"480 -116 OFFCURVE",
"422 -116 CURVE SMOOTH"
);
},
{
closed = 1;
nodes = (
"876 -357 OFFCURVE",
"833 -390 OFFCURVE",
"821 -444 CURVE SMOOTH",
"810 -498 OFFCURVE",
"839 -530 OFFCURVE",
"897 -530 CURVE SMOOTH",
"954 -530 OFFCURVE",
"997 -496 OFFCURVE",
"1008 -444 CURVE SMOOTH",
"1020 -391 OFFCURVE",
"991 -357 OFFCURVE",
"934 -357 CURVE SMOOTH"
);
},
{
closed = 1;
nodes = (
"927 -116 OFFCURVE",
"884 -149 OFFCURVE",
"873 -203 CURVE SMOOTH",
"861 -257 OFFCURVE",
"890 -289 OFFCURVE",
"948 -289 CURVE SMOOTH",
"1005 -289 OFFCURVE",
"1048 -256 OFFCURVE",
"1060 -203 CURVE SMOOTH",
"1071 -150 OFFCURVE",
"1042 -116 OFFCURVE",
"985 -116 CURVE SMOOTH"
);
}
);
width = 1256;
}
);
unicode = 05B1;
},
{
glyphname = "hatafpatah-hb";
lastChange = "2013-03-10 17:20:24 +0200";
layers = (
{
anchors = (
{
name = _bottom;
position = "{672, -147}";
}
);
layerId = UUID0;
name = "Bold Italic";
paths = (
{
closed = 1;
nodes = (
"389 -142 LINE",
"365 -259 LINE",
"732 -259 LINE",
"756 -142 LINE"
);
},
{
closed = 1;
nodes = (
"831 -357 OFFCURVE",
"789 -390 OFFCURVE",
"777 -444 CURVE SMOOTH",
"766 -498 OFFCURVE",
"794 -530 OFFCURVE",
"852 -530 CURVE SMOOTH",
"909 -530 OFFCURVE",
"952 -496 OFFCURVE",
"963 -444 CURVE SMOOTH",
"975 -391 OFFCURVE",
"946 -357 OFFCURVE",
"889 -357 CURVE SMOOTH"
);
},
{
closed = 1;
nodes = (
"882 -116 OFFCURVE",
"840 -149 OFFCURVE",
"829 -203 CURVE SMOOTH",
"817 -257 OFFCURVE",
"845 -289 OFFCURVE",
"903 -289 CURVE SMOOTH",
"960 -289 OFFCURVE",
"1003 -256 OFFCURVE",
"1015 -203 CURVE SMOOTH",
"1026 -150 OFFCURVE",
"997 -116 OFFCURVE",
"940 -116 CURVE SMOOTH"
);
}
);
width = 1256;
}
);
unicode = 05B2;
},
{
glyphname = "hatafqamats-hb";
lastChange = "2013-03-10 17:20:24 +0200";
layers = (
{
anchors = (
{
name = _bottom;
position = "{672, -147}";
}
);
layerId = UUID0;
name = "Bold Italic";
paths = (
{
closed = 1;
nodes = (
"389 -142 LINE",
"365 -259 LINE",
"493 -259 LINE",
"450 -461 LINE",
"561 -461 LINE",
"604 -259 LINE",
"732 -259 LINE",
"756 -142 LINE"
);
},
{
closed = 1;
nodes = (
"835 -357 OFFCURVE",
"792 -390 OFFCURVE",
"780 -444 CURVE SMOOTH",
"769 -498 OFFCURVE",
"798 -530 OFFCURVE",
"856 -530 CURVE SMOOTH",
"913 -530 OFFCURVE",
"956 -496 OFFCURVE",
"967 -444 CURVE SMOOTH",
"979 -391 OFFCURVE",
"950 -357 OFFCURVE",
"893 -357 CURVE SMOOTH"
);
},
{
closed = 1;
nodes = (
"886 -116 OFFCURVE",
"843 -149 OFFCURVE",
"832 -203 CURVE SMOOTH",
"820 -257 OFFCURVE",
"849 -289 OFFCURVE",
"907 -289 CURVE SMOOTH",
"964 -289 OFFCURVE",
"1007 -256 OFFCURVE",
"1019 -203 CURVE SMOOTH",
"1030 -150 OFFCURVE",
"1001 -116 OFFCURVE",
"944 -116 CURVE SMOOTH"
);
}
);
width = 1256;
}
);
unicode = 05B3;
},
{
glyphname = "hiriq-hb";
lastChange = "2013-03-10 17:20:24 +0200";
layers = (
{
anchors = (
{
name = _bottom;
position = "{643, -126}";
}
);
layerId = UUID0;
name = "Bold Italic";
paths = (
{
closed = 1;
nodes = (
"587 -111 OFFCURVE",
"545 -144 OFFCURVE",
"534 -198 CURVE SMOOTH",
"522 -252 OFFCURVE",
"550 -284 OFFCURVE",
"610 -284 CURVE SMOOTH",
"668 -284 OFFCURVE",
"712 -250 OFFCURVE",
"723 -198 CURVE SMOOTH",
"734 -146 OFFCURVE",
"704 -111 OFFCURVE",
"646 -111 CURVE SMOOTH"
);
}
);
width = 1256;
}
);
unicode = 05B4;
},
{
glyphname = "tsere-hb";
lastChange = "2013-03-10 17:20:24 +0200";
layers = (
{
anchors = (
{
name = _bottom;
position = "{640, -123}";
}
);
layerId = UUID0;
name = "Bold Italic";
paths = (
{
closed = 1;
nodes = (
"735 -92 OFFCURVE",
"693 -125 OFFCURVE",
"682 -179 CURVE SMOOTH",
"670 -233 OFFCURVE",
"699 -265 OFFCURVE",
"759 -265 CURVE SMOOTH",
"816 -265 OFFCURVE",
"861 -231 OFFCURVE",
"872 -179 CURVE SMOOTH",
"883 -127 OFFCURVE",
"852 -92 OFFCURVE",
"795 -92 CURVE SMOOTH"
);
},
{
closed = 1;
nodes = (
"440 -92 OFFCURVE",
"398 -125 OFFCURVE",
"387 -179 CURVE SMOOTH",
"375 -233 OFFCURVE",
"404 -265 OFFCURVE",
"462 -265 CURVE SMOOTH",
"519 -265 OFFCURVE",
"562 -231 OFFCURVE",
"573 -179 CURVE SMOOTH",
"584 -126 OFFCURVE",
"555 -92 OFFCURVE",
"498 -92 CURVE SMOOTH"
);
}
);
width = 1256;
}
);
unicode = 05B5;
},
{
glyphname = "segol-hb";
lastChange = "2013-03-10 17:20:24 +0200";
layers = (
{
anchors = (
{
name = _bottom;
position = "{673, -112}";
}
);
layerId = UUID0;
name = "Bold Italic";
paths = (
{
closed = 1;
nodes = (
"761 -116 OFFCURVE",
"719 -149 OFFCURVE",
"708 -203 CURVE SMOOTH",
"696 -257 OFFCURVE",
"724 -289 OFFCURVE",
"784 -289 CURVE SMOOTH",
"841 -289 OFFCURVE",
"886 -256 OFFCURVE",
"898 -203 CURVE SMOOTH",
"909 -151 OFFCURVE",
"878 -116 OFFCURVE",
"821 -116 CURVE SMOOTH"
);
},
{
closed = 1;
nodes = (
"567 -357 OFFCURVE",
"524 -390 OFFCURVE",
"512 -444 CURVE SMOOTH",
"501 -498 OFFCURVE",
"530 -530 OFFCURVE",
"588 -530 CURVE SMOOTH",
"645 -530 OFFCURVE",
"688 -496 OFFCURVE",
"699 -444 CURVE SMOOTH",
"711 -391 OFFCURVE",
"682 -357 OFFCURVE",
"625 -357 CURVE SMOOTH"
);
},
{
closed = 1;
nodes = (
"466 -116 OFFCURVE",
"424 -149 OFFCURVE",
"413 -203 CURVE SMOOTH",
"401 -257 OFFCURVE",
"429 -289 OFFCURVE",
"487 -289 CURVE SMOOTH",
"544 -289 OFFCURVE",
"587 -256 OFFCURVE",
"599 -203 CURVE SMOOTH",
"610 -150 OFFCURVE",
"581 -116 OFFCURVE",
"524 -116 CURVE SMOOTH"
);
}
);
width = 1256;
}
);
unicode = 05B6;
},
{
glyphname = "patah-hb";
lastChange = "2013-03-10 17:20:24 +0200";
layers = (
{
anchors = (
{
name = _bottom;
position = "{635, -144}";
}
);
layerId = UUID0;
name = "Bold Italic";
paths = (
{
closed = 1;
nodes = (
"444 -118 LINE",
"420 -234 LINE",
"813 -234 LINE",
"837 -118 LINE"
);
}
);
width = 1256;
}
);
unicode = 05B7;
},
{
glyphname = "qamats-hb";
lastChange = "2013-03-10 17:20:24 +0200";
layers = (
{
anchors = (
{
name = _bottom;
position = "{656, -164}";
}
);
layerId = UUID0;
name = "Bold Italic";
paths = (
{
closed = 1;
nodes = (
"472 -138 LINE",
"447 -255 LINE",
"582 -255 LINE",
"539 -457 LINE",
"650 -457 LINE",
"693 -255 LINE",
"829 -255 LINE",
"854 -138 LINE"
);
}
);
width = 1256;
}
);
unicode = 05B8;
},
{
glyphname = "holam-hb";
lastChange = "2013-03-10 17:20:24 +0200";
layers = (
{
anchors = (
{
name = _topleft;
position = "{561, 1181}";
}
);
layerId = UUID0;
name = "Bold Italic";
paths = (
{
closed = 1;
nodes = (
"588 1583 OFFCURVE",
"546 1550 OFFCURVE",
"535 1496 CURVE SMOOTH",
"523 1442 OFFCURVE",
"551 1410 OFFCURVE",
"611 1410 CURVE SMOOTH",
"669 1410 OFFCURVE",
"713 1444 OFFCURVE",
"724 1496 CURVE SMOOTH",
"735 1548 OFFCURVE",
"705 1583 OFFCURVE",
"647 1583 CURVE SMOOTH"
);
}
);
width = 1256;
}
);
unicode = 05B9;
},
{
glyphname = "holamhaser-hb";
lastChange = "2013-03-10 17:20:24 +0200";
layers = (
{
anchors = (
{
name = _topleft;
position = "{561, 1181}";
}
);
layerId = UUID0;
name = "Bold Italic";
paths = (
{
closed = 1;
nodes = (
"588 1583 OFFCURVE",
"546 1550 OFFCURVE",
"535 1496 CURVE SMOOTH",
"523 1442 OFFCURVE",
"551 1410 OFFCURVE",
"611 1410 CURVE SMOOTH",
"669 1410 OFFCURVE",
"713 1444 OFFCURVE",
"724 1496 CURVE SMOOTH",
"735 1548 OFFCURVE",
"705 1583 OFFCURVE",
"647 1583 CURVE SMOOTH"
);
}
);
width = 600;
}
);
unicode = 05BA;
},
{
glyphname = "qubuts-hb";
lastChange = "2013-03-10 17:20:24 +0200";
layers = (
{
anchors = (
{
name = _bottom;
position = "{684, -158}";
}
);
layerId = UUID0;
name = "Bold Italic";
paths = (
{
closed = 1;
nodes = (
"776 -478 OFFCURVE",
"734 -511 OFFCURVE",
"723 -565 CURVE SMOOTH",
"711 -619 OFFCURVE",
"738 -651 OFFCURVE",
"798 -651 CURVE SMOOTH",
"856 -651 OFFCURVE",
"901 -617 OFFCURVE",
"912 -565 CURVE SMOOTH",
"923 -513 OFFCURVE",
"893 -478 OFFCURVE",
"835 -478 CURVE SMOOTH"
);
},
{
closed = 1;
nodes = (
"485 -127 OFFCURVE",
"443 -160 OFFCURVE",
"431 -214 CURVE SMOOTH",
"420 -268 OFFCURVE",
"448 -300 OFFCURVE",
"506 -300 CURVE SMOOTH",
"563 -300 OFFCURVE",
"606 -267 OFFCURVE",
"617 -214 CURVE SMOOTH",
"628 -161 OFFCURVE",
"600 -127 OFFCURVE",
"543 -127 CURVE SMOOTH"
);
},
{
closed = 1;
nodes = (
"629 -303 OFFCURVE",
"586 -336 OFFCURVE",
"575 -390 CURVE SMOOTH",
"563 -444 OFFCURVE",
"593 -476 OFFCURVE",
"651 -476 CURVE SMOOTH",
"708 -476 OFFCURVE",
"751 -442 OFFCURVE",
"762 -390 CURVE SMOOTH",
"773 -337 OFFCURVE",
"744 -303 OFFCURVE",
"687 -303 CURVE SMOOTH"
);
}
);
width = 1256;
}
);
unicode = 05BB;
},
{
glyphname = "dagesh-hb";
lastChange = "2013-03-10 17:20:24 +0200";
layers = (
{
anchors = (
{
name = _center;
position = "{626, 648}";
}
);
layerId = UUID0;
name = "Bold Italic";
paths = (
{
closed = 1;
nodes = (
"587 743 OFFCURVE",
"545 710 OFFCURVE",
"534 656 CURVE SMOOTH",
"522 602 OFFCURVE",
"550 570 OFFCURVE",
"610 570 CURVE SMOOTH",
"668 570 OFFCURVE",
"712 604 OFFCURVE",
"723 656 CURVE SMOOTH",
"734 708 OFFCURVE",
"704 743 OFFCURVE",
"646 743 CURVE SMOOTH"
);
}
);
width = 1256;
}
);
unicode = 05BC;
},
{
glyphname = uni05BD;
lastChange = "2013-03-10 17:20:24 +0200";
layers = (
{
anchors = (
{
name = _bottom;
position = "{669, -137}";
}
);
layerId = UUID0;
name = "Bold Italic";
paths = (
{
closed = 1;
nodes = (
"613 -157 LINE",
"539 -509 LINE",
"642 -509 LINE",
"716 -157 LINE"
);
}
);
width = 1256;
}
);
unicode = 05BD;
},
{
glyphname = "shindot-hb";
lastChange = "2013-03-10 17:20:24 +0200";
layers = (
{
anchors = (
{
name = _topright;
position = "{602, 1181}";
}
);
layerId = UUID0;
name = "Bold Italic";
paths = (
{
closed = 1;
nodes = (
"535 1583 OFFCURVE",
"493 1550 OFFCURVE",
"482 1496 CURVE SMOOTH",
"470 1442 OFFCURVE",
"498 1410 OFFCURVE",
"558 1410 CURVE SMOOTH",
"616 1410 OFFCURVE",
"660 1444 OFFCURVE",
"671 1496 CURVE SMOOTH",
"682 1548 OFFCURVE",
"652 1583 OFFCURVE",
"594 1583 CURVE SMOOTH"
);
}
);
width = 1256;
}
);
unicode = 05C1;
},
{
glyphname = "sindot-hb";
lastChange = "2013-03-10 17:20:24 +0200";
layers = (
{
anchors = (
{
name = _topleft;
position = "{561, 1181}";
}
);
layerId = UUID0;
name = "Bold Italic";
paths = (
{
closed = 1;
nodes = (
"588 1583 OFFCURVE",
"546 1550 OFFCURVE",
"535 1496 CURVE SMOOTH",
"523 1442 OFFCURVE",
"551 1410 OFFCURVE",
"611 1410 CURVE SMOOTH",
"669 1410 OFFCURVE",
"713 1444 OFFCURVE",
"724 1496 CURVE SMOOTH",
"735 1548 OFFCURVE",
"705 1583 OFFCURVE",
"647 1583 CURVE SMOOTH"
);
}
);
width = 1256;
}
);
unicode = 05C2;
},
{
glyphname = "qamatsqatan-hb";
lastChange = "2013-03-10 17:20:24 +0200";
layers = (
{
anchors = (
{
name = _bottom;
position = "{372, 20}";
}
);
layerId = UUID0;
name = "Bold Italic";
paths = (
{
closed = 1;
nodes = (
"146 -110 LINE",
"125 -210 LINE",
"281 -210 LINE",
"232 -444 LINE",
"325 -444 LINE",
"374 -210 LINE",
"535 -210 LINE",
"556 -110 LINE"
);
}
);
width = 600;
}
);
unicode = 05C7;
},
{
glyphname = "sheqel-hb";
lastChange = "2013-03-10 17:20:03 +0200";
layers = (
{
layerId = UUID0;
name = "Bold Italic";
paths = (
{
closed = 1;
nodes = (
"273 1295 LINE",
"-3 0 LINE",
"383 0 LINE",
"595 996 LINE",
"890 996 LINE SMOOTH",
"1106 996 OFFCURVE",
"1196 963 OFFCURVE",
"1142 708 CURVE SMOOTH",
"1100 509 LINE",
"1435 509 LINE",
"1481 726 LINE SMOOTH",
"1535 983 OFFCURVE",
"1556 1295 OFFCURVE",
"914 1295 CURVE SMOOTH"
);
},
{
closed = 1;
nodes = (
"1724 1295 LINE",
"1621 813 LINE SMOOTH",
"1550 477 OFFCURVE",
"1407 299 OFFCURVE",
"1039 299 CURVE SMOOTH",
"924 299 LINE",
"1037 833 LINE",
"691 833 LINE",
"514 0 LINE",
"975 0 LINE SMOOTH",
"1616 0 OFFCURVE",
"1900 357 OFFCURVE",
"1993 795 CURVE SMOOTH",
"2100 1295 LINE"
);
}
);
width = 2082;
}
);
unicode = 20AA;
},
